<?xml version="1.0" standalone="no"?>
<!DOCTYPE svg PUBLIC "-//W3C//DTD SVG 1.1//EN" "http://www.w3.org/Graphics/SVG/1.1/DTD/svg11.dtd" >
<svg xmlns="http://www.w3.org/2000/svg">
<metadata></metadata>
<defs>
<font id="simoncinigaramond_ltregular" horiz-adv-x="1024" >
<font-face units-per-em="2048" ascent="1638" descent="-410" />
<missing-glyph horiz-adv-x="512" />
<glyph horiz-adv-x="2048" />
<glyph horiz-adv-x="2048" />
<glyph unicode="&#xd;" horiz-adv-x="512" />
<glyph unicode=" "  horiz-adv-x="512" />
<glyph unicode="&#x09;" horiz-adv-x="512" />
<glyph unicode="&#xa0;" horiz-adv-x="512" />
<glyph unicode="!" horiz-adv-x="757" d="M274 59q0 57 33 97.5t78 40.5q35 0 66.5 -21.5t31.5 -79.5q0 -47 -32.5 -90t-83.5 -43q-35 0 -64 20.5t-29 75.5zM299 1231q0 27 5 53.5t15.5 48t29 34.5t44.5 13q41 0 65.5 -32.5t24.5 -100.5q0 -35 -9 -89t-21.5 -150.5t-26.5 -243t-23 -363.5h-53q-6 219 -14 358.5 t-16.5 228.5t-14.5 142.5t-6 100.5z" />
<glyph unicode="&#x22;" horiz-adv-x="985" d="M248 1411q0 10 4 23.5t13 26t24.5 21.5t38.5 9q45 0 62.5 -29.5t17.5 -50.5q0 -18 -1 -39.5t-6 -54.5l-24 -309q-2 -20 -11.5 -39t-37.5 -19q-29 0 -38 18.5t-11 39.5l-25 309q-4 33 -5 54.5t-1 39.5zM578 1411q0 10 4 23.5t13 26t24.5 21.5t37.5 9q45 0 62.5 -29.5 t17.5 -50.5q0 -18 -1 -39.5t-5 -54.5l-24 -309q-2 -20 -11.5 -39t-38.5 -19t-38 18.5t-11 39.5l-24 309q-4 33 -5 54.5t-1 39.5z" />
<glyph unicode="#" d="M43 438v99h213l61 270h-192v98h215l98 438h103l-99 -438h252l101 438h100l-98 -438h186v-98h-209l-61 -270h184v-99h-207l-98 -438h-103l101 438h-254l-98 -438h-103l98 438h-190zM358 537h254l60 270h-252z" />
<glyph unicode="$" d="M84 283q0 31 10 52t45 21q20 0 37 -11t28 -26.5t17 -30t6 -22.5l9 -96q2 -23 15 -46.5t42 -43t76 -31.5t114 -12v594q-94 55 -163.5 103t-114.5 95.5t-66.5 98.5t-21.5 112q0 53 17.5 108.5t58 103.5t111.5 83t179 45v133h62v-133q172 -2 262 -72.5t90 -181.5 q0 -41 -13.5 -54t-31.5 -13q-35 0 -62.5 37t-27.5 78q0 43 -15.5 69.5t-43 41.5t-67.5 22.5t-91 11.5v-545q115 -61 191.5 -115.5t121.5 -105.5t63.5 -99t18.5 -100q0 -88 -30.5 -158.5t-84 -121.5t-126 -80t-154.5 -31v-211h-62v211q-49 0 -117.5 10.5t-131 44t-106.5 96 t-44 169.5zM227 1094q0 -29 7.5 -56.5t34 -61.5t77.5 -76t137 -95v514q-78 -8 -128 -35t-78.5 -60.5t-39 -68.5t-10.5 -61zM545 37q57 4 106 22.5t86 49t58.5 71.5t21.5 92q0 31 -9 67t-38 77t-82 85t-143 93v-557z" />
<glyph unicode="%" horiz-adv-x="2048" d="M209 1094q0 86 26.5 152.5t73.5 112.5t112.5 70.5t143.5 24.5q59 0 116.5 -20.5t101.5 -61.5t72 -103.5t28 -146.5q0 -59 -21.5 -120.5t-66.5 -111.5t-113 -82t-162 -32q-70 0 -127 26.5t-98 71t-63.5 102t-22.5 118.5zM344 1096q0 -76 18.5 -128.5t48 -84t64.5 -45 t68 -13.5q39 0 75.5 14.5t65.5 48.5t46.5 89t17.5 137q0 90 -21.5 147.5t-51.5 89t-62.5 43t-57.5 11.5q-29 0 -65.5 -15.5t-68.5 -50t-54.5 -95t-22.5 -148.5zM516 -47l920 1511h90l-920 -1511h-90zM1165 281q0 86 27 152.5t74 112.5t112.5 70.5t143.5 24.5 q59 0 116.5 -20.5t101.5 -61.5t71.5 -103.5t27.5 -146.5q0 -59 -21.5 -120.5t-66.5 -111.5t-112.5 -82t-161.5 -32q-70 0 -127.5 26.5t-98.5 70.5t-63.5 102t-22.5 119zM1300 283q0 -76 18.5 -128.5t48.5 -84t64.5 -45t67.5 -13.5q39 0 76 14.5t65.5 48.5t46 89t17.5 137 q0 90 -21.5 147.5t-51 89t-62.5 43t-58 11.5q-29 0 -65.5 -15.5t-68 -50t-54.5 -95t-23 -148.5z" />
<glyph unicode="&#x26;" horiz-adv-x="1630" d="M133 354q0 53 16.5 108.5t57.5 109t112.5 106.5t180.5 104q-70 80 -96.5 136.5t-26.5 117.5q0 43 18.5 85t52 76t80.5 54.5t103 20.5q45 0 90 -13.5t81 -41t58.5 -68.5t22.5 -96q0 -63 -49.5 -124t-169.5 -120q41 -39 94 -93t107.5 -111.5t101.5 -114t77 -99.5 q63 82 105.5 146.5t67 111.5t35 80t10.5 51q0 20 -18.5 31.5t-44 18t-52.5 8.5t-43 2v61q53 -4 108.5 -6t108.5 -2q55 0 109.5 2t109.5 6v-61q-51 0 -83 -8.5t-55.5 -27t-42 -52t-44.5 -84.5q-41 -84 -99.5 -172t-125.5 -170q49 -78 86.5 -126t70.5 -77t64.5 -39t68.5 -10 q43 0 100.5 15t116.5 48l27 -45q-98 -57 -170 -80.5t-149 -23.5q-41 0 -78 9t-73 34.5t-76 69.5t-87 116q-123 -139 -238.5 -196.5t-234.5 -57.5q-78 0 -147.5 26.5t-121.5 78t-84 124t-32 162.5zM293 371q0 -55 18.5 -109.5t55 -95.5t90 -66.5t123.5 -25.5q98 0 191 53.5 t179 153.5q-41 57 -91 118.5t-105.5 121t-111.5 115.5t-110 103q-133 -100 -186 -185t-53 -183zM487 1073q0 -47 27 -101t111 -126q135 87 135 196q0 78 -43 117t-103 39q-53 0 -90 -37t-37 -88z" />
<glyph unicode="'" horiz-adv-x="528" d="M184 1411q0 10 4.5 23.5t13.5 26t24.5 21.5t37.5 9q45 0 62.5 -29.5t17.5 -50.5q0 -18 -1 -39.5t-5 -54.5l-25 -309q-2 -20 -11 -39t-38 -19t-38 18.5t-11 39.5l-25 309q-4 33 -5 54.5t-1 39.5z" />
<glyph unicode="(" horiz-adv-x="681" d="M166 643q0 121 18.5 233.5t61.5 221t115.5 218t181.5 224.5l30 -27q-82 -100 -135 -203.5t-83.5 -212t-42 -222t-11.5 -232.5t11.5 -232.5t42 -222t84 -212t134.5 -203.5l-30 -27q-109 115 -181.5 224.5t-115.5 218t-61.5 221t-18.5 233.5z" />
<glyph unicode=")" horiz-adv-x="681" d="M109 -227q82 100 135 203.5t83.5 212t42 222t11.5 232.5t-11.5 232.5t-42 222t-84 212t-134.5 203.5l30 27q109 -115 181.5 -224.5t115.5 -218t61.5 -221t18.5 -233.5t-18.5 -233.5t-61.5 -221t-115.5 -218t-181.5 -224.5z" />
<glyph unicode="*" horiz-adv-x="983" d="M102 1186q0 41 24 57.5t38 16.5q12 0 34.5 -6.5t39.5 -16.5l202 -123l-6 -27l-231 21q-47 4 -74 21.5t-27 56.5zM225 819q0 23 13.5 42.5t50.5 51.5l160 136l18 -15l-92 -221q-20 -49 -43 -58.5t-41 -9.5q-29 0 -47.5 19.5t-18.5 54.5zM418 1415q0 47 25.5 61.5 t48.5 14.5t48 -14.5t25 -61.5q0 -33 -19.5 -109.5t-39.5 -162.5h-29q-20 86 -39.5 162.5t-19.5 109.5zM516 1032l19 15l159 -136q37 -33 50.5 -52t13.5 -42q0 -35 -18.5 -54.5t-47.5 -19.5q-18 0 -40.5 9.5t-43.5 58.5zM543 1114l202 123q37 23 66 23q20 0 45 -16.5 t25 -57.5q0 -39 -27 -56.5t-74 -21.5l-231 -21z" />
<glyph unicode="+" horiz-adv-x="1228" d="M96 469v98h469v469h99v-469h469v-98h-469v-469h-99v469h-469z" />
<glyph unicode="," horiz-adv-x="512" d="M131 -307q102 86 137 141t35 98q0 33 -24.5 49.5t-53 31t-53.5 35t-25 61.5q0 47 29 67.5t64 20.5q37 0 66.5 -17.5t51 -45.5t32.5 -63.5t11 -72.5q0 -39 -11 -77t-37.5 -79t-71.5 -87t-115 -99z" />
<glyph unicode="-" horiz-adv-x="645" d="M121 383q2 16 4 29.5t2 29.5q0 14 -2 28.5t-4 31.5l201 -8q31 -2 71.5 1t130.5 7q-2 -16 -4 -29.5t-2 -30.5q0 -16 2 -30.5t4 -28.5l-200 8q-31 2 -72 -1t-131 -7z" />
<glyph unicode="." horiz-adv-x="512" d="M152 59q0 57 32.5 97.5t77.5 40.5q35 0 66.5 -21.5t31.5 -79.5q0 -47 -32.5 -90t-83.5 -43q-35 0 -63.5 20.5t-28.5 75.5z" />
<glyph unicode="/" horiz-adv-x="796" d="M2 -37l692 1528h101l-693 -1528h-100z" />
<glyph unicode="0" d="M72 653q0 205 44 344.5t111.5 224.5t146.5 121.5t148 36.5q59 0 134 -31.5t140.5 -111.5t110.5 -218t45 -353q0 -127 -28.5 -253t-85 -226.5t-138.5 -162t-188 -61.5q-80 0 -158 40t-141 124t-102 214t-39 312zM231 705q0 -190 25 -320.5t64.5 -210.5t90 -114.5 t103.5 -34.5q41 0 89 20.5t90 85t71 185t29 319.5q0 156 -18.5 282.5t-54.5 216t-88 137.5t-120 48q-47 0 -96 -27.5t-90 -97.5t-68 -188.5t-27 -300.5z" />
<glyph unicode="1" d="M207 1182q80 37 133 62.5t91 47t66.5 42t63.5 46.5l51 -20q-18 -453 -18 -899q0 -172 3 -266.5t17 -108.5q8 -8 20.5 -12t36 -7.5t61.5 -6.5t97 -7v-61q-78 4 -154.5 6t-154.5 2t-154.5 -2t-154.5 -6v61q59 4 97 7t61.5 6.5t36 7.5t20.5 12q14 14 17 108.5t3 266.5v80 v139v164q0 88 -2 162.5t-4 128t-6 65.5q-53 -12 -105.5 -28.5t-103.5 -36.5z" />
<glyph unicode="2" d="M0 55l412 434q139 147 213.5 268.5t74.5 221.5q0 61 -20.5 111.5t-55 84t-81.5 52t-99 18.5q-31 0 -67.5 -8t-78.5 -27.5t-86 -53.5t-87 -85l-51 37q86 139 205.5 205.5t234.5 66.5q74 0 139.5 -27.5t114.5 -74.5t76.5 -111.5t27.5 -138.5q0 -125 -64.5 -235.5 t-191.5 -231.5l-438 -418h537q25 0 58.5 11.5t47.5 40.5l72 -9q-27 -55 -42 -98t-30 -96q-86 4 -197.5 6t-234.5 2q-98 0 -196.5 -2t-184.5 -6z" />
<glyph unicode="3" d="M6 -37q100 25 211 70t202 110.5t150.5 153.5t59.5 203q0 18 -6.5 56t-31 76t-75.5 65.5t-141 27.5q-35 0 -56.5 -2t-48.5 -6l-18 61q154 104 222.5 183t68.5 145q0 72 -42 111.5t-122 39.5q-49 0 -105.5 -17t-140.5 -69l-31 39q188 170 349 170q111 0 175 -64.5 t64 -158.5q0 -45 -16.5 -83t-50 -74.5t-86 -75.5t-123.5 -82l4 -4q31 10 90 10q76 0 131 -25.5t91 -68.5t53.5 -100.5t17.5 -121.5q0 -90 -35 -167.5t-94.5 -142t-138 -117t-166.5 -91.5t-181.5 -64.5t-179.5 -35.5v49z" />
<glyph unicode="4" d="M2 360q12 49 27.5 91.5t49.5 98.5t94 136t161 207q96 123 191.5 241.5t185.5 245.5l59 -6q-2 -12 -5 -74.5t-4 -150.5t-2 -190.5t-2 -195.5t-2 -166t-1 -101l143 8q-4 -18 -6 -38t-2 -40q0 -18 2 -34.5t6 -31.5h-152q0 -166 3.5 -278.5t9.5 -149.5q-23 6 -42.5 8.5 t-41.5 2.5q-20 0 -41 -2t-43 -9q4 41 7 105.5t5 130t3 119t1 73.5h-604zM123 496h483v647h-4l-317 -402q-63 -80 -104.5 -141t-57.5 -104z" />
<glyph unicode="5" d="M-20 -37q102 14 220.5 60.5t220 121t168 176t66.5 226.5q0 49 -18.5 112.5t-77.5 119t-171 94t-296 38.5q82 215 133 432h375q94 0 157.5 12.5t112.5 24.5q-23 -49 -26.5 -89t-3.5 -89h-13q-6 0 -29.5 1t-57 2t-75.5 2t-83 1q-98 0 -170 -2t-140 -4q-27 -49 -42 -97 t-25 -97q39 8 76.5 11t58.5 3q102 0 191.5 -30.5t155 -89t103 -140.5t37.5 -187q0 -119 -61 -229t-174 -200.5t-268.5 -153t-343.5 -82.5v53z" />
<glyph unicode="6" d="M68 485q0 115 33.5 223.5t90 207t130 183.5t152.5 153.5t157 119.5t145 82l27 -47q-57 -33 -152.5 -111.5t-186.5 -199.5t-157.5 -281t-66.5 -352q0 -115 24.5 -198t66.5 -136t97 -78.5t115 -25.5q61 0 110 24.5t84 66.5t53.5 96t18.5 116q0 63 -16.5 125.5t-54.5 111.5 t-99 79t-154 30q-35 0 -60.5 -4t-53.5 -11l-13 48q72 33 128.5 49t123.5 16q86 0 150.5 -29.5t108.5 -82t65.5 -122t21.5 -147.5q0 -96 -34.5 -174t-94 -135t-136.5 -88t-159 -31q-129 0 -217 47t-143 122t-79.5 168t-24.5 185z" />
<glyph unicode="7" d="M29 1200q8 29 13 74t9 96q31 -8 95.5 -12t142.5 -8q76 -4 148.5 -5.5t117.5 -1.5h49q39 0 87 1.5t100.5 3.5t91.5 4q-6 -12 -31 -75t-63.5 -164t-87 -235.5t-100.5 -289t-104.5 -326.5t-97.5 -346q-53 29 -98 29q-16 0 -25.5 -1t-25.5 -3q53 174 99 302t87 228t79 184 t78 169t83 180.5t92 220.5q-33 -8 -60.5 -12.5t-74.5 -4.5q-70 0 -146.5 3t-138.5 3q-23 0 -67.5 -1t-95 -3t-94.5 -5t-62 -5z" />
<glyph unicode="8" d="M86 319q0 111 76 206.5t231 168.5q-137 88 -195.5 169t-58.5 181q0 61 25.5 122t75 109t119 76.5t159.5 28.5q98 0 168 -29.5t114 -74.5t64.5 -97.5t20.5 -97.5q0 -59 -22.5 -106t-61.5 -86t-94.5 -71t-118.5 -58q80 -49 145.5 -96.5t110.5 -98.5t69.5 -109.5 t24.5 -129.5q0 -53 -24.5 -117t-76 -118t-132 -91t-193.5 -37q-100 0 -179 28.5t-134.5 77t-84 112.5t-28.5 138zM209 305q0 -53 21.5 -104t61.5 -90t97 -62.5t127 -23.5q51 0 102.5 21.5t92.5 56t66.5 82t25.5 100.5q0 33 -10.5 68.5t-46 79.5t-106.5 98.5t-191 125.5 q-119 -74 -179.5 -157.5t-60.5 -194.5zM274 1092q0 -41 14.5 -75t47.5 -70t85 -73.5t128 -87.5q86 53 149.5 126t63.5 165q0 63 -22.5 109.5t-58.5 75t-77 43t-78 14.5q-63 0 -110 -21.5t-79 -55.5t-47.5 -74t-15.5 -76z" />
<glyph unicode="9" d="M78 948q0 90 28.5 169t84 137.5t134 92t179.5 33.5q102 0 184 -41t139.5 -111.5t88 -165.5t30.5 -204q0 -186 -69.5 -337.5t-180 -268.5t-249 -200t-275.5 -132l-14 43q129 55 242.5 146.5t199.5 208t136 252t50 278.5q0 76 -16 160t-53 152.5t-96.5 113.5t-143.5 45 q-57 0 -104 -23.5t-80 -63.5t-50.5 -94.5t-17.5 -115.5q0 -90 27 -152.5t66.5 -101.5t85 -56.5t79.5 -17.5q53 0 110.5 12.5t98.5 41.5l27 -39q-72 -59 -137.5 -86t-155.5 -27q-76 0 -139.5 26.5t-109.5 73.5t-72.5 111.5t-26.5 140.5z" />
<glyph unicode=":" horiz-adv-x="512" d="M152 59q0 57 32.5 97.5t77.5 40.5q35 0 66.5 -21.5t31.5 -79.5q0 -47 -32.5 -90t-83.5 -43q-35 0 -63.5 20.5t-28.5 75.5zM152 727q0 57 32.5 97t77.5 40q35 0 66.5 -21.5t31.5 -78.5q0 -47 -32.5 -90t-83.5 -43q-35 0 -63.5 20.5t-28.5 75.5z" />
<glyph unicode=";" horiz-adv-x="512" d="M131 -307q102 86 137 141t35 98q0 33 -24.5 49.5t-53 31t-53.5 35t-25 61.5q0 47 29 67.5t64 20.5q37 0 66.5 -17.5t51 -45.5t32.5 -63.5t11 -72.5q0 -39 -11 -77t-37.5 -79t-71.5 -87t-115 -99zM152 727q0 57 32.5 97t77.5 40q35 0 66.5 -21.5t31.5 -78.5 q0 -47 -32.5 -90t-83.5 -43q-35 0 -63.5 20.5t-28.5 75.5z" />
<glyph unicode="&#x3c;" horiz-adv-x="1228" d="M96 463v110l1037 480v-113l-912 -422l912 -422v-112z" />
<glyph unicode="=" horiz-adv-x="1228" d="M96 268v99h1037v-99h-1037zM96 670v98h1037v-98h-1037z" />
<glyph unicode="&#x3e;" horiz-adv-x="1228" d="M96 -16v112l912 422l-912 422v113l1037 -480v-110z" />
<glyph unicode="?" horiz-adv-x="948" d="M152 1329q0 51 108 51q84 0 178 -37.5t174 -105.5t132.5 -162t52.5 -207q0 -106 -45 -170.5t-109.5 -101.5t-134.5 -52.5t-117 -21.5q-16 -2 -25.5 -7t-15.5 -19.5t-10 -43t-6 -77.5l-4 -88h-54q-4 127 -10 207.5t-6 89.5q0 35 8 47t29 16q109 25 183.5 50.5t120.5 59.5 t65.5 78t19.5 103q0 68 -28.5 130t-71.5 109.5t-93.5 76t-93.5 28.5q-29 0 -53 -9t-43.5 -20.5t-34 -20.5t-24.5 -9q-16 0 -32.5 13t-30 31.5t-21.5 36t-8 25.5zM193 59q0 57 32.5 97.5t77.5 40.5q35 0 66.5 -21.5t31.5 -79.5q0 -47 -32.5 -90t-83.5 -43q-35 0 -63.5 20.5 t-28.5 75.5z" />
<glyph unicode="@" horiz-adv-x="1638" d="M63 694q0 178 65 325.5t173.5 252t253.5 162t307 57.5q150 0 281 -49t226 -136t150.5 -207t55.5 -259q0 -86 -26.5 -178.5t-78 -169t-126 -127t-173.5 -50.5q-55 0 -92 19.5t-59.5 46.5t-31.5 52.5t-9 35.5h-4q-47 -80 -112.5 -117t-131.5 -37q-98 0 -162.5 69t-64.5 204 q0 100 39 195.5t102.5 169t141 117.5t155.5 44q41 0 90 -28.5t66 -84.5h4l20 86h146l-148 -575q-6 -29 -6 -55q0 -39 26.5 -59.5t61.5 -20.5q76 0 134.5 44t98.5 112.5t59 149.5t19 155q0 96 -43 200.5t-125.5 191.5t-204.5 143.5t-278 56.5q-137 0 -253.5 -49.5 t-203 -145.5t-134.5 -237.5t-48 -325.5q0 -119 45 -234.5t130 -208t208 -148.5t277 -56q72 0 131 9t110.5 23.5t97.5 34t93 41.5l28 -47q-106 -47 -217.5 -85t-240.5 -38q-215 0 -370 71.5t-255 181.5t-148.5 238t-48.5 240zM651 578q0 -106 44 -147.5t110 -41.5q33 0 79 32 t88 94.5t71.5 154.5t29.5 213q0 47 -11 75.5t-27.5 44t-36 20.5t-35.5 5q-39 0 -92.5 -29.5t-102.5 -88t-83 -142.5t-34 -190z" />
<glyph unicode="A" horiz-adv-x="1441" d="M27 -8v57l90 14q23 4 42 22.5t42 78.5q25 66 66.5 171t90 228t96.5 249t88 234.5t65.5 187.5t27.5 103q16 14 32.5 37t31 47.5t23.5 50t13 44.5h62q4 -37 12 -78t20 -78l404 -1163q12 -37 23.5 -62.5t24.5 -41t30.5 -24t44.5 -10.5l59 -6v-61q-39 4 -100.5 6t-147.5 2 t-160.5 -2t-132.5 -6v61q66 4 105 9.5t58.5 13.5t25.5 19t6 30q0 12 -5 32.5t-11 43t-13.5 45t-13.5 37.5l-113 315q-25 2 -51 2h-49q-92 0 -180 -4t-180 -8q-23 -61 -47.5 -135t-46 -142.5t-35 -121t-13.5 -68.5q0 -20 5.5 -31.5t24.5 -19t56 -10.5t103 -7v-61 q-35 4 -92.5 6t-137.5 2q-74 0 -138 -2t-105 -6zM485 676q33 -2 72 -4t80 -4t81 -4t75 -2q25 0 51 1t51 1q-12 68 -39 157.5t-57.5 177.5t-58.5 161t-40 102q-61 -141 -116.5 -292t-98.5 -294z" />
<glyph unicode="B" horiz-adv-x="1290" d="M45 -8v61q66 4 103.5 7t58 6.5t27 7.5t10.5 10q6 8 10 22.5t7 54.5t5 111.5t2 192.5v524q0 121 -2 192.5t-5 111.5t-7 54.5t-10 22.5q-4 6 -10.5 10t-27 7.5t-58 6.5t-103.5 7v61q61 -4 146 -6t229 -2q37 0 66.5 1t59 3t61.5 3t75 1q68 0 144.5 -15t142 -53t108.5 -101.5 t43 -157.5q0 -113 -81 -200t-234 -124v-4q205 -25 308.5 -134.5t103.5 -262.5q0 -84 -35 -159t-99.5 -133.5t-156.5 -92t-205 -33.5q-127 0 -208 4t-138 4q-76 0 -168 -2t-162 -6zM436 748l6 -549q0 -43 8.5 -70t29 -41t56 -18t91.5 -4q63 0 135 12t131 47t99 97.5t40 164.5 q0 106 -39 177t-103.5 113t-148.5 59.5t-172 17.5q-59 0 -85.5 -2t-47.5 -4zM436 815q80 0 170 6t166 36t126 89.5t50 167.5q0 145 -98 216t-256 71q-49 0 -79 -3t-45 -15.5t-20.5 -38t-5.5 -68.5z" />
<glyph unicode="C" horiz-adv-x="1402" d="M74 717q0 143 51 282.5t148.5 249t238.5 176t324 66.5q113 0 219 -18.5t217 -53.5v-274h-62l-16 74q-23 96 -119 153.5t-250 57.5q-121 0 -220 -45.5t-171 -134.5t-111.5 -220t-39.5 -301q0 -186 46 -319.5t122.5 -219.5t176 -125.5t208.5 -39.5q45 0 103 9t113.5 33.5 t99.5 69.5t62 119l25 96h76l-29 -293q-90 -45 -206.5 -70.5t-243.5 -25.5q-162 0 -301.5 55.5t-242 155.5t-160.5 238.5t-58 304.5z" />
<glyph unicode="D" horiz-adv-x="1593" d="M45 -8v61q66 4 103.5 7t58 6.5t27 7.5t10.5 10q6 8 10 22.5t7 54.5t5 111.5t2 192.5v524q0 121 -2 192.5t-5 111.5t-7 54.5t-10 22.5q-4 6 -10.5 10t-27 7.5t-58 6.5t-103.5 7v61q59 -4 130 -6t151 -2q104 0 206.5 4t200.5 4q152 0 294 -47t252 -141t175.5 -235.5 t65.5 -327.5q0 -74 -14.5 -156t-48.5 -162t-91 -152.5t-144 -128t-206 -88t-277 -32.5q-72 0 -142.5 1t-129.5 3t-101 3t-55 1q-10 0 -39.5 -1t-68.5 -2t-81 -2t-77 -3zM440 819q0 -117 1 -254t3 -321q0 -66 6.5 -102t31 -53t76.5 -20t144 -3q104 0 213 29.5t197 103 t143.5 199.5t55.5 319q0 96 -33 214t-109.5 219t-201.5 170t-312 69q-74 0 -114.5 -2.5t-60 -7.5t-23.5 -15t-4 -27q-6 -137 -9.5 -263t-3.5 -255z" />
<glyph unicode="E" horiz-adv-x="1327" d="M45 -8v61q66 4 103.5 7t58 6.5t27 7.5t10.5 10q6 8 10 22.5t7 54.5t5 111.5t2 192.5v524q0 121 -2 192.5t-5 111.5t-7 54.5t-10 22.5q-4 6 -10.5 10t-27 7.5t-58 6.5t-103.5 7v61q37 -2 82 -3l90 -2t85 -2t69 -1h84q61 0 139 1t165 2t166 2t142 1q66 0 96 2v-303h-73 l-25 111q-8 39 -18.5 62.5t-43 35.5t-98 16.5t-182.5 4.5q-98 0 -152.5 -3.5t-80 -11.5t-30.5 -20.5t-5 -30.5l-9 -532q41 -2 108 -3.5t159 -1.5q82 0 128 3.5t68.5 13.5t26.5 29.5t4 52.5v88h61q-2 -57 -3 -108.5t-1 -104.5v-49q0 -27 1 -57.5t2 -61.5t1 -55h-61 q0 63 -2 99t-11 52.5t-26.5 21.5t-50.5 9q-35 4 -81 5t-95 1q-61 0 -121.5 -1t-106.5 -3q-2 -115 -4 -226.5t-2 -226.5q0 -72 3 -109.5t13.5 -56t29 -21.5t46.5 -3h369q74 0 122 11t82 41t58.5 83t50.5 137h68l-65 -358q-117 4 -278 6t-335 2q-170 0 -305 -2t-254 -6z" />
<glyph unicode="F" horiz-adv-x="1214" d="M45 -8v61q66 4 103.5 7t58 6.5t27 7.5t10.5 10q6 8 10 22.5t7 54.5t5 111.5t2 192.5v524q0 121 -2 192.5t-5 111.5t-7 54.5t-10 22.5q-4 6 -10.5 10t-27 7.5t-58 6.5t-103.5 7v61q37 -2 82 -3l90 -2t84 -2t68 -1h84q61 0 139 1t165 2t167 2t143 1t94 2l8 -327h-65 l-37 135q-10 39 -21.5 62.5t-44 35.5t-98 16.5t-182.5 4.5q-98 0 -152.5 -3.5t-79 -11.5t-29.5 -20.5t-5 -30.5l-9 -532q41 -2 108 -3.5t159 -1.5q82 0 128 3.5t68.5 13.5t26.5 29.5t4 52.5v88h61q-2 -57 -3 -108.5t-1 -104.5v-49q0 -27 1 -57.5t2 -61.5t1 -55h-61 q0 63 -2 99t-11 52.5t-26.5 21.5t-50.5 9q-35 4 -81 5t-95 1q-61 0 -121.5 -1t-106.5 -3q-2 -57 -4 -108.5t-2 -112.5q0 -115 2 -192t5.5 -124t6.5 -69.5t7 -28.5q6 -6 13 -11t26.5 -9.5t57.5 -7.5t104 -9v-57q-57 4 -137.5 6t-153.5 2q-29 0 -69 -1t-85 -2l-90 -2t-82 -3z " />
<glyph unicode="G" horiz-adv-x="1669" d="M74 717q0 180 71.5 324.5t186 243.5t257 152.5t283.5 53.5q117 0 259.5 -27.5t295.5 -95.5l13 -276h-68q-41 172 -165 255t-318 83q-45 0 -108.5 -12.5t-131 -43.5t-133 -82t-118 -129t-84 -185.5t-31.5 -250.5q0 -182 63.5 -314t156.5 -218t198.5 -128t187.5 -42 q117 0 201 22.5t143 81.5q10 10 13 49t3 154q0 82 -2 130t-9 71.5t-21.5 29.5t-36.5 6q-47 2 -96.5 5.5t-96.5 3.5v61q78 -4 156 -6t155 -2q92 0 168 2t142 6v-61q-27 0 -51.5 -2.5t-51.5 -4.5q-25 -2 -40 -6t-22 -17t-9 -42t-2 -78q0 -33 1 -84t1 -106q0 -49 -3.5 -78 t-12.5 -45.5t-24.5 -26.5t-39.5 -20q-123 -53 -258 -79t-260 -26q-162 0 -301.5 55.5t-242 155.5t-160.5 238.5t-58 304.5z" />
<glyph unicode="H" horiz-adv-x="1705" d="M45 -8v61q66 4 103.5 7t58 6.5t27 7.5t10.5 10q6 8 10 22.5t7 54.5t5 111.5t2 192.5v524q0 121 -2 192.5t-5 111.5t-7 54.5t-10 22.5q-4 6 -10.5 10t-27 7.5t-58 6.5t-103.5 7v61q37 -2 82 -3l90 -2t85 -2t69 -1q74 0 153.5 2t137.5 6v-57q-66 -6 -104 -9t-57.5 -7.5 t-26.5 -9.5t-13 -11q-4 -6 -7 -28.5t-6.5 -69.5t-5.5 -125t-2 -191q0 -47 2 -91t4 -91q94 -4 191.5 -5t163.5 -1h94q55 0 115.5 1t125 2t124.5 3q2 47 4 91t2 91q0 113 -2 191t-5.5 125t-6.5 69.5t-7 28.5q-6 6 -13 11t-27.5 9.5t-57.5 7.5t-103 9v57q57 -4 137.5 -6 t153.5 -2q29 0 69 1t85 2l90 2t82 3v-61q-66 -4 -103.5 -7t-58 -6.5t-27 -7.5t-10.5 -10q-6 -8 -10 -22.5t-7 -54.5t-5 -111.5t-2 -192.5v-524q0 -121 2 -192.5t5 -111.5t7 -54.5t10 -22.5q4 -6 10.5 -10t27 -7.5t58 -6.5t103.5 -7v-61q-37 2 -82 3l-90 2t-85 2t-69 1 q-74 0 -153.5 -2t-137.5 -6v57q66 6 103 9t57.5 7.5t27.5 9.5t13 11q4 6 7 28.5t6.5 69.5t5.5 124t2 192q0 57 -2 103t-7 87q-53 4 -118.5 9.5t-137.5 5.5q-68 0 -142.5 -1.5t-148 -3.5t-142 -5t-119.5 -5q-4 -41 -6.5 -87t-2.5 -103q0 -115 2 -192t5.5 -124t6.5 -69.5 t7 -28.5q6 -6 13 -11t26.5 -9.5t57.5 -7.5t104 -9v-57q-57 4 -137.5 6t-153.5 2q-29 0 -69 -1t-85 -2l-90 -2t-82 -3z" />
<glyph unicode="I" horiz-adv-x="757" d="M51 -8v61q59 4 97 7t61.5 6.5t36 7.5t20.5 12q14 14 17.5 108.5t3.5 266.5v532q0 172 -3 266.5t-18 108.5q-8 8 -20.5 12t-36 7.5t-61 6.5t-97.5 7v61q63 -4 143 -6t185 -2q104 0 184 2t144 6v-61q-59 -4 -97.5 -7t-62 -6.5t-35.5 -7.5t-20 -12q-14 -14 -17.5 -108.5 t-3.5 -266.5v-532q0 -172 3 -266.5t18 -108.5q8 -8 20 -12t35.5 -7.5t61.5 -6.5t98 -7v-61q-63 4 -143.5 6t-184.5 2t-184 -2t-144 -6z" />
<glyph unicode="J" horiz-adv-x="757" d="M-152 -326q0 51 14.5 70.5t53.5 19.5q33 0 50.5 -20t30.5 -46t29.5 -46.5t47.5 -20.5q35 0 72.5 27t68.5 82t51.5 137t20.5 193v923q0 172 -3 266.5t-18 108.5q-8 8 -20.5 12t-36 7.5t-61 6.5t-97.5 7v61q63 -4 143 -6t185 -2q104 0 184 2t144 6v-61q-59 -4 -97.5 -7 t-62 -6.5t-35.5 -7.5t-20 -12q-14 -14 -17.5 -108.5t-3.5 -266.5v-102q0 -63 -1 -141t-2 -163t-4 -165t-7 -148.5t-8 -113.5q-20 -184 -81 -303t-136.5 -188.5t-154.5 -96.5t-136 -27q-43 0 -68 28t-25 101z" />
<glyph unicode="K" horiz-adv-x="1478" d="M70 -8v61q70 2 108.5 7.5t57 15.5t22.5 27.5t4 46.5q6 176 6 315v260v133q0 66 -1 136.5t-2 147.5t-3 167q0 29 -5 46t-24.5 26.5t-57.5 13.5t-105 6v61q74 -4 147.5 -6t147.5 -2t147.5 2t146.5 6v-61q-80 -2 -123.5 -7t-65 -17.5t-26 -36t-4.5 -64.5l-2 -504 q45 14 106.5 59.5t128 104.5t131 125.5t117 127t84 107.5t31.5 66q0 8 -3 13t-16 10.5t-40 8.5t-74 7v61q49 -2 96.5 -3t86 -2t66.5 -2t38 -1q59 0 117.5 2t109.5 6v-61q-72 -6 -114.5 -14.5t-83.5 -30.5q-20 -10 -81 -68.5t-146 -139.5t-185 -175t-201 -176 q45 -37 103.5 -95.5t125 -127t134 -141.5t132 -139.5t119 -120.5t93.5 -85q8 -6 39.5 -16.5t91.5 -18.5v-61q-68 4 -134.5 6t-133.5 2q-68 0 -134.5 -2t-134.5 -6v61q92 10 117 18.5t25 18.5q0 16 -6.5 26.5t-36.5 49.5q-20 27 -62.5 74t-94.5 103t-111.5 117.5t-116 114 t-104.5 92.5t-79 54l2 -539q0 -41 4.5 -64.5t24.5 -35.5t65.5 -17.5t124.5 -11.5v-61q-74 4 -147.5 6t-146.5 2q-74 0 -148 -2t-147 -6z" />
<glyph unicode="L" horiz-adv-x="1290" d="M45 -8v61q66 4 103.5 7t58 6.5t27 7.5t10.5 10q6 8 10 22.5t7 54.5t5 111.5t2 192.5v524q0 121 -2 192.5t-5 111.5t-7 54.5t-10 22.5q-4 6 -10.5 10t-27 7.5t-58 6.5t-103.5 7v61q37 -2 82 -3l90 -2t85 -2t69 -1q74 0 153.5 2t137.5 6v-57q-66 -6 -104 -9t-57.5 -7.5 t-26.5 -9.5t-13 -11q-4 -6 -7 -28.5t-6.5 -69.5t-5.5 -125t-2 -191q0 -205 4 -410.5t5 -402.5q0 -23 5 -35t19 -18t42 -8t75 -2q164 0 257 4t142 19.5t70.5 44t44.5 77.5l72 156l57 -6l-80 -381q-135 4 -259 6t-235 2q-121 0 -280.5 -2t-333.5 -6z" />
<glyph unicode="M" horiz-adv-x="1857" d="M45 -8v61q47 2 76 6t45 8.5t23.5 11.5t11.5 17t14 98.5t22.5 215.5t24.5 276.5t22.5 283.5t16.5 235.5t6 131.5q0 18 -4 30.5t-20.5 20t-48 10.5t-87.5 3h-36v61q43 -4 87 -6t87 -2q51 0 101 2t101 6q23 -66 60 -166t82 -213.5t93 -234.5t94 -228.5t85 -192.5t66 -130 q61 143 126.5 310t124 327t106.5 299t75 229q39 -4 79 -6t95 -2q43 0 94 2t113 6v-61l-92 -4q-35 -2 -53.5 -6.5t-29 -19.5t-12.5 -46t-2 -88q0 -4 1 -53t3 -127t5.5 -178.5t7.5 -206t8 -206.5t9 -182t10 -135.5t12 -62.5q4 -6 12 -11t25.5 -9.5t48 -7.5t79.5 -5v-61 q-70 4 -146.5 6t-154.5 2q-70 0 -138 -2t-136 -6v61q104 6 144 13.5t49 23.5q6 14 9 53t4 87.5t1 97.5v92q0 57 -1 132t-2 157t-3 164.5t-4 158.5t-5.5 138.5t-7.5 103.5h-4q-23 -57 -55.5 -146.5t-70.5 -191.5t-77.5 -212t-74.5 -208t-61.5 -179t-39.5 -128 q-12 -8 -29.5 -30.5t-32.5 -52.5t-27.5 -62.5t-18.5 -63.5h-37q-14 51 -52 150.5t-88.5 222.5t-107.5 256t-109.5 254t-94.5 215t-60 137h-4q-8 -100 -17.5 -224t-17.5 -256t-13 -263.5t-5 -247.5q0 -55 1 -87t6 -49.5t14 -24.5t26 -11q35 -8 68.5 -11.5t78.5 -7.5v-61 q-63 4 -123.5 6t-140.5 2q-68 0 -118 -2t-91 -6z" />
<glyph unicode="N" horiz-adv-x="1630" d="M70 -8v69q41 4 66.5 7.5t39.5 7.5t20.5 8t10.5 8t8 19.5t7 56.5t7 111.5t6.5 187.5t4.5 285t2 401q0 66 -2 106.5t-6.5 65.5t-9.5 35t-11 14q-10 10 -46 16.5t-89 6.5v65q43 -4 86 -6t86 -2q35 0 69.5 2t69.5 6q229 -317 466 -616t458 -559q0 92 1 172t1 172 q0 231 -3 373.5t-7.5 222.5t-8.5 108.5t-8 34.5t-11 11t-23.5 10.5t-45 7.5t-73.5 2v61q49 -2 80.5 -3t54 -2t39 -2t34.5 -1q55 0 109.5 3t108.5 5v-61q-80 0 -108 -8.5t-36 -36.5q-4 -12 -9 -108.5t-9 -257.5t-7 -375t-3 -457v-195h-56q-115 152 -241.5 316.5t-259 330.5 t-263.5 326t-250 301l-4 -4q2 -113 3 -260.5t2.5 -298t4.5 -289.5t9 -233q2 -29 13 -53.5t52 -28.5l93 -9v-69q-43 4 -88.5 6t-124.5 2q-76 0 -119 -2t-90 -6z" />
<glyph unicode="O" horiz-adv-x="1671" d="M74 717q0 143 51 282.5t148.5 249t238.5 176t324 66.5q182 0 323 -66.5t238.5 -176t148.5 -249t51 -282.5q0 -166 -58 -304.5t-160.5 -238.5t-242 -155.5t-300.5 -55.5q-162 0 -301.5 55.5t-242 155.5t-160.5 238.5t-58 304.5zM283 729q0 -186 46 -319.5t122.5 -219.5 t176 -125.5t208.5 -39.5q117 0 218 36.5t175 120.5t117 217t43 328q0 184 -46.5 316.5t-123 218.5t-177 127t-206.5 41q-125 0 -226.5 -45.5t-174.5 -134.5t-112.5 -220t-39.5 -301z" />
<glyph unicode="P" horiz-adv-x="1251" d="M27 -8v61q61 4 100 7t63.5 6.5t37 7.5t20.5 12q14 14 17 108.5t3 266.5v532q0 172 -3 266.5t-17 108.5q-8 8 -20.5 12t-37 7.5t-63.5 6.5t-100 7v61q35 -2 69.5 -3t74.5 -2t88 -2t110 -1q43 0 80.5 1t77.5 3t86 3t102 1q109 0 197.5 -32.5t152 -89t98.5 -135.5t35 -171 q0 -104 -41 -185t-111.5 -137.5t-165 -86t-200.5 -29.5q-41 0 -88 2t-76 6v74q16 -4 40 -6t46 -2q106 0 184 29.5t129.5 78.5t75 113.5t23.5 136.5q0 96 -32 166t-86 116t-129 68.5t-161 22.5q-55 0 -87 -2t-48 -9.5t-20.5 -19.5t-4.5 -33q0 -86 -3 -170t-3 -170v-536 q0 -172 3 -266.5t18 -108.5q8 -8 20.5 -12t36 -7.5t61 -6.5t97.5 -7v-61q-63 4 -143 6t-185 2q-96 0 -175 -2t-146 -6z" />
<glyph unicode="Q" horiz-adv-x="1671" d="M74 717q0 143 51 282.5t148.5 249t238.5 176t324 66.5q182 0 323 -66.5t238.5 -176t148.5 -249t51 -282.5q0 -147 -46 -273.5t-129 -222.5t-197.5 -159.5t-249.5 -86.5q35 -123 162 -185t329 -85v-61h-104q-96 0 -194.5 16t-184.5 55t-151.5 101.5t-92.5 152.5 q-145 16 -267 78t-210 160t-138 227t-50 283zM283 729q0 -186 46 -319.5t122.5 -219.5t176 -125.5t208.5 -39.5q117 0 218 36.5t175 120.5t117 217t43 328q0 184 -46.5 316.5t-123 218.5t-177 127t-206.5 41q-125 0 -226.5 -45.5t-174.5 -134.5t-112.5 -220t-39.5 -301z" />
<glyph unicode="R" horiz-adv-x="1290" d="M27 -8v61q61 4 100 7t63.5 6.5t37 7.5t20.5 12q14 14 17 108.5t3 266.5v532q0 172 -3 266.5t-17 108.5q-8 8 -20.5 12t-37 7.5t-63.5 6.5t-100 7v61q59 -2 161.5 -5t198.5 -3q43 0 77 1t65.5 3t66.5 3t80 1q211 0 323.5 -96t112.5 -252q0 -47 -14.5 -99t-51 -100.5 t-103 -89.5t-171.5 -61v-4q14 -4 27.5 -13.5t35 -37t55.5 -82t87 -148.5l211 -368q8 -14 15 -22.5t22.5 -13.5t41 -8.5t68.5 -5.5v-69q-33 2 -72.5 3t-80.5 2t-78 2t-62 1q-43 88 -79.5 159.5t-72.5 136t-71 127t-71 130.5q-31 55 -52.5 88t-40 50.5t-38 23.5t-44.5 6h-133 v-260q0 -172 3 -266.5t18 -108.5q8 -8 20.5 -12t36 -7.5t61 -6.5t97.5 -7v-61q-63 4 -143 6t-185 2q-96 0 -175 -2t-146 -6zM440 786q12 -2 27.5 -3t42.5 -1q203 0 310.5 73t107.5 241q0 92 -29 151.5t-81 93t-123.5 47t-159.5 13.5q-29 0 -47.5 -6t-28.5 -31t-14.5 -73 t-4.5 -130v-375z" />
<glyph unicode="S" horiz-adv-x="1062" d="M100 1118q0 59 25 125t75 121t130 91t190 36q123 0 205 -24.5t156 -59.5v-250h-86q-6 66 -23.5 116t-48.5 85t-80 53.5t-119 18.5q-68 0 -119 -19.5t-86.5 -52.5t-53 -77t-17.5 -91q0 -37 9 -71t38 -68.5t83 -73.5t146 -90q131 -74 216 -130.5t134.5 -109.5t69 -109.5 t19.5 -129.5q0 -72 -28 -150t-87.5 -143.5t-155.5 -108.5t-231 -43q-49 0 -101.5 8.5t-99.5 21.5t-87 29.5t-67 34.5v301h82l9 -67q6 -49 21 -97.5t47 -86t85 -60t137 -22.5q57 0 117 17t106 54t75.5 93.5t29.5 132.5q0 88 -62.5 161.5t-209.5 151.5q-133 70 -219 129 t-135.5 115.5t-69 115t-19.5 123.5z" />
<glyph unicode="T" horiz-adv-x="1327" d="M29 1118l88 385h51q6 -16 16.5 -25.5t37 -14.5t71.5 -7t119 -2h587q125 0 179.5 9.5t68.5 39.5h51l-57 -387h-55q-6 61 -11.5 102.5t-11.5 68t-14 40.5t-19 25q-16 14 -57 21t-115 7h-112q-33 0 -52.5 -3t-28.5 -14t-12 -31.5t-3 -55.5v-1075q0 -43 2 -70t9 -40t21.5 -18 t38.5 -7q49 -4 84 -7.5t70 -5.5v-61q-66 4 -150 6t-176 2q-98 0 -181 -2t-136 -6v61q49 4 77.5 6t59.5 7q39 2 60.5 9t31.5 26.5t13.5 56.5t3.5 100v1063q0 41 -10.5 50t-49.5 9h-178q-55 0 -87 -18.5t-67 -52.5q-16 -18 -35.5 -52t-37.5 -75l-29 -64h-55z" />
<glyph unicode="U" horiz-adv-x="1517" d="M43 1401v61q66 -4 131.5 -6t130.5 -2q78 0 157 2t156 6v-61q-12 0 -36.5 -2t-51 -3t-49 -3t-28.5 -4q-10 -2 -18.5 -9.5t-13.5 -26t-8 -53t-3 -92.5l-11 -594q0 -41 -2 -86t-2 -98q0 -176 86 -278.5t277 -102.5q76 0 155.5 18.5t145 72t106.5 151.5t41 258 q0 250 -1 408.5t-4 250.5t-8 129t-13 43q-4 4 -12.5 7.5t-27 5.5t-49 4t-81.5 4v61q57 -4 114.5 -6t114.5 -2q59 0 112.5 2t98.5 6v-61q-47 0 -73.5 -3t-40 -11.5t-18.5 -24.5t-5 -41l-25 -842q-4 -115 -36.5 -209t-99.5 -162.5t-166 -106.5t-236 -38q-119 0 -217.5 31 t-169 89t-109.5 144t-39 195v893q0 29 -4 45t-21.5 24.5t-52.5 11.5t-94 5z" />
<glyph unicode="V" horiz-adv-x="1441" d="M20 1401v61q72 -4 137.5 -6t131.5 -2q72 0 143.5 2t147.5 6v-61q-63 0 -100.5 -2t-57 -8.5t-25.5 -16.5t-6 -24q0 -27 24.5 -113t63.5 -201.5t86 -248t91 -252t82 -212t57 -128.5q20 41 54 132t70.5 206.5t74.5 242.5t69 240.5t50.5 201t19.5 121.5q1 41 -47 53 q-40 10 -127 9h-31v61q59 -4 125.5 -6t134.5 -2q59 0 119.5 2t113.5 6v-61h-22q-37 0 -61 -5q-30 -7 -44 -24q-10 -10 -25.5 -50t-49.5 -136q-43 -119 -90.5 -251t-93.5 -269.5t-89 -276.5t-82 -270q-31 -29 -54.5 -72t-33.5 -84h-76q-10 37 -29.5 96.5t-47.5 128.5 l-310 793l-110 287q-25 66 -36 86t-22 30q-12 10 -40.5 13.5t-84.5 3.5z" />
<glyph unicode="W" horiz-adv-x="2048" d="M14 1401v61q53 -4 108.5 -6t108.5 -2q55 0 110.5 2t111.5 6v-61q-33 0 -51.5 -4t-27.5 -11.5t-11.5 -16.5t-2.5 -21q0 -27 24 -107t62.5 -189.5t87 -236.5t96.5 -249t92 -227.5t75 -170.5q35 53 69.5 125t81.5 178l78 176q-27 68 -63.5 153t-75.5 173t-77 171t-65 142 q-16 37 -28 57.5t-29.5 31.5t-45.5 16.5t-73 9.5v61q59 -4 116.5 -6t117.5 -2q55 0 109.5 2t109.5 6v-61h-12q-48 -1 -66 -15q-20 -16 -20 -49q0 -14 13 -58t38.5 -110.5t62.5 -154.5t82 -191q104 229 152.5 360.5t48.5 162.5q0 12 -4 21t-16.5 15.5t-37 10.5t-67.5 8v61 q41 -4 87 -6t103 -2q53 0 102.5 4t92.5 4v-61q-35 -4 -58.5 -10.5t-41 -18.5t-30.5 -30.5t-28 -49.5l-272 -549q63 -160 125.5 -298t128.5 -267q31 47 71 147.5t83 224.5t83.5 258t73.5 248.5t53.5 195.5t20.5 98q0 27 -20.5 39t-100.5 12v61q49 -4 98.5 -6t98.5 -2 q41 0 84 2t84 6v-61q-55 0 -76 -16.5t-43 -65.5q-12 -29 -47 -117t-81 -209t-96.5 -259t-94.5 -266t-76.5 -231.5t-42.5 -154.5q-12 -10 -23.5 -25.5t-21 -32t-15.5 -33t-6 -26.5h-82l-264 602q-78 -166 -128 -276.5t-83 -204.5q-23 -23 -41 -58.5t-27 -64.5h-84 q-10 39 -30.5 98.5t-44.5 118.5l-465 1114q-12 33 -23.5 53.5t-26 31t-38 14.5t-60.5 8z" />
<glyph unicode="X" horiz-adv-x="1517" d="M18 -8v61q59 4 115.5 22.5t79.5 41.5q55 55 126 140t157 194l204 262l-223 350q-31 47 -63.5 95t-61 88t-51 67.5t-33.5 34.5q-16 10 -34.5 18t-41 14t-54.5 11.5t-75 9.5v61q78 -4 156 -6t156 -2q84 0 167 2t150 6v-61q-61 -4 -97 -9.5t-56.5 -11.5t-26.5 -13t-6 -15 t14.5 -38t50 -90.5t95 -153.5t151.5 -228l195 315q35 57 56.5 91t32.5 54.5t14 28.5t3 15q0 16 -23.5 23t-93.5 20l-65 12v61q78 -4 154.5 -6t154.5 -2q63 0 127 2t127 6v-61q-74 -10 -118 -19.5t-72.5 -24t-48 -33.5t-41.5 -48l-367 -488l389 -583q29 -43 53.5 -69.5 t53 -44t63.5 -26t84 -12.5v-61q-76 4 -151.5 6t-151.5 2q-82 0 -164 -2t-164 -6v61q119 2 160 22.5t41 49.5q0 8 -3 19.5t-13.5 31t-32 54t-58.5 89.5l-221 338l-293 -428q-18 -29 -29.5 -46t-17.5 -28.5t-7 -17.5t-1 -12q0 -10 5 -18.5t26.5 -17.5t64.5 -18.5t121 -17.5 v-61q-76 4 -149.5 6t-149.5 2q-72 0 -144.5 -2t-144.5 -6z" />
<glyph unicode="Y" horiz-adv-x="1478" d="M35 1401v61q68 -4 134.5 -6t131.5 -2q78 0 144.5 2t132.5 6v-61q-55 -6 -88 -10.5t-49.5 -10.5t-20.5 -13t-4 -19q0 -8 32.5 -77t85 -169.5t119 -216t133.5 -215.5q31 43 70 104.5t79 130t79 139t68.5 132t48 108.5t18.5 68q0 14 -5 22t-20.5 13.5t-46 8.5t-80.5 5v61 q59 -4 119 -6t119 -2t113.5 2t95.5 6v-61q-78 -8 -105.5 -19.5t-38.5 -23.5q-14 -18 -47.5 -69.5t-78 -121t-95.5 -151.5t-100 -162t-93 -150.5t-73 -119.5q-3 -38 -3 -89v-26q1 -68 1 -170q0 -59 1 -98t4 -62.5t8 -34t12 -14.5q10 -6 22 -11t33.5 -9t58.5 -7.5t97 -9.5v-61 q-66 4 -146 6t-170 2q-123 0 -190.5 -2t-122.5 -6v61q57 4 93 9.5t57.5 10.5t32.5 12t20 13q6 6 12 34t10 63.5t6 74.5t2 70q0 98 -2 164.5t-8 93.5q-20 37 -58 100.5t-83 139t-93.5 155.5t-91.5 149.5t-74.5 122t-41.5 70.5q-14 25 -33 35t-78 21z" />
<glyph unicode="Z" horiz-adv-x="1290" d="M53 23q78 106 166 231t178 255t178.5 259t166 244.5t140 211t103.5 156.5h-268q-123 0 -208 -3t-140.5 -10t-87 -18.5t-48.5 -25.5q-23 -20 -48 -65.5t-58 -114.5h-59l65 348h70q8 -10 17 -17.5t26 -11.5q31 -8 104 -8h676q47 0 92 1t92 3l21 -33q-41 -49 -105.5 -140 t-144.5 -206.5t-169 -248t-178 -265.5t-171 -259t-148 -228q35 -2 65 -3t83 -1q178 0 283.5 3t164 10t85 17.5t44.5 24.5q16 12 51 71.5t83 180.5h63q-18 -106 -31.5 -208.5t-19.5 -180.5q-29 2 -60.5 3t-66.5 1q-35 2 -71 3t-70 1h-482q-96 0 -192.5 -3t-159.5 -5z" />
<glyph unicode="[" horiz-adv-x="796" d="M233 -205q0 27 1.5 52.5t2.5 62.5t2 92t2 140t1 206v295v293t-1 208t-2 140t-2 92t-2.5 62.5t-1.5 52.5h476v-74h-342q-2 -29 -4.5 -82t-3.5 -143t-2 -224t-1 -325q0 -190 1 -324.5t2 -224.5t3.5 -143t4.5 -82h342v-74h-476z" />
<glyph unicode="\" horiz-adv-x="796" d="M2 1491h100l693 -1528h-101z" />
<glyph unicode="]" horiz-adv-x="796" d="M88 -131h342q2 29 4 82t3 143t2 224.5t1 324.5t-1 324.5t-2 224.5t-3 143.5t-4 81.5h-342v74h475q0 -27 -1 -52.5t-2 -62.5t-2 -92t-2 -140t-1 -208v-293v-293t1 -208t2 -140t2 -92t1 -62q0 -27 2 -53h-475v74z" />
<glyph unicode="^" horiz-adv-x="1228" d="M190 596l377 747h95l376 -747h-112l-312 612l-311 -612h-113z" />
<glyph unicode="_" d="M0 -154h1024v-102h-1024v102z" />
<glyph unicode="`" horiz-adv-x="530" d="M59 1352q0 29 17.5 49t52.5 20q16 0 37.5 -13t64.5 -54l285 -273h-67l-291 172q-61 37 -80 59.5t-19 39.5z" />
<glyph unicode="a" horiz-adv-x="909" d="M90 145q0 51 26.5 99.5t85 94.5t153 94t229.5 99v101q0 59 -9.5 97t-26 59.5t-39 29.5t-48.5 8q-31 0 -65 -9t-61.5 -28.5t-46 -52t-18.5 -82.5q0 -43 -13 -68.5t-31.5 -38.5t-38 -18.5t-31.5 -5.5q-57 0 -58 49q0 51 43 109.5t108.5 107t142.5 80t143 31.5q39 0 76.5 -9 t67.5 -35t47 -70t17 -113q0 -123 -3 -244t-3 -244q0 -63 8.5 -89.5t34.5 -26.5q20 0 42 14t40 47l12 -51q-10 -23 -26.5 -43.5t-36.5 -36.5t-41.5 -26.5t-42.5 -10.5q-20 0 -38.5 6t-36 22.5t-35 46.5t-33.5 77q-104 -90 -178 -121t-134 -31q-92 0 -137 54.5t-45 127.5z M250 180q0 -47 32.5 -76.5t86.5 -29.5q29 0 58.5 8t57 22.5t49 35t33.5 42.5q4 10 10.5 44t6.5 67v184q-160 -66 -247 -137.5t-87 -159.5z" />
<glyph unicode="b" horiz-adv-x="1138" d="M18 1434v49q68 12 139.5 37.5t114.5 52.5h56q-6 -131 -8.5 -252t-4.5 -226.5t-2 -191.5v-147q41 31 78 53t76 37.5t84 23t102 7.5q78 0 148.5 -30t125 -85t86 -134t31.5 -179q0 -78 -26.5 -161t-85 -152.5t-149.5 -115t-222 -45.5q-106 0 -183 22.5t-118 49.5 q-35 -29 -64.5 -50.5t-39.5 -21.5q-8 0 -9 15q0 31 3.5 103.5t6.5 155.5t6 160.5t3 116.5v400q0 139 -1 227t-4 139t-8.5 76t-13.5 37q-10 14 -32.5 21.5t-88.5 7.5zM301 301q0 -123 74 -193.5t192 -70.5q68 0 125.5 27.5t100.5 73.5t67.5 108.5t24.5 134.5 q0 82 -23.5 156.5t-66.5 131t-105.5 89.5t-138.5 33q-66 0 -121 -26t-117 -71q-4 -86 -8 -178t-4 -215z" />
<glyph unicode="c" horiz-adv-x="909" d="M94 399q0 102 34 193.5t95.5 160t148.5 108.5t195 40q154 0 223.5 -52t69.5 -136q0 -53 -55 -54q-12 0 -32.5 5.5t-40 15.5t-35 25.5t-21.5 35.5q-14 53 -47 76t-86 23q-41 0 -90.5 -19.5t-94.5 -63.5t-74.5 -114t-29.5 -170q0 -74 22.5 -144.5t64.5 -128t104.5 -92 t142.5 -34.5q53 0 118.5 19.5t108.5 45.5l29 -30q-70 -78 -151 -112t-175 -34q-90 0 -168 35t-134 94.5t-89 138t-33 168.5z" />
<glyph unicode="d" horiz-adv-x="1138" d="M94 389q0 102 35 191.5t99.5 155t155.5 103.5t202 38q20 0 50 -2.5t63.5 -6.5t66.5 -11t57 -17v245q0 80 -1 135.5t-4 92.5t-8 58.5t-13 33.5q-10 14 -33 21.5t-88 7.5v49q68 12 139.5 37.5t114.5 52.5h55q-6 -100 -8 -180t-4 -157t-2 -159v-188v-725q0 -57 15 -72.5 t69 -23.5l47 -7v-43q-59 -4 -120.5 -13t-86.5 -30l-49 15q-4 25 -9.5 53.5t-13.5 48.5q-49 -51 -128 -84t-185 -33q-133 0 -215 47.5t-127 113t-59.5 136t-14.5 117.5zM254 459q0 -92 28.5 -165t74.5 -125t102.5 -80t113.5 -28q98 0 161 35t87 68q4 70 9.5 128t5.5 144 q0 76 -5.5 146.5t-31 125t-77.5 87t-147 32.5q-70 0 -129 -28.5t-102 -77.5t-66.5 -116.5t-23.5 -145.5z" />
<glyph unicode="e" horiz-adv-x="909" d="M66 438q0 88 31.5 172t89 148.5t138.5 103.5t179 39q82 0 149.5 -27.5t113.5 -72.5t71.5 -103.5t25.5 -119.5v-37q-14 2 -47 4t-75 3t-85 1h-73h-172q-76 0 -127.5 -2t-67.5 -6q-2 -10 -3 -23.5t-1 -36.5q0 -86 28.5 -159.5t78 -129t115 -87t138.5 -31.5q78 0 133.5 23.5 t118.5 80.5l43 -41q-66 -78 -158 -126t-221 -48q-92 0 -168.5 35t-134 98.5t-89 150.5t-31.5 191zM223 621q0 -23 41 -23l221 12q72 4 113 9.5t62.5 11.5t26.5 15.5t5 25.5q0 76 -57 122t-143 46q-53 0 -102.5 -22.5t-86.5 -56.5t-58.5 -72t-21.5 -68z" />
<glyph unicode="f" horiz-adv-x="645" d="M35 -8v57l71 8q43 4 58.5 20.5t19.5 39.5q2 14 4 37.5t3.5 61.5t1.5 93v137t-1.5 135.5t-2.5 95.5t-2 66.5t-1 51.5h-149v49q29 4 49 6t36.5 4t32 3t33.5 1v62q0 176 37 299.5t95.5 202.5t133 115t150.5 36q18 0 43 -2t46.5 -11.5t35.5 -25.5t14 -47q0 -25 -20.5 -52.5 t-56.5 -27.5q-27 0 -40.5 12.5t-26.5 27.5t-31.5 27.5t-53.5 12.5q-29 0 -59.5 -14.5t-55 -48t-41 -89t-16.5 -139.5v-328l272 13v-86h-274v-349v-139q0 -57 1 -97t2 -64.5t3 -41.5q4 -23 20.5 -33t59.5 -14l133 -8v-57q-106 4 -170.5 6t-124.5 2q-59 0 -115.5 -2t-113.5 -6 z" />
<glyph unicode="g" horiz-adv-x="985" d="M49 -258q0 43 20.5 77t52.5 61.5t69.5 47t72.5 35.5v4q-76 6 -130 45t-54 80q0 14 3 28.5t14.5 30t34 32t61.5 36.5l110 57q-76 35 -123 112t-47 179q0 78 27.5 139.5t76 104.5t114 66.5t138.5 23.5q53 0 115 -20.5t103 -61.5l221 8q4 0 10 -5t6 -13v-61q0 -6 -9 -12.5 t-20 -6.5q-10 0 -47 7t-106 26l-4 -4q33 -39 44 -89.5t11 -97.5q0 -72 -27.5 -132t-75.5 -105t-110.5 -70.5t-132.5 -25.5q-39 0 -67.5 2t-51.5 12l-78 -49q-33 -20 -44 -35.5t-11 -34.5q0 -16 28.5 -34.5t90.5 -18.5q39 0 86 2t93 5t84.5 5t61.5 2q88 0 139.5 -22.5t78 -54 t32.5 -67.5t6 -63q0 -37 -20.5 -95t-75.5 -112.5t-153.5 -94.5t-251.5 -40q-102 0 -172 17.5t-113 46.5t-61.5 63.5t-18.5 69.5zM184 -223q0 -23 12.5 -53.5t43 -59.5t84 -49.5t133.5 -20.5q39 0 99 11.5t118.5 39t100.5 72.5t42 111q0 78 -63 112q-55 30 -149 30 q-16 0 -34 -1l-227 -12q-84 -41 -122 -81t-38 -99zM281 631q0 -43 13 -100.5t40.5 -108.5t68.5 -87t95 -36q94 0 131 60.5t37 146.5q0 51 -11.5 111.5t-37 112.5t-67.5 87t-101 35q-70 0 -119 -54.5t-49 -166.5z" />
<glyph unicode="h" horiz-adv-x="1101" d="M29 -8v57l88 8q41 4 50 26.5t9 72.5v770q0 139 -1 227t-4 139t-8 76t-13 37q-10 14 -33 21.5t-88 7.5v49q68 12 139.5 37.5t114.5 52.5h55q-10 -262 -12 -477t-2 -338l92 82q35 23 91 42t130 19q66 0 119 -17.5t91 -55t58.5 -99t20.5 -149.5q0 -41 -2 -101.5t-4 -125 t-4.5 -121t-2.5 -87.5q0 -27 1 -43t7.5 -25t18.5 -13.5t33 -6.5l65 -8v-57q-41 4 -90 6t-108 2q-70 0 -124 -2t-102 -6v57l103 12q18 2 30.5 11.5t18.5 42t9 100.5t3 186q0 41 -2 109t-8 127q-4 45 -23.5 76.5t-47 51t-61.5 29t-65 9.5q-72 0 -131 -29t-116 -69v-549 q0 -49 9 -72t50 -27l86 -8v-57q-49 2 -105.5 5t-113.5 3q-70 0 -122 -3t-99 -5z" />
<glyph unicode="i" horiz-adv-x="532" d="M35 -8v57l71 8q43 4 58.5 20.5t19.5 39.5q2 14 4 37.5t3.5 61.5t1.5 93v137q0 88 -1.5 142.5t-2.5 86.5t-3 46t-4 20q-12 35 -47 44.5t-69 9.5v49q55 4 94 11t68.5 20.5t51 35t39.5 58.5h43q-6 -43 -10 -105.5t-7 -134.5t-4 -145.5t-1 -137.5v-139q0 -57 1 -97t2 -64.5 t3 -41.5q4 -23 20.5 -33t59.5 -14l72 -8v-57q-59 4 -116.5 6t-117.5 2q-59 0 -115.5 -2t-113.5 -6zM164 1305q0 37 13 61.5t32.5 39.5t42 21.5t39.5 6.5q37 0 60.5 -25t23.5 -66q0 -49 -38 -86.5t-87 -37.5q-41 0 -63.5 25.5t-22.5 60.5z" />
<glyph unicode="j" horiz-adv-x="493" d="M-4 -408q61 33 99 68t59.5 86t30 128t8.5 196v376q0 88 -1.5 142.5t-2.5 86.5t-3 46t-4 20q-12 35 -47 44.5t-69 9.5v49q55 4 94 11t68.5 20.5t51 35t39.5 58.5h43q-6 -43 -10 -105.5t-7 -134.5t-4 -145.5t-1 -137.5v-446q0 -113 -18.5 -186.5t-58.5 -122.5t-101.5 -82 t-147.5 -64zM164 1305q0 37 13 61.5t32.5 39.5t42 21.5t39.5 6.5q37 0 60.5 -25t23.5 -66q0 -49 -38 -86.5t-87 -37.5q-41 0 -63.5 25.5t-22.5 60.5z" />
<glyph unicode="k" horiz-adv-x="1062" d="M29 -8v57l88 8q41 4 50 26.5t9 72.5v770q0 139 -1 227t-4 139t-8 76t-13 37q-10 14 -33 21.5t-88 7.5v49q68 12 139.5 37.5t114.5 52.5h55q-10 -262 -12 -477t-2 -338v-250q66 12 122 50t97 81t64.5 82t23.5 55q0 14 -15.5 24.5t-62.5 10.5v61q53 -4 105.5 -6t105.5 -2 t105.5 2t105.5 6v-61q-59 0 -112.5 -20.5t-107 -57.5t-110.5 -89t-121 -116q86 -98 155 -185t128 -151.5t114.5 -101.5t116.5 -37v-61q-61 4 -116.5 6t-108.5 2q-55 0 -109.5 -2t-107.5 -6v61q66 0 86 7.5t20 19.5q0 6 -7 18.5t-29 40.5l-99 129q-49 63 -81.5 101.5 t-57.5 57.5t-48.5 25.5t-55.5 6.5v-303q0 -49 9 -72t50 -27l86 -8v-57q-49 2 -105.5 5t-113.5 3q-70 0 -122 -3t-99 -5z" />
<glyph unicode="l" horiz-adv-x="532" d="M10 -8v57l96 8q43 4 58.5 20.5t19.5 39.5q2 14 4 37.5t3.5 61.5t1.5 93v137v480q0 139 -1.5 227t-4.5 139t-8 76t-13 37q-10 14 -32.5 21.5t-88.5 7.5v49q68 12 139.5 37.5t114.5 52.5h55q-6 -135 -8 -265t-4 -265.5t-2 -282.5v-314v-139q0 -57 1 -97t2 -64.5t3 -41.5 q4 -23 20.5 -33t59.5 -14l72 -8v-57q-59 4 -116.5 6t-117.5 2q-59 0 -118.5 -2t-135.5 -6z" />
<glyph unicode="m" horiz-adv-x="1630" d="M29 -8v57l88 8q41 4 50 26.5t9 72.5v508q0 47 -22.5 67.5t-94.5 32.5v49q78 4 125 36t80 91h47v-192l115 102q20 18 77.5 34.5t119.5 16.5q80 0 146.5 -37t100.5 -116l119 104q6 6 25.5 14t45 16.5t53.5 13.5t52 5q66 0 119 -17.5t91 -55t58.5 -99t20.5 -149.5 q0 -41 -2 -101.5t-4 -125t-4 -121t-2 -87.5q0 -27 1 -43t7 -25t18.5 -13.5t32.5 -6.5l66 -8v-57q-41 4 -90.5 6t-108.5 2q-70 0 -124 -2t-101 -6v57l102 12q18 2 30.5 11.5t18.5 42t9.5 100.5t3.5 186q0 41 -2 109t-9 127q-4 45 -23.5 76.5t-47 51t-61.5 29t-64 9.5 q-53 0 -100.5 -21.5t-116.5 -74.5q6 -29 9 -67t3 -60q0 -41 -2 -101.5t-4 -125t-4 -121t-2 -87.5q0 -27 1 -43t7 -25t18.5 -13.5t32.5 -6.5l66 -8v-57q-41 4 -90.5 6t-108.5 2q-70 0 -124 -2t-101 -6v57l102 12q18 2 30.5 11.5t18.5 42t9.5 100.5t3.5 186q0 41 -2.5 109 t-8.5 127q-4 45 -23.5 76.5t-47 51t-61.5 29t-64 9.5q-45 0 -95.5 -17.5t-121.5 -80.5v-549q0 -49 9 -72t50 -27l68 -8v-57q-41 4 -93.5 6t-107.5 2t-109.5 -2t-111.5 -6z" />
<glyph unicode="n" horiz-adv-x="1101" d="M29 -8v57l88 8q41 4 50 26.5t9 72.5v508q0 47 -22.5 67.5t-94.5 32.5v49q78 4 125 36t80 91h47v-192h2l103 92q35 23 91 42t130 19q66 0 119 -17.5t91 -55t58.5 -99t20.5 -149.5q0 -41 -2 -101.5t-4 -125t-4.5 -121t-2.5 -87.5q0 -27 1 -43t7.5 -25t18.5 -13.5t33 -6.5 l65 -8v-57q-41 4 -90 6t-108 2q-70 0 -124 -2t-102 -6v57l103 12q18 2 30.5 11.5t18.5 42t9 100.5t3 186q0 41 -2 109t-8 127q-4 45 -23.5 76.5t-47 51t-61.5 29t-65 9.5q-72 0 -131 -29t-116 -69v-549q0 -49 9 -72t50 -27l86 -8v-57q-49 2 -105.5 5t-113.5 3q-70 0 -122 -3 t-99 -5z" />
<glyph unicode="o" horiz-adv-x="1062" d="M66 436q0 98 36.5 183.5t100 147.5t149.5 98t185 36q121 0 207.5 -40t143 -104.5t83 -145.5t26.5 -165q0 -86 -31.5 -173t-92 -155.5t-148.5 -111.5t-199 -43t-196.5 43t-144 110.5t-89 151.5t-30.5 168zM238 475q0 -78 20.5 -157.5t61 -144t102 -106.5t143.5 -42 q88 0 140.5 39.5t79 95t33.5 114t7 97.5q-2 98 -21.5 182t-58 146.5t-96 99.5t-133.5 41q-61 0 -112.5 -30t-88 -80t-57 -115.5t-20.5 -139.5z" />
<glyph unicode="p" horiz-adv-x="1138" d="M37 -397l92 8q35 4 46 21.5t13 68.5q0 33 1 76t2.5 89t1.5 91v80v409q0 49 -1.5 86t-3.5 65t-5 50.5t-5 44.5q-8 57 -27.5 74.5t-76.5 21.5v48q82 8 135 41.5t82 74.5h49v-194q78 63 155.5 91t135.5 28q88 0 163.5 -28t131 -82t87 -136t31.5 -189q0 -80 -30.5 -162.5 t-91 -150.5t-147.5 -111t-200 -43q-61 0 -129.5 20.5t-105.5 53.5v-291q0 -53 2 -81.5t11 -43t27.5 -18.5t51.5 -8l100 -13v-49q-53 4 -113.5 6.5t-123.5 2.5q-61 0 -123.5 -2.5t-134.5 -6.5v58zM328 311q0 -133 72.5 -203.5t195.5 -70.5q55 0 107.5 25.5t92.5 70.5 t64.5 106.5t24.5 135.5q0 86 -21.5 161.5t-62.5 132t-102.5 89.5t-141.5 33q-41 0 -79 -10.5t-68.5 -26t-50 -35t-21.5 -39.5q-4 -29 -7 -74t-3 -102v-193z" />
<glyph unicode="q" horiz-adv-x="1099" d="M94 389q0 102 35 191.5t99.5 155t155.5 103.5t202 38q41 0 109.5 -14.5t166.5 -53.5q12 14 19.5 24.5t14.5 22.5t14.5 28.5t19.5 43.5h47q-4 -119 -7 -215.5t-7.5 -176t-6.5 -147t-2 -127.5v-545q0 -66 12.5 -85t53.5 -23l61 -6v-58q-66 4 -129 6.5t-129 2.5 q-55 0 -110.5 -2.5t-110.5 -6.5v58l123 8q57 4 68.5 34.5t13.5 108.5v344q-57 -53 -139 -88t-158 -35q-133 0 -215 47.5t-127 113t-59.5 136t-14.5 117.5zM254 475q0 -86 26.5 -157.5t71.5 -123t104.5 -80t127.5 -28.5q53 0 113.5 20.5t107.5 55.5q4 74 7 146.5t3 146.5 q0 53 -3 117.5t-25.5 122t-73.5 95t-146 37.5q-43 0 -97 -21.5t-102.5 -64.5t-81 -109.5t-32.5 -156.5z" />
<glyph unicode="r" horiz-adv-x="757" d="M74 -8v57l86 8q41 4 50 26.5t9 72.5v508q0 47 -22.5 67.5t-94.5 32.5v49q78 4 125 36t80 91h47v-192q74 70 142.5 111.5t115.5 41.5q35 0 59.5 -18.5t39 -42t20.5 -47t6 -35.5q0 -29 -14 -49.5t-53 -20.5q-43 0 -64.5 16.5t-34 35t-22.5 35t-31 16.5q-12 0 -54 -28 t-97 -77v-539q0 -47 15 -66.5t83 -23.5l100 -8v-57q-61 4 -122.5 6t-123.5 2q-61 0 -122.5 -2t-122.5 -6z" />
<glyph unicode="s" horiz-adv-x="757" d="M82 252h78q16 -121 79.5 -174t137.5 -53q76 0 126 48t50 109q0 45 -30.5 80t-82.5 62l-190 96q-88 45 -128 101.5t-40 133.5q0 104 81 175t226 71q66 0 123 -10t111 -27l12 -202h-68q-23 96 -77 137t-119 41q-72 0 -119 -34t-47 -87q0 -20 3 -37.5t14 -33t34 -33 t61 -37.5l211 -109q63 -35 105.5 -89t42.5 -151q0 -55 -20.5 -103t-62.5 -84t-105.5 -57.5t-149.5 -21.5q-57 0 -126 14.5t-122 47.5z" />
<glyph unicode="t" horiz-adv-x="645" d="M37 795v36q53 18 89 43t62.5 56t46 68.5t37.5 82.5h54q-4 -39 -5.5 -64.5t-1.5 -49.5q0 -29 2.5 -48.5t4.5 -37.5h258v-86h-260q0 -68 -2.5 -146t-3.5 -151.5t-2 -136t-1 -101.5q0 -98 16.5 -142t69.5 -44q47 0 94.5 12t90.5 33l22 -43q-104 -68 -176 -90.5t-117 -22.5 q-72 0 -109.5 53.5t-37.5 173.5q0 59 2 117t4 126.5t4 155.5t2 206h-143z" />
<glyph unicode="u" horiz-adv-x="1101" d="M45 815v49q78 2 157 5t138 8q-4 -92 -10 -246t-6 -350q0 -98 39.5 -165t140.5 -67q55 0 115.5 22.5t146.5 82.5q4 18 6 54t4 79t2 88v82q0 104 -1 166.5t-2 96.5t-4 46t-9 18q-10 8 -17.5 14.5t-21.5 9.5t-37.5 5t-64.5 2v49q80 2 166.5 5t154.5 8q-4 -55 -7 -135 t-5 -170.5t-3 -184.5t-1 -178q0 -39 1 -61.5t2 -35t4 -18.5t7 -8q10 -8 32.5 -11t84.5 -3v-52q-70 0 -122 -17t-87 -40h-45q0 23 -8.5 66t-16.5 71q-166 -137 -329 -137q-102 0 -159 39t-83.5 95.5t-31.5 120t-5 112.5q0 61 1 103t2 82t2 88t1 120q0 39 -2 51t-10 21 q-4 4 -9 8t-17.5 6t-34 4t-58.5 2z" />
<glyph unicode="v" horiz-adv-x="948" d="M0 823v49q51 -4 101.5 -6t101.5 -2t100 2t100 6v-49q-41 0 -79 -6q-31 -4 -42.5 -13t-11.5 -28q0 -10 6.5 -34.5t21.5 -68.5t41 -109.5t64 -160.5l113 -282l94 237q72 174 97.5 268.5t25.5 135.5q0 20 -12 35.5t-47 19.5q-20 2 -41 4t-41 2v49q47 -4 94 -6t94 -2 q41 0 84 2t84 6v-49q-29 -4 -45 -8t-28.5 -14t-23.5 -30.5t-26 -55.5l-286 -678q-8 -18 -14.5 -34.5t-10.5 -39.5h-82l-315 752q-20 49 -30.5 68.5t-18.5 23.5q-10 8 -24.5 11t-43.5 5z" />
<glyph unicode="w" horiz-adv-x="1441" d="M-12 823v49q51 -4 100 -6t98 -2t99.5 2t99.5 6v-49q-43 -4 -65.5 -8t-34 -8t-13.5 -10t-2 -15q0 -35 78 -213l199 -454l182 344l-119 315q-6 16 -12 25.5t-18.5 14.5t-33 7t-52.5 2v49q53 -4 104 -6t104 -2t104.5 2t104.5 6v-49q-84 -4 -108.5 -11t-24.5 -28 q0 -20 15.5 -76.5t39 -129t50 -152.5t50 -147.5t40 -113.5t18.5 -50l133 336q6 14 18.5 53t26 87t23.5 94t10 73q0 16 -2 27.5t-14 19.5t-40 12t-79 6v49q49 -4 97 -6t98 -2q47 0 96 2t96 6v-49q-41 -4 -65.5 -11t-43 -25.5t-35 -51.5t-38.5 -84l-291 -688h-70l-159 430 l-164 -313q-16 -31 -27.5 -59.5t-25.5 -57.5h-76l-305 707q-20 47 -37 75.5t-34 45t-40 22.5t-55 10z" />
<glyph unicode="x" horiz-adv-x="1062" d="M61 -8v49q29 0 47.5 4t36 13.5t35 27.5t43.5 47l256 281l-223 282q-35 43 -59.5 69t-45 39t-39 16t-42.5 3v49q51 -4 100 -6t100 -2t101.5 2t99.5 6v-49q-53 -2 -75.5 -9t-22.5 -30q0 -25 21.5 -57.5t62.5 -85.5l108 -137l105 135q41 53 59.5 84t18.5 49q0 27 -24 36 t-87 15v49q45 -4 88 -6t88 -2t89 2t87 6v-49q-29 -2 -47 -5t-33.5 -10t-31 -22.5t-35.5 -40.5l-246 -282l256 -320q25 -31 41 -50t30.5 -30.5t32 -15.5t45.5 -6v-49q-53 4 -106 6t-107 2q-53 0 -107 -2t-108 -6v49q47 2 74 6t41 10t17.5 14.5t3.5 20.5q0 18 -23.5 54 t-48.5 67l-129 160l-168 -211q-27 -33 -36 -50.5t-9 -23.5q0 -10 2 -17.5t14.5 -12.5t37 -9t69.5 -8v-49q-45 4 -89 6t-89 2t-89.5 -2t-89.5 -6z" />
<glyph unicode="y" horiz-adv-x="909" d="M25 823v49q31 -4 73.5 -6t102.5 -2q59 0 108 2t92 6v-49q-76 0 -100.5 -9t-24.5 -32t32 -119t87 -229l113 -274q37 74 73.5 169t67.5 183t49.5 156.5t18.5 93.5q0 16 -4 28.5t-18.5 19.5t-41 10t-69.5 3v49q27 -4 64.5 -6t92.5 -2q43 0 87 2t85 6v-49q-47 0 -64.5 -17.5 t-33.5 -55.5l-223 -566q-61 -154 -108.5 -257t-83 -170.5t-61.5 -102.5t-40 -49q-25 -25 -73 -42.5t-103 -17.5q-63 0 -64 39q0 12 5.5 36t16.5 46.5t26.5 38.5t35.5 16q23 0 47.5 -20t49.5 -20q27 0 63.5 43t89.5 153l43 90l-221 551q-45 113 -72.5 174.5t-47 90t-35 34.5 t-35.5 6z" />
<glyph unicode="z" horiz-adv-x="872" d="M63 0v61l568 746l-287 -8q-47 -2 -73.5 -7.5t-49.5 -19.5q-27 -16 -48 -49t-44 -86h-53q12 31 24.5 71t23.5 80.5t20.5 79.5t15.5 68h49q4 -43 19.5 -57.5t52.5 -14.5h526v-53l-567 -752l153 4q96 2 155.5 7.5t98.5 27t62.5 65.5t48.5 124h51q-15 -86 -25 -164 q-9 -66 -8 -108v-15h-713z" />
<glyph unicode="{" horiz-adv-x="681" d="M92 643q49 14 80 33.5t48.5 47.5t22.5 63.5t5 80.5v344q0 70 12 122t45 87t87 52.5t140 17.5v-25q-51 -12 -82.5 -34.5t-49 -53t-23.5 -69.5t-6 -84v-328q0 -47 -5.5 -88t-21.5 -72.5t-50 -55.5t-89 -36v-4q55 -12 89 -35.5t50 -55.5t21.5 -73t5.5 -88v-328 q0 -45 6 -83.5t23.5 -69.5t49 -53.5t82.5 -34.5v-25q-86 0 -140 17.5t-87 52.5t-45 87t-12 122v344q0 45 -5 81t-22.5 63.5t-48.5 47t-80 33.5z" />
<glyph unicode="|" horiz-adv-x="454" d="M178 -37v1610h98v-1610h-98z" />
<glyph unicode="}" horiz-adv-x="681" d="M150 -180q51 12 82.5 34.5t49 53.5t23.5 69.5t6 83.5v328q0 47 5.5 88t21.5 73t50 55.5t89 35.5v4q-55 12 -89 36t-50 55.5t-21.5 72.5t-5.5 88v328q0 45 -6 84t-23.5 69.5t-49 53t-82.5 34.5v25q86 0 140 -17.5t87 -52.5t45 -87t12 -122v-344q0 -45 5 -80.5t22.5 -63.5 t48.5 -47.5t80 -33.5q-49 -14 -80 -33.5t-48.5 -47t-22.5 -63.5t-5 -81v-344q0 -70 -12 -122t-45 -87t-87 -52.5t-140 -17.5v25z" />
<glyph unicode="~" horiz-adv-x="1228" d="M141 461q53 96 114.5 136t141.5 40q53 0 113.5 -21.5t120.5 -48.5q61 -27 114.5 -48t88.5 -21q45 0 92 36.5t88 102.5l73 -62q-53 -96 -114.5 -136t-141.5 -40q-53 0 -113.5 21.5t-119.5 48.5q-61 27 -114.5 48.5t-88.5 21.5q-45 0 -92 -37t-88 -103z" />
<glyph unicode="&#xa1;" horiz-adv-x="757" d="M274 -322q0 33 9.5 88.5t21.5 151.5t25.5 242.5t23.5 363.5h54q6 -219 14 -358t16 -228.5t14.5 -142.5t6.5 -100q0 -27 -5 -53.5t-15.5 -48t-29 -35t-44.5 -13.5q-41 0 -66 33t-25 100zM274 829q0 25 8.5 48.5t24 42t37 31t47.5 12.5q35 0 63.5 -20.5t28.5 -76.5 q0 -57 -32.5 -97t-77.5 -40q-35 0 -67 21.5t-32 78.5z" />
<glyph unicode="&#xa2;" d="M129 399q0 94 27.5 178.5t80 151t127 110.5t166.5 56v174h62v-168h10q154 0 223.5 -52t69.5 -136q0 -53 -55 -54q-12 0 -33 5.5t-40 15.5t-34.5 25.5t-21.5 35.5q-25 92 -119 99v-766h31q53 0 118.5 19.5t108.5 45.5l29 -30q-61 -68 -132 -103t-155 -43v-170h-62v170 q-104 4 -180 49t-125 110.5t-72.5 139.5t-23.5 137zM289 473q0 -61 15 -121.5t46 -113t76 -91t104 -57.5v744q-39 -10 -81.5 -35t-77.5 -68t-58.5 -107.5t-23.5 -150.5z" />
<glyph unicode="&#xa3;" d="M78 -127q0 25 15.5 49.5t36 55t43 68.5t34.5 87q14 57 23.5 121.5t15.5 133.5t11 136.5t13 130.5h-174v64h176q14 346 117 503.5t273 157.5q78 0 133 -24.5t90 -61.5t51 -83t16 -89q0 -45 -12 -76.5t-37 -31.5q-16 0 -31.5 12t-26.5 28.5t-18.5 35t-7.5 28.5 q0 16 11.5 48t11.5 42q0 27 -15.5 47.5t-41 35t-57.5 21.5t-64 7q-20 0 -54.5 -4t-69 -32t-63 -87t-35.5 -168l-20 -309l270 8v-84l-284 12q-10 -82 -24.5 -157.5t-36 -152.5t-54.5 -155.5t-80 -164.5l4 -5q86 98 156.5 137.5t128.5 39.5q55 0 110.5 -29t104.5 -63.5 t91 -63.5t73 -29q41 0 41 25q0 10 -11.5 24.5t-24 31t-23.5 34.5t-11 37q0 14 7 30.5t17.5 31t23.5 24.5t26 10q29 0 43 -47t14 -104q0 -84 -39 -115t-88 -31q-57 0 -113.5 15.5t-115.5 33.5q-57 18 -115.5 33.5t-120.5 15.5q-59 0 -102 -34.5t-62 -81.5q-31 -78 -51 -99.5 t-51 -21.5q-23 0 -35 13t-12 36z" />
<glyph unicode="&#xa4;" d="M43 274l104 105q-55 66 -79.5 140.5t-24.5 152.5q0 80 24.5 156.5t77.5 138.5l-102 102l72 72l106 -105q61 53 136 79t155 26t154.5 -25.5t138.5 -79.5l104 105l72 -72l-102 -102q53 -61 77.5 -138t24.5 -157q0 -78 -24.5 -153t-77.5 -140l102 -105l-72 -71l-104 106 q-61 -53 -136 -79.5t-157 -26.5t-156.5 26.5t-134.5 79.5l-106 -106zM141 672q0 -78 29 -144.5t80 -118t117.5 -80t144.5 -28.5q76 0 143.5 28.5t118.5 80t80 118t29 144.5q0 76 -29 143.5t-80 118.5t-118.5 79.5t-143.5 28.5q-78 0 -144.5 -28.5t-117.5 -79.5t-80 -118.5 t-29 -143.5z" />
<glyph unicode="&#xa5;" d="M12 1303v49q55 -4 102.5 -6.5t92.5 -2.5q53 0 100 2.5t92 6.5v-49q-39 -4 -61.5 -8.5t-33.5 -10.5t-14 -13t-3 -18q0 -14 19.5 -73.5t53 -147.5t80.5 -193.5t101 -209.5h2q12 25 36.5 76t52 114.5t56.5 133t52.5 131t38 108.5t14.5 65q0 25 -17.5 33t-87.5 13v49 q41 -4 82 -6.5t82 -2.5t81 2.5t79 6.5v-49q-53 -8 -73.5 -18.5t-27.5 -20.5q-10 -16 -36.5 -73.5t-66.5 -142.5t-89 -189.5t-101 -213.5h259v-74h-291l-11 -24v-170h302v-74h-302q0 -72 1.5 -116t3.5 -67.5t5 -32.5t7 -11q8 -6 16 -10.5t23.5 -8.5t40 -8t65.5 -8v-49 q-55 4 -112.5 6t-116.5 2t-116.5 -2t-112.5 -6v49q41 4 65.5 8t39.5 8t23.5 8.5t16.5 10.5q4 2 7 11t5 32.5t3 67.5t1 116h-293v74h293v170l-10 24h-283v74h248q-27 61 -68.5 153.5t-83.5 182.5t-76 163t-42 97q-10 23 -22.5 32t-53.5 19z" />
<glyph unicode="&#xa6;" horiz-adv-x="454" d="M178 -37v602h98v-602h-98zM178 971v602h98v-602h-98z" />
<glyph unicode="&#xa7;" d="M147 -92q0 35 17.5 56.5t52.5 21.5q27 0 51.5 -15.5t52 -35t59.5 -35t75 -15.5q27 0 56.5 8.5t56 29t44 54t17.5 84.5q0 53 -36 119t-88 138.5t-114.5 152.5t-115 163t-88 169t-35.5 172q0 106 44 200.5t119.5 164t176 110.5t213.5 41q74 0 109.5 -32t35.5 -68 q0 -27 -15.5 -47.5t-52.5 -20.5q-29 0 -50 11.5t-43.5 23.5t-49.5 23.5t-66 11.5q-33 0 -66.5 -11.5t-60 -32t-44 -49t-17.5 -63.5q0 -55 37 -117.5t91 -131t117.5 -144.5t118 -157t91.5 -167t37 -176q0 -109 -42 -211t-116 -182t-172 -128t-209 -48q-109 0 -150 36.5 t-41 96.5zM250 1010q0 -43 5 -78t26.5 -79t61.5 -107.5t112 -161.5q88 -121 140 -196t78.5 -128t34 -93t7.5 -89l4 -4q35 72 47 135t12 96q0 43 -10 88t-36.5 100.5t-73 125t-119.5 161.5q-78 96 -124 160t-68.5 111t-29 86t-6.5 86l-4 4q-25 -51 -41 -105.5t-16 -111.5z " />
<glyph unicode="&#xa8;" horiz-adv-x="528" d="M-37 1257q0 45 31 76t76 31t75.5 -30.5t30.5 -76.5q0 -45 -30.5 -75.5t-75.5 -30.5t-76 30.5t-31 75.5zM352 1257q0 45 31 76t76 31t75.5 -30.5t30.5 -76.5q0 -45 -30.5 -75.5t-75.5 -30.5t-76 30.5t-31 75.5z" />
<glyph unicode="&#xa9;" horiz-adv-x="1638" d="M55 727q0 158 60.5 297t164 242.5t243 164t296.5 60.5q158 0 297 -60.5t242.5 -164t164 -242.5t60.5 -297t-60.5 -297t-164 -242.5t-242.5 -164t-297 -60.5t-297 60.5t-242.5 164t-164 242.5t-60.5 297zM154 727q0 -139 52 -260t142 -211t211 -142.5t260 -52.5 q137 0 259 52.5t212 142.5t142.5 211t52.5 260q0 137 -52.5 259t-142.5 212t-212 142.5t-259 52.5q-139 0 -260 -52.5t-211 -142.5t-142 -212t-52 -259zM385 741q0 70 29.5 145t88 138t147.5 104t210 41q31 0 79 -4t92 -15t76 -27.5t32 -41.5v-153h-37q0 35 -12.5 69.5 t-40 62t-75.5 44t-118 16.5q-84 0 -146.5 -27.5t-104.5 -77.5t-63.5 -118t-21.5 -147q0 -88 21.5 -162t64.5 -126t109.5 -81t156.5 -29q59 0 103.5 14.5t76 39t54 57.5t37.5 69h31l-37 -159q-4 -16 -37 -29.5t-78 -23t-93 -13.5t-81 -4q-92 0 -175 23.5t-147.5 76 t-102.5 135.5t-38 203z" />
<glyph unicode="&#xaa;" horiz-adv-x="591" d="M41 1018q0 57 69.5 114.5t231.5 116.5v58q0 59 -20.5 78.5t-42.5 19.5q-35 0 -72 -26.5t-37 -80.5q0 -23 -8 -36t-20.5 -21t-27 -10t-24.5 -2q-25 0 -34 6t-9 22q0 31 27.5 66t70.5 64.5t93.5 48t95.5 18.5q27 0 51.5 -6t42.5 -21.5t29.5 -42t11.5 -67.5q0 -66 -2 -136.5 t-2 -138.5q0 -72 29 -71q29 0 53 37l8 -37q-12 -25 -42 -47.5t-58 -22.5q-27 0 -48.5 16.5t-44.5 75.5q-70 -53 -117.5 -72.5t-84.5 -19.5q-59 0 -89 34t-30 83zM152 1038q0 -29 16 -46t43 -17q25 0 48.5 8t41.5 22.5t29.5 31t11.5 34.5v143q-86 -39 -138 -81.5t-52 -94.5z " />
<glyph unicode="&#xab;" d="M47 442q0 35 37 66t99.5 77t146.5 114.5t176 179.5q10 -8 14 -23.5t4 -26.5q0 -16 -14 -50t-48 -84t-92.5 -113.5t-146.5 -139.5q88 -76 146.5 -139t92.5 -113.5t48 -85t14 -49.5q0 -10 -4 -25.5t-14 -23.5q-92 111 -176 179.5t-146.5 114.5t-99.5 76.5t-37 65.5z M483 442q0 35 37 66t99.5 77t146.5 114.5t176 179.5q10 -8 14.5 -23.5t4.5 -26.5q0 -16 -14.5 -50t-48.5 -84t-92 -113.5t-147 -139.5q88 -76 146.5 -139t92.5 -113.5t48.5 -85t14.5 -49.5q0 -10 -4.5 -25.5t-14.5 -23.5q-92 111 -176 179.5t-146.5 114.5t-99.5 76.5 t-37 65.5z" />
<glyph unicode="&#xac;" horiz-adv-x="1228" d="M96 670v98h1037v-547h-99v449h-938z" />
<glyph unicode="&#xad;" horiz-adv-x="645" d="M121 383q2 16 4 29.5t2 29.5q0 14 -2 28.5t-4 31.5l201 -8q31 -2 71.5 1t130.5 7q-2 -16 -4 -29.5t-2 -30.5q0 -16 2 -30.5t4 -28.5l-200 8q-31 2 -72 -1t-131 -7z" />
<glyph unicode="&#xae;" horiz-adv-x="1638" d="M55 727q0 158 60.5 297t164 242.5t243 164t296.5 60.5q158 0 297 -60.5t242.5 -164t164 -242.5t60.5 -297t-60.5 -297t-164 -242.5t-242.5 -164t-297 -60.5t-297 60.5t-242.5 164t-164 242.5t-60.5 297zM154 727q0 -139 52 -260t142 -211t211 -142.5t260 -52.5 q137 0 259 52.5t212 142.5t142.5 211t52.5 260q0 137 -52.5 259t-142.5 212t-212 142.5t-259 52.5q-139 0 -260 -52.5t-211 -142.5t-142 -212t-52 -259zM471 326v36q53 0 81 19.5t28 85.5v520q0 96 -109 100v37h369q49 0 95 -11t83 -35.5t58.5 -62.5t21.5 -89 q0 -88 -51.5 -147.5t-126.5 -84.5l118 -176q33 -47 56.5 -77.5t44 -48t41 -24t45.5 -6.5v-36h-119q-37 0 -67.5 22.5t-65.5 75.5l-174 262h-109v-219q0 -66 29 -85.5t94 -19.5v-36h-342zM690 723h117q86 0 127 51t41 144q0 94 -52.5 131.5t-123.5 37.5h-109v-364z" />
<glyph unicode="&#xaf;" horiz-adv-x="530" d="M-70 1210v99h670v-99h-670z" />
<glyph unicode="&#xb0;" horiz-adv-x="819" d="M117 1161q0 61 22.5 114.5t62.5 93.5t93 62.5t115 22.5q61 0 114.5 -22.5t93 -62.5t62 -93t22.5 -115q0 -61 -22.5 -114.5t-62 -93.5t-93 -62.5t-114.5 -22.5t-114.5 22.5t-93.5 62.5t-62.5 93.5t-22.5 114.5zM203 1161q0 -43 16.5 -81t44 -65.5t65.5 -44t81 -16.5 t80.5 16.5t65.5 44t44 65.5t16 81t-16 81t-44 65.5t-65.5 44t-80.5 16.5t-81 -16.5t-65.5 -44t-44 -65.5t-16.5 -81z" />
<glyph unicode="&#xb1;" horiz-adv-x="1228" d="M96 0v98h1037v-98h-1037zM96 561v98h469v377h99v-377h469v-98h-469v-377h-99v377h-469z" />
<glyph unicode="&#xb2;" horiz-adv-x="665" d="M0 659l266 261q92 88 141.5 161.5t49.5 132.5q0 31 -13.5 56.5t-35 44t-47 30t-52.5 11.5q-45 0 -103.5 -20.5t-117.5 -78.5l-41 35q49 72 123 117t164 45q49 0 91 -16.5t73.5 -45t50 -66.5t18.5 -83q0 -74 -40 -141.5t-113 -132.5l-260 -236h311q16 0 37.5 7.5 t32.5 23.5l45 -6q-16 -41 -25.5 -71t-19.5 -64h-529z" />
<glyph unicode="&#xb3;" horiz-adv-x="665" d="M12 573v50q82 4 154 30.5t125 68.5t84 93t31 105q0 12 -4.5 34.5t-19.5 45t-46 39t-84 16.5h-37t-31 -2l-18 47q92 57 136 103t44 81q0 39 -26.5 61.5t-73.5 22.5q-27 0 -63 -9t-89 -36l-18 31q121 100 225 100q72 0 114 -38t42 -95q0 -53 -43 -94t-138 -94l5 -5 q14 12 57 13q98 0 144 -58.5t46 -138.5q0 -92 -53 -158.5t-131 -111.5t-168 -69.5t-164 -31.5z" />
<glyph unicode="&#xb4;" horiz-adv-x="530" d="M14 1081l285 273q43 41 64.5 54t37.5 13q35 0 52.5 -20.5t17.5 -48.5q0 -16 -18.5 -39t-79.5 -60l-291 -172h-68z" />
<glyph unicode="&#xb6;" horiz-adv-x="1228" d="M119 1049q0 113 25.5 189.5t78.5 124.5t134 69.5t190 21.5h489v-49q-63 -6 -98 -12.5t-52.5 -20.5t-20.5 -39.5t-3 -70.5v-1258q0 -45 3 -70.5t20.5 -40t52.5 -20.5t98 -12v-49h-272v1581h-127v-1581l-272 -2v49q63 6 98 12t51 20.5t20.5 40t4.5 70.5v610 q-209 0 -314.5 114t-105.5 323zM254 1044q2 -100 25.5 -170.5t62.5 -114.5t90 -64.5t107 -20.5v719q-70 0 -123.5 -16.5t-88 -56.5t-53 -106.5t-20.5 -169.5z" />
<glyph unicode="&#xb7;" horiz-adv-x="512" d="M139 618q0 47 35 82t82 35t82 -34.5t35 -82.5q0 -47 -35 -81.5t-82 -34.5t-82 34.5t-35 81.5z" />
<glyph unicode="&#xb8;" horiz-adv-x="530" d="M-35 -403l33 59q41 -23 90 -36t86 -13q14 0 34.5 5t38 17.5t30 30.5t12.5 45q0 45 -31 65.5t-65 20.5q-10 0 -37 -4t-43 -8l-17 14l90 207h74l-63 -145q47 10 79 10q16 0 41 -5t48.5 -20.5t41 -44t17.5 -74.5q0 -80 -59.5 -128t-174.5 -48q-35 0 -61.5 2t-52 8.5 t-52 15.5t-59.5 26z" />
<glyph unicode="&#xb9;" horiz-adv-x="665" d="M139 1335q51 23 86 38.5t60.5 27.5t46 24.5t45.5 28.5l41 -14q-6 -135 -9 -267.5t-3 -257.5q0 -211 12 -225q10 -10 35.5 -12t97.5 -6v-49h-404v49q72 4 98.5 6t37.5 12q8 10 10 64.5t2 148.5v43v80v96t-1 96.5t-3 77t-4 39.5q-35 -8 -68 -18t-63 -23z" />
<glyph unicode="&#xba;" horiz-adv-x="690" d="M41 1186q0 55 23.5 104t65.5 85t97 57.5t121 21.5q78 0 135.5 -23.5t94 -61.5t54 -85t17.5 -92q0 -53 -20.5 -104.5t-60.5 -93.5t-97 -67.5t-129 -25.5q-74 0 -129 25.5t-94 66.5t-58.5 92.5t-19.5 100.5zM164 1198q0 -121 53 -190.5t139 -69.5q92 0 131 59.5t39 149.5 q0 117 -46 193.5t-142 76.5q-80 0 -127 -57t-47 -162z" />
<glyph unicode="&#xbb;" d="M63 55q0 14 14.5 49t48.5 85.5t92.5 113.5t146.5 139q-88 76 -146.5 139.5t-92.5 113.5t-48.5 84t-14.5 50q0 10 4.5 25.5t14.5 24.5q92 -111 176 -179.5t146.5 -114.5t99.5 -77t37 -66t-37 -65.5t-99.5 -76.5t-146.5 -114.5t-176 -179.5q-10 8 -14.5 23.5t-4.5 25.5z M500 55q0 14 14 49t48 85.5t92.5 113.5t146.5 139q-88 76 -146.5 139.5t-92.5 113.5t-48 84t-14 50q0 10 4 25.5t14 24.5q92 -111 176 -179.5t146.5 -114.5t99.5 -77t37 -66t-37 -65.5t-99.5 -76.5t-146.5 -114.5t-176 -179.5q-10 8 -14 23.5t-4 25.5z" />
<glyph unicode="&#xbc;" horiz-adv-x="1536" d="M139 1335q51 23 86 38.5t60.5 27.5t46 24.5t45.5 28.5l41 -14q-6 -135 -9 -267.5t-3 -257.5q0 -211 12 -225q10 -10 35.5 -12t97.5 -6v-49h-404v49q72 4 98.5 6t37.5 12q8 10 10 64.5t2 148.5v43v80v96t-1 96.5t-3 77t-4 39.5q-35 -8 -68 -18t-63 -23zM231 -47l920 1511 h90l-919 -1511h-91zM813 211q8 33 18.5 60.5t33 62.5t61.5 83t104 124q63 72 125 144.5t121 148.5l45 -7q-2 -14 -3 -52t-2 -88t-2 -106.5t-1 -109.5t-1 -96t-1 -66l88 6q-4 -12 -6 -25.5t-2 -25.5q0 -14 2 -26.5t6 -26.5h-92q0 -92 2 -158.5t6 -89.5q-23 4 -36 5t-28 1 q-14 0 -27.5 -1t-33.5 -5q2 25 4 64t4 76.5t2 68.5v39h-387zM905 309h295v363l-190 -223q-82 -98 -105 -140z" />
<glyph unicode="&#xbd;" horiz-adv-x="1536" d="M139 1335q51 23 86 38.5t60.5 27.5t46 24.5t45.5 28.5l41 -14q-6 -135 -9 -267.5t-3 -257.5q0 -211 12 -225q10 -10 35.5 -12t97.5 -6v-49h-404v49q72 4 98.5 6t37.5 12q8 10 10 64.5t2 148.5v43v80v96t-1 96.5t-3 77t-4 39.5q-35 -8 -68 -18t-63 -23zM225 -47l920 1511 h90l-920 -1511h-90zM817 37l266 260q92 88 141.5 161.5t49.5 133.5q0 31 -13.5 56.5t-35 44t-47 29.5t-52.5 11q-45 0 -103 -20.5t-118 -77.5l-41 35q57 80 135 123q37 20 76 29t76 9q49 0 91 -16t74 -45t50 -66.5t18 -82.5q0 -74 -39.5 -141.5t-113.5 -133.5l-260 -235h311 q16 0 37.5 7t32.5 23l45 -6q-16 -41 -25.5 -70.5t-19.5 -64.5h-529z" />
<glyph unicode="&#xbe;" horiz-adv-x="1536" d="M53 573v50q82 4 154 30.5t125 68.5t83.5 93t30.5 105q0 12 -4 34.5t-19 45t-46 39t-84 16.5h-37t-31 -2l-18 47q92 57 136 103t44 81q0 39 -26.5 61.5t-73.5 22.5q-27 0 -63 -9t-89 -36l-18 31q121 100 225 100q72 0 114 -38t42 -95q0 -53 -43 -94t-138 -94l5 -5 q14 12 57 13q98 0 144 -58.5t46 -138.5q0 -92 -53 -158.5t-131 -111.5t-168 -69.5t-164 -31.5zM260 -47l920 1511h90l-920 -1511h-90zM813 211q8 33 18.5 60.5t33 62.5t61.5 83t104 124q63 72 125 144.5t121 148.5l45 -7q-2 -14 -3 -52t-2 -88t-2 -106.5t-1 -109.5t-1 -96 t-1 -66l88 6q-4 -12 -6 -25.5t-2 -25.5q0 -14 2 -26.5t6 -26.5h-92q0 -92 2 -158.5t6 -89.5q-23 4 -36 5t-28 1q-14 0 -27.5 -1t-33.5 -5q2 25 4 64t4 76.5t2 68.5v39h-387zM905 309h295v363l-190 -223q-82 -98 -105 -140z" />
<glyph unicode="&#xbf;" horiz-adv-x="948" d="M152 57q0 106 45 171t109.5 102t134 52t116.5 21q14 2 24.5 7.5t16.5 19.5t10 43t6 78l4 88h54q4 -127 10 -208t6 -89q0 -35 -8 -47t-29 -16q-109 -25 -183.5 -50.5t-120.5 -59.5t-65.5 -78t-19.5 -103q0 -68 28.5 -130.5t72 -109.5t93.5 -75.5t93 -28.5q29 0 53.5 9 t44 20.5t33.5 20.5t25 9q16 0 32.5 -13.5t29.5 -31.5t21.5 -35.5t8.5 -25.5q0 -51 -109 -52q-84 0 -178 38t-174 105.5t-132 162t-52 206.5zM547 829q0 25 8 48.5t23.5 42t37 31t48.5 12.5q35 0 63.5 -20.5t28.5 -76.5q0 -57 -33 -97t-78 -40q-35 0 -66.5 21.5t-31.5 78.5z " />
<glyph unicode="&#xc0;" horiz-adv-x="1441" d="M27 -8v57l90 14q23 4 42 22.5t42 78.5q25 66 66.5 171t90 228t96.5 249t88 234.5t65.5 187.5t27.5 103q16 14 32.5 37t31 47.5t23.5 50t13 44.5h62q4 -37 12 -78t20 -78l404 -1163q12 -37 23.5 -62.5t24.5 -41t30.5 -24t44.5 -10.5l59 -6v-61q-39 4 -100.5 6t-147.5 2 t-160.5 -2t-132.5 -6v61q66 4 105 9.5t58.5 13.5t25.5 19t6 30q0 12 -5 32.5t-11 43t-13.5 45t-13.5 37.5l-113 315q-25 2 -51 2h-49q-92 0 -180 -4t-180 -8q-23 -61 -47.5 -135t-46 -142.5t-35 -121t-13.5 -68.5q0 -20 5.5 -31.5t24.5 -19t56 -10.5t103 -7v-61 q-35 4 -92.5 6t-137.5 2q-74 0 -138 -2t-105 -6zM475 1829q0 29 17.5 49t52.5 20q16 0 37.5 -13t64.5 -54l285 -272h-68l-291 172q-61 37 -79.5 59t-18.5 39zM485 676q33 -2 72 -4t80 -4t81 -4t75 -2q25 0 51 1t51 1q-12 68 -39 157.5t-57.5 177.5t-58.5 161t-40 102 q-61 -141 -116.5 -292t-98.5 -294z" />
<glyph unicode="&#xc1;" horiz-adv-x="1441" d="M27 -8v57l90 14q23 4 42 22.5t42 78.5q25 66 66.5 171t90 228t96.5 249t88 234.5t65.5 187.5t27.5 103q16 14 32.5 37t31 47.5t23.5 50t13 44.5h62q4 -37 12 -78t20 -78l404 -1163q12 -37 23.5 -62.5t24.5 -41t30.5 -24t44.5 -10.5l59 -6v-61q-39 4 -100.5 6t-147.5 2 t-160.5 -2t-132.5 -6v61q66 4 105 9.5t58.5 13.5t25.5 19t6 30q0 12 -5 32.5t-11 43t-13.5 45t-13.5 37.5l-113 315q-25 2 -51 2h-49q-92 0 -180 -4t-180 -8q-23 -61 -47.5 -135t-46 -142.5t-35 -121t-13.5 -68.5q0 -20 5.5 -31.5t24.5 -19t56 -10.5t103 -7v-61 q-35 4 -92.5 6t-137.5 2q-74 0 -138 -2t-105 -6zM485 676q33 -2 72 -4t80 -4t81 -4t75 -2q25 0 51 1t51 1q-12 68 -39 157.5t-57.5 177.5t-58.5 161t-40 102q-61 -141 -116.5 -292t-98.5 -294zM584 1559l284 272q43 41 64.5 54t38.5 13q35 0 52 -20t17 -49q0 -16 -18 -39 t-80 -59l-291 -172h-67z" />
<glyph unicode="&#xc2;" horiz-adv-x="1441" d="M27 -8v57l90 14q23 4 42 22.5t42 78.5q25 66 66.5 171t90 228t96.5 249t88 234.5t65.5 187.5t27.5 103q16 14 32.5 37t31 47.5t23.5 50t13 44.5h62q4 -37 12 -78t20 -78l404 -1163q12 -37 23.5 -62.5t24.5 -41t30.5 -24t44.5 -10.5l59 -6v-61q-39 4 -100.5 6t-147.5 2 t-160.5 -2t-132.5 -6v61q66 4 105 9.5t58.5 13.5t25.5 19t6 30q0 12 -5 32.5t-11 43t-13.5 45t-13.5 37.5l-113 315q-25 2 -51 2h-49q-92 0 -180 -4t-180 -8q-23 -61 -47.5 -135t-46 -142.5t-35 -121t-13.5 -68.5q0 -20 5.5 -31.5t24.5 -19t56 -10.5t103 -7v-61 q-35 4 -92.5 6t-137.5 2q-74 0 -138 -2t-105 -6zM410 1559l260 346h102l260 -346h-65l-246 217l-246 -217h-65zM485 676q33 -2 72 -4t80 -4t81 -4t75 -2q25 0 51 1t51 1q-12 68 -39 157.5t-57.5 177.5t-58.5 161t-40 102q-61 -141 -116.5 -292t-98.5 -294z" />
<glyph unicode="&#xc3;" horiz-adv-x="1441" d="M27 -8v57l90 14q23 4 42 22.5t42 78.5q25 66 66.5 171t90 228t96.5 249t88 234.5t65.5 187.5t27.5 103q16 14 32.5 37t31 47.5t23.5 50t13 44.5h62q4 -37 12 -78t20 -78l404 -1163q12 -37 23.5 -62.5t24.5 -41t30.5 -24t44.5 -10.5l59 -6v-61q-39 4 -100.5 6t-147.5 2 t-160.5 -2t-132.5 -6v61q66 4 105 9.5t58.5 13.5t25.5 19t6 30q0 12 -5 32.5t-11 43t-13.5 45t-13.5 37.5l-113 315q-25 2 -51 2h-49q-92 0 -180 -4t-180 -8q-23 -61 -47.5 -135t-46 -142.5t-35 -121t-13.5 -68.5q0 -20 5.5 -31.5t24.5 -19t56 -10.5t103 -7v-61 q-35 4 -92.5 6t-137.5 2q-74 0 -138 -2t-105 -6zM354 1640q35 106 87.5 155.5t129.5 49.5q53 0 98.5 -15t86.5 -34q41 -20 76.5 -35.5t70.5 -15.5t69 23.5t62 82.5h53q-35 -106 -87 -155t-130 -49q-53 0 -98 15t-86 34q-41 20 -77 35.5t-70 15.5q-35 0 -69 -23.5t-62 -83.5 h-54zM485 676q33 -2 72 -4t80 -4t81 -4t75 -2q25 0 51 1t51 1q-12 68 -39 157.5t-57.5 177.5t-58.5 161t-40 102q-61 -141 -116.5 -292t-98.5 -294z" />
<glyph unicode="&#xc4;" horiz-adv-x="1441" d="M27 -8v57l90 14q23 4 42 22.5t42 78.5q25 66 66.5 171t90 228t96.5 249t88 234.5t65.5 187.5t27.5 103q16 14 32.5 37t31 47.5t23.5 50t13 44.5h62q4 -37 12 -78t20 -78l404 -1163q12 -37 23.5 -62.5t24.5 -41t30.5 -24t44.5 -10.5l59 -6v-61q-39 4 -100.5 6t-147.5 2 t-160.5 -2t-132.5 -6v61q66 4 105 9.5t58.5 13.5t25.5 19t6 30q0 12 -5 32.5t-11 43t-13.5 45t-13.5 37.5l-113 315q-25 2 -51 2h-49q-92 0 -180 -4t-180 -8q-23 -61 -47.5 -135t-46 -142.5t-35 -121t-13.5 -68.5q0 -20 5.5 -31.5t24.5 -19t56 -10.5t103 -7v-61 q-35 4 -92.5 6t-137.5 2q-74 0 -138 -2t-105 -6zM420 1735q0 45 30.5 75.5t75.5 30.5t76 -30.5t31 -75.5t-31 -76t-76 -31t-75.5 31t-30.5 76zM485 676q33 -2 72 -4t80 -4t81 -4t75 -2q25 0 51 1t51 1q-12 68 -39 157.5t-57.5 177.5t-58.5 161t-40 102q-61 -141 -116.5 -292 t-98.5 -294zM809 1735q0 45 30.5 75.5t75.5 30.5t76 -30.5t31 -75.5t-30.5 -76t-76.5 -31q-45 0 -75.5 31t-30.5 76z" />
<glyph unicode="&#xc5;" horiz-adv-x="1441" d="M27 -8v57l90 14q23 4 42 22.5t42 78.5q25 66 66.5 171t90 228t96.5 249t88 234.5t65.5 187.5t27.5 103q16 14 32.5 37t31 47.5t23.5 50t13 44.5h62q4 -37 12 -78t20 -78l404 -1163q12 -37 23.5 -62.5t24.5 -41t30.5 -24t44.5 -10.5l59 -6v-61q-39 4 -100.5 6t-147.5 2 t-160.5 -2t-132.5 -6v61q66 4 105 9.5t58.5 13.5t25.5 19t6 30q0 12 -5 32.5t-11 43t-13.5 45t-13.5 37.5l-113 315q-25 2 -51 2h-49q-92 0 -180 -4t-180 -8q-23 -61 -47.5 -135t-46 -142.5t-35 -121t-13.5 -68.5q0 -20 5.5 -31.5t24.5 -19t56 -10.5t103 -7v-61 q-35 4 -92.5 6t-137.5 2q-74 0 -138 -2t-105 -6zM485 676q33 -2 72 -4t80 -4t81 -4t75 -2q25 0 51 1t51 1q-12 68 -39 157.5t-57.5 177.5t-58.5 161t-40 102q-61 -141 -116.5 -292t-98.5 -294zM514 1765q0 43 16.5 81t44 65.5t65.5 44t81 16.5t81 -16.5t65.5 -44t44 -65.5 t16.5 -81t-16.5 -80.5t-44 -65.5t-65.5 -44t-81 -16t-81 16t-65.5 44t-44 65.5t-16.5 80.5zM575 1765q0 -59 43.5 -102t102.5 -43t102 43t43 102t-43 102.5t-102 43.5t-102.5 -43t-43.5 -103z" />
<glyph unicode="&#xc6;" horiz-adv-x="2048" d="M27 -8v67q31 2 52 7.5t48 34t63.5 88t98.5 169.5l282 502q74 129 122 217t77 145.5t40 87t11 40.5q0 29 -35 34q-12 2 -35.5 3.5t-49 3.5t-52 3t-45.5 1v67q125 -4 249 -6t249 -2q193 0 383 2t383 6v-319h-74q-16 111 -34.5 158t-30.5 57q-14 10 -31 16t-52.5 9t-99 4.5 t-172.5 1.5q-68 0 -105.5 -1.5t-56 -7.5t-21.5 -19t-3 -38v-551q53 -2 113.5 -4t121.5 -2q86 0 133.5 2t70 12.5t27.5 28.5t7 53l4 90h59v-440h-59q-4 57 -7 91t-8 52.5t-15.5 25.5t-24.5 11q-16 4 -58.5 8.5t-134.5 4.5q-43 0 -100 -1.5t-129 -3.5v-557q0 -29 3 -45 t19.5 -23t51 -8t96.5 -1q37 0 103.5 1t135 5t128 14t83.5 27q16 12 31.5 29.5t31 47t33 73.5t38.5 110h61q-12 -59 -25.5 -144.5t-31.5 -236.5q-74 2 -137.5 4t-131 3t-147.5 1h-182q-170 0 -305.5 -2t-254.5 -6v61q66 4 104 7t58.5 6.5t26.5 7.5t10 10q6 8 10 22.5 t7.5 54.5t5.5 111.5t2 192.5v231q-25 2 -44.5 4t-42 3.5t-51.5 1.5h-73q-104 0 -166 -4.5t-64 -6.5q-53 -96 -104 -194.5t-91 -181t-64.5 -141t-24.5 -73.5q0 -27 71 -34l91 -11v-67q-41 4 -91.5 6t-101.5 2q-63 0 -125.5 -2t-103.5 -6zM608 774q31 -2 69 -3t78 -2t77.5 -2 t66.5 -1t58.5 1t58.5 1v545q0 41 -8.5 55t-30.5 14q-16 0 -42 -13t-54 -71z" />
<glyph unicode="&#xc7;" horiz-adv-x="1402" d="M74 717q0 143 51 282.5t148.5 249t238.5 176t324 66.5q113 0 219 -18.5t217 -53.5v-274h-62l-16 74q-23 96 -119 153.5t-250 57.5q-121 0 -220 -45.5t-171 -134.5t-111.5 -220t-39.5 -301q0 -186 46 -319.5t122.5 -219.5t176 -125.5t208.5 -39.5q45 0 103 9t113.5 33.5 t99.5 69.5t62 119l25 96h76l-29 -293q-90 -45 -206.5 -70.5t-243.5 -25.5h-13l-47 -108q47 10 80 10q16 0 41 -5t48.5 -20.5t41 -44t17.5 -74.5q0 -80 -59.5 -128t-174.5 -48q-35 0 -61.5 2t-52 8.5t-52 15.5t-59.5 26l33 59q41 -23 90 -36t86 -13q14 0 34.5 5t38 17.5 t29.5 30.5t12 45q0 45 -30.5 65.5t-65.5 20.5q-10 0 -36.5 -4t-43.5 -8l-16 14l76 174q-147 14 -271.5 74.5t-214.5 159t-141 229.5t-51 287z" />
<glyph unicode="&#xc8;" horiz-adv-x="1327" d="M45 -8v61q66 4 103.5 7t58 6.5t27 7.5t10.5 10q6 8 10 22.5t7 54.5t5 111.5t2 192.5v524q0 121 -2 192.5t-5 111.5t-7 54.5t-10 22.5q-4 6 -10.5 10t-27 7.5t-58 6.5t-103.5 7v61q37 -2 82 -3l90 -2t85 -2t69 -1h84q61 0 139 1t165 2t166 2t142 1q66 0 96 2v-303h-73 l-25 111q-8 39 -18.5 62.5t-43 35.5t-98 16.5t-182.5 4.5q-98 0 -152.5 -3.5t-80 -11.5t-30.5 -20.5t-5 -30.5l-9 -532q41 -2 108 -3.5t159 -1.5q82 0 128 3.5t68.5 13.5t26.5 29.5t4 52.5v88h61q-2 -57 -3 -108.5t-1 -104.5v-49q0 -27 1 -57.5t2 -61.5t1 -55h-61 q0 63 -2 99t-11 52.5t-26.5 21.5t-50.5 9q-35 4 -81 5t-95 1q-61 0 -121.5 -1t-106.5 -3q-2 -115 -4 -226.5t-2 -226.5q0 -72 3 -109.5t13.5 -56t29 -21.5t46.5 -3h369q74 0 122 11t82 41t58.5 83t50.5 137h68l-65 -358q-117 4 -278 6t-335 2q-170 0 -305 -2t-254 -6z M418 1829q0 29 17.5 49t51.5 20q16 0 38 -13t65 -54l284 -272h-67l-291 172q-61 37 -79.5 59t-18.5 39z" />
<glyph unicode="&#xc9;" horiz-adv-x="1327" d="M45 -8v61q66 4 103.5 7t58 6.5t27 7.5t10.5 10q6 8 10 22.5t7 54.5t5 111.5t2 192.5v524q0 121 -2 192.5t-5 111.5t-7 54.5t-10 22.5q-4 6 -10.5 10t-27 7.5t-58 6.5t-103.5 7v61q37 -2 82 -3l90 -2t85 -2t69 -1h84q61 0 139 1t165 2t166 2t142 1q66 0 96 2v-303h-73 l-25 111q-8 39 -18.5 62.5t-43 35.5t-98 16.5t-182.5 4.5q-98 0 -152.5 -3.5t-80 -11.5t-30.5 -20.5t-5 -30.5l-9 -532q41 -2 108 -3.5t159 -1.5q82 0 128 3.5t68.5 13.5t26.5 29.5t4 52.5v88h61q-2 -57 -3 -108.5t-1 -104.5v-49q0 -27 1 -57.5t2 -61.5t1 -55h-61 q0 63 -2 99t-11 52.5t-26.5 21.5t-50.5 9q-35 4 -81 5t-95 1q-61 0 -121.5 -1t-106.5 -3q-2 -115 -4 -226.5t-2 -226.5q0 -72 3 -109.5t13.5 -56t29 -21.5t46.5 -3h369q74 0 122 11t82 41t58.5 83t50.5 137h68l-65 -358q-117 4 -278 6t-335 2q-170 0 -305 -2t-254 -6z M526 1559l285 272q43 41 64.5 54t37.5 13q35 0 52.5 -20t17.5 -49q0 -16 -18.5 -39t-79.5 -59l-291 -172h-68z" />
<glyph unicode="&#xca;" horiz-adv-x="1327" d="M45 -8v61q66 4 103.5 7t58 6.5t27 7.5t10.5 10q6 8 10 22.5t7 54.5t5 111.5t2 192.5v524q0 121 -2 192.5t-5 111.5t-7 54.5t-10 22.5q-4 6 -10.5 10t-27 7.5t-58 6.5t-103.5 7v61q37 -2 82 -3l90 -2t85 -2t69 -1h84q61 0 139 1t165 2t166 2t142 1q66 0 96 2v-303h-73 l-25 111q-8 39 -18.5 62.5t-43 35.5t-98 16.5t-182.5 4.5q-98 0 -152.5 -3.5t-80 -11.5t-30.5 -20.5t-5 -30.5l-9 -532q41 -2 108 -3.5t159 -1.5q82 0 128 3.5t68.5 13.5t26.5 29.5t4 52.5v88h61q-2 -57 -3 -108.5t-1 -104.5v-49q0 -27 1 -57.5t2 -61.5t1 -55h-61 q0 63 -2 99t-11 52.5t-26.5 21.5t-50.5 9q-35 4 -81 5t-95 1q-61 0 -121.5 -1t-106.5 -3q-2 -115 -4 -226.5t-2 -226.5q0 -72 3 -109.5t13.5 -56t29 -21.5t46.5 -3h369q74 0 122 11t82 41t58.5 83t50.5 137h68l-65 -358q-117 4 -278 6t-335 2q-170 0 -305 -2t-254 -6z M352 1559l260 346h103l260 -346h-66l-245 217l-246 -217h-66z" />
<glyph unicode="&#xcb;" horiz-adv-x="1327" d="M45 -8v61q66 4 103.5 7t58 6.5t27 7.5t10.5 10q6 8 10 22.5t7 54.5t5 111.5t2 192.5v524q0 121 -2 192.5t-5 111.5t-7 54.5t-10 22.5q-4 6 -10.5 10t-27 7.5t-58 6.5t-103.5 7v61q37 -2 82 -3l90 -2t85 -2t69 -1h84q61 0 139 1t165 2t166 2t142 1q66 0 96 2v-303h-73 l-25 111q-8 39 -18.5 62.5t-43 35.5t-98 16.5t-182.5 4.5q-98 0 -152.5 -3.5t-80 -11.5t-30.5 -20.5t-5 -30.5l-9 -532q41 -2 108 -3.5t159 -1.5q82 0 128 3.5t68.5 13.5t26.5 29.5t4 52.5v88h61q-2 -57 -3 -108.5t-1 -104.5v-49q0 -27 1 -57.5t2 -61.5t1 -55h-61 q0 63 -2 99t-11 52.5t-26.5 21.5t-50.5 9q-35 4 -81 5t-95 1q-61 0 -121.5 -1t-106.5 -3q-2 -115 -4 -226.5t-2 -226.5q0 -72 3 -109.5t13.5 -56t29 -21.5t46.5 -3h369q74 0 122 11t82 41t58.5 83t50.5 137h68l-65 -358q-117 4 -278 6t-335 2q-170 0 -305 -2t-254 -6z M362 1735q0 45 31 75.5t76 30.5t75.5 -30.5t30.5 -75.5t-30.5 -76t-75.5 -31t-76 31t-31 76zM752 1735q0 45 30.5 75.5t75.5 30.5t76 -30.5t31 -75.5t-31 -76t-76 -31t-75.5 31t-30.5 76z" />
<glyph unicode="&#xcc;" horiz-adv-x="757" d="M51 -8v61q59 4 97 7t61.5 6.5t36 7.5t20.5 12q14 14 17.5 108.5t3.5 266.5v532q0 172 -3 266.5t-18 108.5q-8 8 -20.5 12t-36 7.5t-61 6.5t-97.5 7v61q63 -4 143 -6t185 -2q104 0 184 2t144 6v-61q-59 -4 -97.5 -7t-62 -6.5t-35.5 -7.5t-20 -12q-14 -14 -17.5 -108.5 t-3.5 -266.5v-532q0 -172 3 -266.5t18 -108.5q8 -8 20 -12t35.5 -7.5t61.5 -6.5t98 -7v-61q-63 4 -143.5 6t-184.5 2t-184 -2t-144 -6zM174 1829q0 29 17.5 49t52.5 20q16 0 37.5 -13t64.5 -54l285 -272h-68l-291 172q-61 37 -79.5 59t-18.5 39z" />
<glyph unicode="&#xcd;" horiz-adv-x="757" d="M51 -8v61q59 4 97 7t61.5 6.5t36 7.5t20.5 12q14 14 17.5 108.5t3.5 266.5v532q0 172 -3 266.5t-18 108.5q-8 8 -20.5 12t-36 7.5t-61 6.5t-97.5 7v61q63 -4 143 -6t185 -2q104 0 184 2t144 6v-61q-59 -4 -97.5 -7t-62 -6.5t-35.5 -7.5t-20 -12q-14 -14 -17.5 -108.5 t-3.5 -266.5v-532q0 -172 3 -266.5t18 -108.5q8 -8 20 -12t35.5 -7.5t61.5 -6.5t98 -7v-61q-63 4 -143.5 6t-184.5 2t-184 -2t-144 -6zM242 1559l284 272q43 41 64.5 54t38.5 13q35 0 52 -20t17 -49q0 -16 -18 -39t-80 -59l-291 -172h-67z" />
<glyph unicode="&#xce;" horiz-adv-x="757" d="M51 -8v61q59 4 97 7t61.5 6.5t36 7.5t20.5 12q14 14 17.5 108.5t3.5 266.5v532q0 172 -3 266.5t-18 108.5q-8 8 -20.5 12t-36 7.5t-61 6.5t-97.5 7v61q63 -4 143 -6t185 -2q104 0 184 2t144 6v-61q-59 -4 -97.5 -7t-62 -6.5t-35.5 -7.5t-20 -12q-14 -14 -17.5 -108.5 t-3.5 -266.5v-532q0 -172 3 -266.5t18 -108.5q8 -8 20 -12t35.5 -7.5t61.5 -6.5t98 -7v-61q-63 4 -143.5 6t-184.5 2t-184 -2t-144 -6zM68 1559l260 346h102l260 -346h-65l-246 217l-246 -217h-65z" />
<glyph unicode="&#xcf;" horiz-adv-x="757" d="M51 -8v61q59 4 97 7t61.5 6.5t36 7.5t20.5 12q14 14 17.5 108.5t3.5 266.5v532q0 172 -3 266.5t-18 108.5q-8 8 -20.5 12t-36 7.5t-61 6.5t-97.5 7v61q63 -4 143 -6t185 -2q104 0 184 2t144 6v-61q-59 -4 -97.5 -7t-62 -6.5t-35.5 -7.5t-20 -12q-14 -14 -17.5 -108.5 t-3.5 -266.5v-532q0 -172 3 -266.5t18 -108.5q8 -8 20 -12t35.5 -7.5t61.5 -6.5t98 -7v-61q-63 4 -143.5 6t-184.5 2t-184 -2t-144 -6zM78 1735q0 45 30.5 75.5t75.5 30.5t76 -30.5t31 -75.5t-31 -76t-76 -31t-75.5 31t-30.5 76zM467 1735q0 45 30.5 75.5t75.5 30.5 t76 -30.5t31 -75.5t-31 -76t-76 -31t-75.5 31t-30.5 76z" />
<glyph unicode="&#xd0;" horiz-adv-x="1593" d="M45 -8v61q66 4 103.5 7t58 6.5t27 7.5t10.5 10q6 8 10 22.5t7 54.5t5 111.5t2 192.5v293h-223v86h223v145q0 121 -2 192.5t-5 111.5t-7 54.5t-10 22.5q-4 6 -10.5 10t-27 7.5t-58 6.5t-103.5 7v61q59 -4 130 -6t151 -2q104 0 206.5 4t200.5 4q152 0 294 -47t252 -141 t175.5 -235.5t65.5 -327.5q0 -74 -14.5 -156t-48.5 -162t-91 -152.5t-144 -128t-206 -88t-277 -32.5q-72 0 -142.5 1t-129.5 3t-101 3t-55 1q-10 0 -39.5 -1t-68.5 -2t-81 -2t-77 -3zM440 758q0 -100 1 -225t3 -289q0 -66 6.5 -102t31 -53t76.5 -20t144 -3q104 0 213 29.5 t197 103t143.5 199.5t55.5 319q0 96 -33 214t-109.5 219t-201.5 170t-312 69q-74 0 -114.5 -2.5t-60 -7.5t-23.5 -15t-4 -27q-6 -131 -9.5 -250.5t-3.5 -242.5h455v-86h-455z" />
<glyph unicode="&#xd1;" horiz-adv-x="1630" d="M70 -8v69q41 4 66.5 7.5t39.5 7.5t20.5 8t10.5 8t8 19.5t7 56.5t7 111.5t6.5 187.5t4.5 285t2 401q0 66 -2 106.5t-6.5 65.5t-9.5 35t-11 14q-10 10 -46 16.5t-89 6.5v65q43 -4 86 -6t86 -2q35 0 69.5 2t69.5 6q229 -317 466 -616t458 -559q0 92 1 172t1 172 q0 231 -3 373.5t-7.5 222.5t-8.5 108.5t-8 34.5t-11 11t-23.5 10.5t-45 7.5t-73.5 2v61q49 -2 80.5 -3t54 -2t39 -2t34.5 -1q55 0 109.5 3t108.5 5v-61q-80 0 -108 -8.5t-36 -36.5q-4 -12 -9 -108.5t-9 -257.5t-7 -375t-3 -457v-195h-56q-115 152 -241.5 316.5t-259 330.5 t-263.5 326t-250 301l-4 -4q2 -113 3 -260.5t2.5 -298t4.5 -289.5t9 -233q2 -29 13 -53.5t52 -28.5l93 -9v-69q-43 4 -88.5 6t-124.5 2q-76 0 -119 -2t-90 -6zM469 1640q35 106 87 155.5t130 49.5q53 0 98 -15t86 -34q41 -20 77 -35.5t71 -15.5t68.5 23.5t62.5 82.5h53 q-35 -106 -87 -155t-130 -49q-53 0 -98 15t-86 34q-41 20 -77 35.5t-71 15.5t-68.5 -23.5t-62.5 -83.5h-53z" />
<glyph unicode="&#xd2;" horiz-adv-x="1671" d="M74 717q0 143 51 282.5t148.5 249t238.5 176t324 66.5q182 0 323 -66.5t238.5 -176t148.5 -249t51 -282.5q0 -166 -58 -304.5t-160.5 -238.5t-242 -155.5t-300.5 -55.5q-162 0 -301.5 55.5t-242 155.5t-160.5 238.5t-58 304.5zM283 729q0 -186 46 -319.5t122.5 -219.5 t176 -125.5t208.5 -39.5q117 0 218 36.5t175 120.5t117 217t43 328q0 184 -46.5 316.5t-123 218.5t-177 127t-206.5 41q-125 0 -226.5 -45.5t-174.5 -134.5t-112.5 -220t-39.5 -301zM590 1829q0 29 17.5 49t51.5 20q16 0 38 -13t65 -54l285 -272h-68l-291 172 q-61 37 -79.5 59t-18.5 39z" />
<glyph unicode="&#xd3;" horiz-adv-x="1671" d="M74 717q0 143 51 282.5t148.5 249t238.5 176t324 66.5q182 0 323 -66.5t238.5 -176t148.5 -249t51 -282.5q0 -166 -58 -304.5t-160.5 -238.5t-242 -155.5t-300.5 -55.5q-162 0 -301.5 55.5t-242 155.5t-160.5 238.5t-58 304.5zM283 729q0 -186 46 -319.5t122.5 -219.5 t176 -125.5t208.5 -39.5q117 0 218 36.5t175 120.5t117 217t43 328q0 184 -46.5 316.5t-123 218.5t-177 127t-206.5 41q-125 0 -226.5 -45.5t-174.5 -134.5t-112.5 -220t-39.5 -301zM698 1559l285 272q43 41 64.5 54t37.5 13q35 0 52.5 -20t17.5 -49q0 -16 -18.5 -39 t-79.5 -59l-291 -172h-68z" />
<glyph unicode="&#xd4;" horiz-adv-x="1671" d="M74 717q0 143 51 282.5t148.5 249t238.5 176t324 66.5q182 0 323 -66.5t238.5 -176t148.5 -249t51 -282.5q0 -166 -58 -304.5t-160.5 -238.5t-242 -155.5t-300.5 -55.5q-162 0 -301.5 55.5t-242 155.5t-160.5 238.5t-58 304.5zM283 729q0 -186 46 -319.5t122.5 -219.5 t176 -125.5t208.5 -39.5q117 0 218 36.5t175 120.5t117 217t43 328q0 184 -46.5 316.5t-123 218.5t-177 127t-206.5 41q-125 0 -226.5 -45.5t-174.5 -134.5t-112.5 -220t-39.5 -301zM524 1559l260 346h103l260 -346h-66l-245 217l-246 -217h-66z" />
<glyph unicode="&#xd5;" horiz-adv-x="1671" d="M74 717q0 143 51 282.5t148.5 249t238.5 176t324 66.5q182 0 323 -66.5t238.5 -176t148.5 -249t51 -282.5q0 -166 -58 -304.5t-160.5 -238.5t-242 -155.5t-300.5 -55.5q-162 0 -301.5 55.5t-242 155.5t-160.5 238.5t-58 304.5zM283 729q0 -186 46 -319.5t122.5 -219.5 t176 -125.5t208.5 -39.5q117 0 218 36.5t175 120.5t117 217t43 328q0 184 -46.5 316.5t-123 218.5t-177 127t-206.5 41q-125 0 -226.5 -45.5t-174.5 -134.5t-112.5 -220t-39.5 -301zM469 1640q35 106 87 155.5t130 49.5q53 0 98 -15t86 -34q41 -20 77 -35.5t71 -15.5 t68.5 23.5t62.5 82.5h53q-35 -106 -87 -155t-130 -49q-53 0 -98 15t-86 34q-41 20 -77 35.5t-71 15.5t-68.5 -23.5t-62.5 -83.5h-53z" />
<glyph unicode="&#xd6;" horiz-adv-x="1671" d="M74 717q0 143 51 282.5t148.5 249t238.5 176t324 66.5q182 0 323 -66.5t238.5 -176t148.5 -249t51 -282.5q0 -166 -58 -304.5t-160.5 -238.5t-242 -155.5t-300.5 -55.5q-162 0 -301.5 55.5t-242 155.5t-160.5 238.5t-58 304.5zM283 729q0 -186 46 -319.5t122.5 -219.5 t176 -125.5t208.5 -39.5q117 0 218 36.5t175 120.5t117 217t43 328q0 184 -46.5 316.5t-123 218.5t-177 127t-206.5 41q-125 0 -226.5 -45.5t-174.5 -134.5t-112.5 -220t-39.5 -301zM535 1735q0 45 30.5 75.5t75.5 30.5t76 -30.5t31 -75.5t-31 -76t-76 -31t-75.5 31 t-30.5 76zM924 1735q0 45 30.5 75.5t75.5 30.5t76 -30.5t31 -75.5t-31 -76t-76 -31t-75.5 31t-30.5 76z" />
<glyph unicode="&#xd7;" horiz-adv-x="1228" d="M152 129l389 389l-389 389l73 74l387 -391l392 391l73 -74l-389 -389l389 -389l-73 -74l-392 391l-387 -391z" />
<glyph unicode="&#xd8;" horiz-adv-x="1671" d="M74 717q0 143 51 282.5t148.5 249t238.5 176t324 66.5q129 0 236.5 -34t193.5 -93l112 152l64 -48l-113 -153q131 -111 199.5 -269.5t68.5 -328.5q0 -166 -58 -304.5t-160.5 -238.5t-242 -155.5t-300.5 -55.5q-240 0 -422 117l-121 -162l-64 47l119 162 q-129 100 -201.5 250.5t-72.5 339.5zM283 729q0 -168 36.5 -292t102.5 -210l780 1051q-76 78 -170 115t-196 37q-125 0 -226.5 -45.5t-174.5 -134.5t-112.5 -220t-39.5 -301zM477 166q72 -72 164 -106.5t195 -34.5q117 0 218 36.5t175 120.5t117 217t43 328q0 162 -36 282.5 t-98 207.5z" />
<glyph unicode="&#xd9;" horiz-adv-x="1517" d="M43 1401v61q66 -4 131.5 -6t130.5 -2q78 0 157 2t156 6v-61q-12 0 -36.5 -2t-51 -3t-49 -3t-28.5 -4q-10 -2 -18.5 -9.5t-13.5 -26t-8 -53t-3 -92.5l-11 -594q0 -41 -2 -86t-2 -98q0 -176 86 -278.5t277 -102.5q76 0 155.5 18.5t145 72t106.5 151.5t41 258 q0 250 -1 408.5t-4 250.5t-8 129t-13 43q-4 4 -12.5 7.5t-27 5.5t-49 4t-81.5 4v61q57 -4 114.5 -6t114.5 -2q59 0 112.5 2t98.5 6v-61q-47 0 -73.5 -3t-40 -11.5t-18.5 -24.5t-5 -41l-25 -842q-4 -115 -36.5 -209t-99.5 -162.5t-166 -106.5t-236 -38q-119 0 -217.5 31 t-169 89t-109.5 144t-39 195v893q0 29 -4 45t-21.5 24.5t-52.5 11.5t-94 5zM512 1829q0 29 17.5 49t52.5 20q16 0 37.5 -13t64.5 -54l285 -272h-68l-291 172q-61 37 -79.5 59t-18.5 39z" />
<glyph unicode="&#xda;" horiz-adv-x="1517" d="M43 1401v61q66 -4 131.5 -6t130.5 -2q78 0 157 2t156 6v-61q-12 0 -36.5 -2t-51 -3t-49 -3t-28.5 -4q-10 -2 -18.5 -9.5t-13.5 -26t-8 -53t-3 -92.5l-11 -594q0 -41 -2 -86t-2 -98q0 -176 86 -278.5t277 -102.5q76 0 155.5 18.5t145 72t106.5 151.5t41 258 q0 250 -1 408.5t-4 250.5t-8 129t-13 43q-4 4 -12.5 7.5t-27 5.5t-49 4t-81.5 4v61q57 -4 114.5 -6t114.5 -2q59 0 112.5 2t98.5 6v-61q-47 0 -73.5 -3t-40 -11.5t-18.5 -24.5t-5 -41l-25 -842q-4 -115 -36.5 -209t-99.5 -162.5t-166 -106.5t-236 -38q-119 0 -217.5 31 t-169 89t-109.5 144t-39 195v893q0 29 -4 45t-21.5 24.5t-52.5 11.5t-94 5zM621 1559l284 272q43 41 64.5 54t38.5 13q35 0 52 -20t17 -49q0 -16 -18.5 -39t-79.5 -59l-291 -172h-67z" />
<glyph unicode="&#xdb;" horiz-adv-x="1517" d="M43 1401v61q66 -4 131.5 -6t130.5 -2q78 0 157 2t156 6v-61q-12 0 -36.5 -2t-51 -3t-49 -3t-28.5 -4q-10 -2 -18.5 -9.5t-13.5 -26t-8 -53t-3 -92.5l-11 -594q0 -41 -2 -86t-2 -98q0 -176 86 -278.5t277 -102.5q76 0 155.5 18.5t145 72t106.5 151.5t41 258 q0 250 -1 408.5t-4 250.5t-8 129t-13 43q-4 4 -12.5 7.5t-27 5.5t-49 4t-81.5 4v61q57 -4 114.5 -6t114.5 -2q59 0 112.5 2t98.5 6v-61q-47 0 -73.5 -3t-40 -11.5t-18.5 -24.5t-5 -41l-25 -842q-4 -115 -36.5 -209t-99.5 -162.5t-166 -106.5t-236 -38q-119 0 -217.5 31 t-169 89t-109.5 144t-39 195v893q0 29 -4 45t-21.5 24.5t-52.5 11.5t-94 5zM449 1559l260 346h102l260 -346h-65l-246 217l-246 -217h-65z" />
<glyph unicode="&#xdc;" horiz-adv-x="1517" d="M43 1401v61q66 -4 131.5 -6t130.5 -2q78 0 157 2t156 6v-61q-12 0 -36.5 -2t-51 -3t-49 -3t-28.5 -4q-10 -2 -18.5 -9.5t-13.5 -26t-8 -53t-3 -92.5l-11 -594q0 -41 -2 -86t-2 -98q0 -176 86 -278.5t277 -102.5q76 0 155.5 18.5t145 72t106.5 151.5t41 258 q0 250 -1 408.5t-4 250.5t-8 129t-13 43q-4 4 -12.5 7.5t-27 5.5t-49 4t-81.5 4v61q57 -4 114.5 -6t114.5 -2q59 0 112.5 2t98.5 6v-61q-47 0 -73.5 -3t-40 -11.5t-18.5 -24.5t-5 -41l-25 -842q-4 -115 -36.5 -209t-99.5 -162.5t-166 -106.5t-236 -38q-119 0 -217.5 31 t-169 89t-109.5 144t-39 195v893q0 29 -4 45t-21.5 24.5t-52.5 11.5t-94 5zM459 1735q0 45 30.5 75.5t75.5 30.5t76 -30.5t31 -75.5t-31 -76t-76 -31t-75.5 31t-30.5 76zM848 1735q0 45 30.5 75.5t75.5 30.5t76 -30.5t31 -75.5t-31 -76t-76 -31t-75.5 31t-30.5 76z" />
<glyph unicode="&#xdd;" horiz-adv-x="1478" d="M35 1401v61q68 -4 134.5 -6t131.5 -2q78 0 144.5 2t132.5 6v-61q-55 -6 -88 -10.5t-49.5 -10.5t-20.5 -13t-4 -19q0 -8 32.5 -77t85 -169.5t119 -216t133.5 -215.5q31 43 70 104.5t79 130t79 139t68.5 132t48 108.5t18.5 68q0 14 -5 22t-20.5 13.5t-46 8.5t-80.5 5v61 q59 -4 119 -6t119 -2t113.5 2t95.5 6v-61q-78 -8 -105.5 -19.5t-38.5 -23.5q-14 -18 -47.5 -69.5t-78 -121t-95.5 -151.5t-100 -162t-93 -150.5t-73 -119.5q-4 -47 -3 -115t1 -170q0 -59 1 -98t4 -62.5t8 -34t12 -14.5q10 -6 22 -11t33.5 -9t58.5 -7.5t97 -9.5v-61 q-66 4 -146 6t-170 2q-123 0 -190.5 -2t-122.5 -6v61q57 4 93 9.5t57.5 10.5t32.5 12t20 13q6 6 12 34t10 63.5t6 74.5t2 70q0 98 -2 164.5t-8 93.5q-20 37 -58 100.5t-83 139t-93.5 155.5t-91.5 149.5t-74.5 122t-41.5 70.5q-14 25 -33 35t-78 21zM602 1559l285 272 q43 41 64.5 54t37.5 13q35 0 52.5 -20t17.5 -49q0 -16 -18.5 -39t-79.5 -59l-291 -172h-68z" />
<glyph unicode="&#xde;" horiz-adv-x="1251" d="M27 -8v61q61 4 100 7t63.5 6.5t37 7.5t20.5 12q14 14 17 108.5t3 266.5v532q0 172 -3 266.5t-17 108.5q-8 8 -20.5 12t-37 7.5t-63.5 6.5t-100 7v61q63 -4 141 -6t174 -2q104 0 184 2t144 6v-61q-57 -4 -95 -7t-60.5 -6.5t-35 -7.5t-20.5 -12q-6 -6 -10.5 -30.5 t-6.5 -52.5t-2 -52v-33q39 0 114 3t161 3q109 0 197.5 -32.5t152 -89t98.5 -135.5t35 -171q0 -104 -41 -185t-111.5 -137.5t-165 -86t-200.5 -29.5q-41 0 -88 2t-76 6v74q16 -4 40 -6t46 -2q106 0 184 29.5t129.5 78.5t75 113.5t23.5 136.5q0 96 -32 166t-86 116t-129 68.5 t-161 22.5q-59 0 -92 -4t-49 -20.5t-20.5 -50.5t-4.5 -93v-516q0 -172 3 -266.5t18 -108.5q8 -8 20.5 -12t36 -7.5t61 -6.5t97.5 -7v-61q-63 4 -143 6t-185 2q-96 0 -175 -2t-146 -6z" />
<glyph unicode="&#xdf;" horiz-adv-x="1099" d="M16 -8v61q82 4 113 10.5t41 16.5q6 6 10 27.5t7 71.5t4.5 134t1.5 213v351q0 229 51 366t124.5 211t154.5 96.5t141 22.5q117 0 190.5 -63.5t73.5 -172.5q0 -80 -44 -143.5t-97.5 -112.5t-97.5 -86t-44 -61q0 -20 28.5 -52t71.5 -74t94.5 -93t94.5 -111.5t71.5 -131.5 t28.5 -148q0 -68 -27.5 -133.5t-71.5 -115.5t-99.5 -81t-110.5 -31q-59 0 -105.5 35t-46.5 106q0 37 10.5 59.5t25 36t28.5 17.5t22 4t20.5 -4t25 -13t20.5 -24.5t8 -38.5q0 -41 -20.5 -67.5t-20.5 -36.5t12.5 -17.5t26.5 -7.5q31 0 64.5 18.5t62.5 50.5t47.5 76t18.5 95 q0 61 -28 118.5t-70 111t-91 103.5t-91 97t-69.5 91t-27.5 87t34.5 94.5t75.5 109.5t76 121.5t35 131.5q0 35 -13.5 67.5t-36 58t-53 41t-63.5 15.5q-39 0 -85 -21.5t-85 -81t-65.5 -167t-26.5 -279.5v-377q0 -166 1 -262t4 -145t8 -64.5t12 -21.5q8 -8 31.5 -15.5 t97.5 -11.5v-61q-57 4 -114.5 6t-123.5 2q-53 0 -114.5 -2t-125.5 -6z" />
<glyph unicode="&#xe0;" horiz-adv-x="909" d="M90 145q0 51 26.5 99.5t85 94.5t153 94t229.5 99v101q0 59 -9.5 97t-26 59.5t-39 29.5t-48.5 8q-31 0 -65 -9t-61.5 -28.5t-46 -52t-18.5 -82.5q0 -43 -13 -68.5t-31.5 -38.5t-38 -18.5t-31.5 -5.5q-57 0 -58 49q0 51 43 109.5t108.5 107t142.5 80t143 31.5q39 0 76.5 -9 t67.5 -35t47 -70t17 -113q0 -123 -3 -244t-3 -244q0 -63 8.5 -89.5t34.5 -26.5q20 0 42 14t40 47l12 -51q-10 -23 -26.5 -43.5t-36.5 -36.5t-41.5 -26.5t-42.5 -10.5q-20 0 -38.5 6t-36 22.5t-35 46.5t-33.5 77q-104 -90 -178 -121t-134 -31q-92 0 -137 54.5t-45 127.5z M178 1352q0 29 17.5 49t52.5 20q16 0 37.5 -13t64.5 -54l285 -273h-68l-291 172q-61 37 -79.5 59.5t-18.5 39.5zM250 180q0 -47 32.5 -76.5t86.5 -29.5q29 0 58.5 8t57 22.5t49 35t33.5 42.5q4 10 10.5 44t6.5 67v184q-160 -66 -247 -137.5t-87 -159.5z" />
<glyph unicode="&#xe1;" horiz-adv-x="909" d="M90 145q0 51 26.5 99.5t85 94.5t153 94t229.5 99v101q0 59 -9.5 97t-26 59.5t-39 29.5t-48.5 8q-31 0 -65 -9t-61.5 -28.5t-46 -52t-18.5 -82.5q0 -43 -13 -68.5t-31.5 -38.5t-38 -18.5t-31.5 -5.5q-57 0 -58 49q0 51 43 109.5t108.5 107t142.5 80t143 31.5q39 0 76.5 -9 t67.5 -35t47 -70t17 -113q0 -123 -3 -244t-3 -244q0 -63 8.5 -89.5t34.5 -26.5q20 0 42 14t40 47l12 -51q-10 -23 -26.5 -43.5t-36.5 -36.5t-41.5 -26.5t-42.5 -10.5q-20 0 -38.5 6t-36 22.5t-35 46.5t-33.5 77q-104 -90 -178 -121t-134 -31q-92 0 -137 54.5t-45 127.5z M250 180q0 -47 32.5 -76.5t86.5 -29.5q29 0 58.5 8t57 22.5t49 35t33.5 42.5q4 10 10.5 44t6.5 67v184q-160 -66 -247 -137.5t-87 -159.5zM297 1081l285 273q43 41 64.5 54t37.5 13q35 0 52.5 -20.5t17.5 -48.5q0 -16 -18.5 -39t-80.5 -60l-290 -172h-68z" />
<glyph unicode="&#xe2;" horiz-adv-x="909" d="M90 145q0 51 26.5 99.5t85 94.5t153 94t229.5 99v101q0 59 -9.5 97t-26 59.5t-39 29.5t-48.5 8q-31 0 -65 -9t-61.5 -28.5t-46 -52t-18.5 -82.5q0 -43 -13 -68.5t-31.5 -38.5t-38 -18.5t-31.5 -5.5q-57 0 -58 49q0 51 43 109.5t108.5 107t142.5 80t143 31.5q39 0 76.5 -9 t67.5 -35t47 -70t17 -113q0 -123 -3 -244t-3 -244q0 -63 8.5 -89.5t34.5 -26.5q20 0 42 14t40 47l12 -51q-10 -23 -26.5 -43.5t-36.5 -36.5t-41.5 -26.5t-42.5 -10.5q-20 0 -38.5 6t-36 22.5t-35 46.5t-33.5 77q-104 -90 -178 -121t-134 -31q-92 0 -137 54.5t-45 127.5z M143 1081l260 346h103l260 -346h-66l-245 217l-246 -217h-66zM250 180q0 -47 32.5 -76.5t86.5 -29.5q29 0 58.5 8t57 22.5t49 35t33.5 42.5q4 10 10.5 44t6.5 67v184q-160 -66 -247 -137.5t-87 -159.5z" />
<glyph unicode="&#xe3;" horiz-adv-x="909" d="M88 1163q35 106 87 155.5t130 49.5q53 0 98.5 -15.5t85.5 -33.5q41 -20 77 -35.5t71 -15.5t68.5 23.5t62.5 82.5h53q-35 -106 -87 -155.5t-130 -49.5q-53 0 -98 15.5t-86 34.5q-41 20 -77 35.5t-71 15.5t-68.5 -23.5t-62.5 -83.5h-53zM90 145q0 51 26.5 99.5t85 94.5 t153 94t229.5 99v101q0 59 -9.5 97t-26 59.5t-39 29.5t-48.5 8q-31 0 -65 -9t-61.5 -28.5t-46 -52t-18.5 -82.5q0 -43 -13 -68.5t-31.5 -38.5t-38 -18.5t-31.5 -5.5q-57 0 -58 49q0 51 43 109.5t108.5 107t142.5 80t143 31.5q39 0 76.5 -9t67.5 -35t47 -70t17 -113 q0 -123 -3 -244t-3 -244q0 -63 8.5 -89.5t34.5 -26.5q20 0 42 14t40 47l12 -51q-10 -23 -26.5 -43.5t-36.5 -36.5t-41.5 -26.5t-42.5 -10.5q-20 0 -38.5 6t-36 22.5t-35 46.5t-33.5 77q-104 -90 -178 -121t-134 -31q-92 0 -137 54.5t-45 127.5zM250 180q0 -47 32.5 -76.5 t86.5 -29.5q29 0 58.5 8t57 22.5t49 35t33.5 42.5q4 10 10.5 44t6.5 67v184q-160 -66 -247 -137.5t-87 -159.5z" />
<glyph unicode="&#xe4;" horiz-adv-x="909" d="M90 145q0 51 26.5 99.5t85 94.5t153 94t229.5 99v101q0 59 -9.5 97t-26 59.5t-39 29.5t-48.5 8q-31 0 -65 -9t-61.5 -28.5t-46 -52t-18.5 -82.5q0 -43 -13 -68.5t-31.5 -38.5t-38 -18.5t-31.5 -5.5q-57 0 -58 49q0 51 43 109.5t108.5 107t142.5 80t143 31.5q39 0 76.5 -9 t67.5 -35t47 -70t17 -113q0 -123 -3 -244t-3 -244q0 -63 8.5 -89.5t34.5 -26.5q20 0 42 14t40 47l12 -51q-10 -23 -26.5 -43.5t-36.5 -36.5t-41.5 -26.5t-42.5 -10.5q-20 0 -38.5 6t-36 22.5t-35 46.5t-33.5 77q-104 -90 -178 -121t-134 -31q-92 0 -137 54.5t-45 127.5z M154 1257q0 45 30.5 76t75.5 31t76 -30.5t31 -76.5q0 -45 -31 -75.5t-76 -30.5t-75.5 30.5t-30.5 75.5zM250 180q0 -47 32.5 -76.5t86.5 -29.5q29 0 58.5 8t57 22.5t49 35t33.5 42.5q4 10 10.5 44t6.5 67v184q-160 -66 -247 -137.5t-87 -159.5zM543 1257q0 45 30.5 76 t75.5 31t76 -30.5t31 -76.5q0 -45 -31 -75.5t-76 -30.5t-75.5 30.5t-30.5 75.5z" />
<glyph unicode="&#xe5;" horiz-adv-x="909" d="M90 145q0 51 26.5 99.5t85 94.5t153 94t229.5 99v101q0 59 -9.5 97t-26 59.5t-39 29.5t-48.5 8q-31 0 -65 -9t-61.5 -28.5t-46 -52t-18.5 -82.5q0 -43 -13 -68.5t-31.5 -38.5t-38 -18.5t-31.5 -5.5q-57 0 -58 49q0 51 43 109.5t108.5 107t142.5 80t143 31.5q39 0 76.5 -9 t67.5 -35t47 -70t17 -113q0 -123 -3 -244t-3 -244q0 -63 8.5 -89.5t34.5 -26.5q20 0 42 14t40 47l12 -51q-10 -23 -26.5 -43.5t-36.5 -36.5t-41.5 -26.5t-42.5 -10.5q-20 0 -38.5 6t-36 22.5t-35 46.5t-33.5 77q-104 -90 -178 -121t-134 -31q-92 0 -137 54.5t-45 127.5z M248 1247q0 43 16.5 81t44 65.5t65.5 44t81 16.5t80.5 -16.5t65.5 -44t44.5 -65.5t16.5 -81t-16.5 -81t-44.5 -65.5t-65.5 -44t-80.5 -16.5t-81 16.5t-65.5 44t-44 65.5t-16.5 81zM250 180q0 -47 32.5 -76.5t86.5 -29.5q29 0 58.5 8t57 22.5t49 35t33.5 42.5q4 10 10.5 44 t6.5 67v184q-160 -66 -247 -137.5t-87 -159.5zM309 1247q0 -59 43 -102t103 -43q59 0 102 43t43 102t-43 102.5t-102 43.5t-102.5 -43t-43.5 -103z" />
<glyph unicode="&#xe6;" horiz-adv-x="1366" d="M90 145q0 51 25.5 99.5t84 94.5t152.5 94t230 99v101q0 59 -9.5 97t-26 59.5t-38 29.5t-47.5 8q-31 0 -65 -9t-61.5 -28.5t-46 -52t-18.5 -82.5q0 -43 -13 -68.5t-31.5 -38.5t-38 -18.5t-31.5 -5.5q-57 0 -58 49q0 51 43 109.5t108.5 107t142.5 80t143 31.5 q74 0 109.5 -35t64.5 -80q33 33 70.5 54.5t75.5 35t72 19.5t58 6q88 0 151.5 -28.5t105.5 -78t62.5 -114t20.5 -133.5h-37q-20 0 -53 1t-84 1h-123q-20 0 -53 -1t-74 -1q-39 0 -84 -1t-88 -1v-111q0 -188 79 -280.5t196 -92.5q86 0 162.5 36t113.5 85l41 -43 q-96 -106 -187.5 -141t-170.5 -35q-59 0 -112.5 15.5t-97.5 41t-79 60.5t-53 74q-78 -94 -171.5 -142.5t-177.5 -48.5q-92 0 -137 54.5t-45 127.5zM250 180q0 -47 31.5 -76.5t85.5 -29.5q29 0 58.5 8t57 22.5t49 35t33.5 42.5q4 10 10.5 44t6.5 67v184q-160 -66 -246 -137.5 t-86 -159.5zM731 594l316 8q78 2 98 14.5t20 34.5q0 25 -9 57.5t-31.5 61.5t-59.5 49.5t-94 20.5q-98 0 -160.5 -61.5t-79.5 -184.5z" />
<glyph unicode="&#xe7;" horiz-adv-x="909" d="M94 399q0 102 34 193.5t95.5 160t148.5 108.5t195 40q154 0 223.5 -52t69.5 -136q0 -53 -55 -54q-12 0 -32.5 5.5t-40 15.5t-35 25.5t-21.5 35.5q-14 53 -47 76t-86 23q-41 0 -90.5 -19.5t-94.5 -63.5t-74.5 -114t-29.5 -170q0 -74 22.5 -144.5t64.5 -128t104.5 -92 t142.5 -34.5q53 0 118.5 19.5t108.5 45.5l29 -30q-68 -76 -147 -110t-171 -36l-47 -108q47 10 80 10q16 0 41 -5t48.5 -20.5t41 -44t17.5 -74.5q0 -80 -59.5 -128t-174.5 -48q-35 0 -61.5 2t-52 8.5t-52 15.5t-59.5 26l33 59q41 -23 90 -36t86 -13q14 0 34.5 5t38 17.5 t29.5 30.5t12 45q0 45 -30.5 65.5t-65.5 20.5q-10 0 -36.5 -4t-43.5 -8l-16 14l76 176q-78 12 -144.5 50t-115 94.5t-75 130t-26.5 155.5z" />
<glyph unicode="&#xe8;" horiz-adv-x="909" d="M66 438q0 88 31.5 172t89 148.5t138.5 103.5t179 39q82 0 149.5 -27.5t113.5 -72.5t71.5 -103.5t25.5 -119.5v-37q-14 2 -47 4t-75 3t-85 1h-73h-172q-76 0 -127.5 -2t-67.5 -6q-2 -10 -3 -23.5t-1 -36.5q0 -86 28.5 -159.5t78 -129t115 -87t138.5 -31.5q78 0 133.5 23.5 t118.5 80.5l43 -41q-66 -78 -158 -126t-221 -48q-92 0 -168.5 35t-134 98.5t-89 150.5t-31.5 191zM209 1352q0 29 17.5 49t52.5 20q16 0 37.5 -13t64.5 -54l285 -273h-68l-291 172q-61 37 -79.5 59.5t-18.5 39.5zM223 621q0 -23 41 -23l221 12q72 4 113 9.5t62.5 11.5 t26.5 15.5t5 25.5q0 76 -57 122t-143 46q-53 0 -102.5 -22.5t-86.5 -56.5t-58.5 -72t-21.5 -68z" />
<glyph unicode="&#xe9;" horiz-adv-x="909" d="M66 438q0 88 31.5 172t89 148.5t138.5 103.5t179 39q82 0 149.5 -27.5t113.5 -72.5t71.5 -103.5t25.5 -119.5v-37q-14 2 -47 4t-75 3t-85 1h-73h-172q-76 0 -127.5 -2t-67.5 -6q-2 -10 -3 -23.5t-1 -36.5q0 -86 28.5 -159.5t78 -129t115 -87t138.5 -31.5q78 0 133.5 23.5 t118.5 80.5l43 -41q-66 -78 -158 -126t-221 -48q-92 0 -168.5 35t-134 98.5t-89 150.5t-31.5 191zM223 621q0 -23 41 -23l221 12q72 4 113 9.5t62.5 11.5t26.5 15.5t5 25.5q0 76 -57 122t-143 46q-53 0 -102.5 -22.5t-86.5 -56.5t-58.5 -72t-21.5 -68zM297 1081l285 273 q43 41 64.5 54t37.5 13q35 0 52.5 -20.5t17.5 -48.5q0 -16 -18.5 -39t-80.5 -60l-290 -172h-68z" />
<glyph unicode="&#xea;" horiz-adv-x="909" d="M66 438q0 88 31.5 172t89 148.5t138.5 103.5t179 39q82 0 149.5 -27.5t113.5 -72.5t71.5 -103.5t25.5 -119.5v-37q-14 2 -47 4t-75 3t-85 1h-73h-172q-76 0 -127.5 -2t-67.5 -6q-2 -10 -3 -23.5t-1 -36.5q0 -86 28.5 -159.5t78 -129t115 -87t138.5 -31.5q78 0 133.5 23.5 t118.5 80.5l43 -41q-66 -78 -158 -126t-221 -48q-92 0 -168.5 35t-134 98.5t-89 150.5t-31.5 191zM180 1081l260 346h103l260 -346h-66l-245 217l-246 -217h-66zM223 621q0 -23 41 -23l221 12q72 4 113 9.5t62.5 11.5t26.5 15.5t5 25.5q0 76 -57 122t-143 46 q-53 0 -102.5 -22.5t-86.5 -56.5t-58.5 -72t-21.5 -68z" />
<glyph unicode="&#xeb;" horiz-adv-x="909" d="M66 438q0 88 31.5 172t89 148.5t138.5 103.5t179 39q82 0 149.5 -27.5t113.5 -72.5t71.5 -103.5t25.5 -119.5v-37q-14 2 -47 4t-75 3t-85 1h-73h-172q-76 0 -127.5 -2t-67.5 -6q-2 -10 -3 -23.5t-1 -36.5q0 -86 28.5 -159.5t78 -129t115 -87t138.5 -31.5q78 0 133.5 23.5 t118.5 80.5l43 -41q-66 -78 -158 -126t-221 -48q-92 0 -168.5 35t-134 98.5t-89 150.5t-31.5 191zM190 1257q0 45 31 76t76 31t75.5 -30.5t30.5 -76.5q0 -45 -30.5 -75.5t-75.5 -30.5t-76 30.5t-31 75.5zM223 621q0 -23 41 -23l221 12q72 4 113 9.5t62.5 11.5t26.5 15.5 t5 25.5q0 76 -57 122t-143 46q-53 0 -102.5 -22.5t-86.5 -56.5t-58.5 -72t-21.5 -68zM580 1257q0 45 30.5 76t75.5 31t76 -30.5t31 -76.5q0 -45 -31 -75.5t-76 -30.5t-75.5 30.5t-30.5 75.5z" />
<glyph unicode="&#xec;" horiz-adv-x="532" d="M-31 1352q0 29 17.5 49t52.5 20q16 0 37.5 -13t64.5 -54l285 -273h-68l-290 172q-61 37 -80 59.5t-19 39.5zM35 -8v57l71 8q43 4 58.5 20.5t19.5 39.5q2 14 4 37.5t3.5 61.5t1.5 93v137q0 88 -1.5 142.5t-2.5 86.5t-3 46t-4 20q-12 35 -47 44.5t-69 9.5v49q55 4 94 11 t68.5 20.5t51 35t39.5 58.5h43q-6 -43 -10 -105.5t-7 -134.5t-4 -145.5t-1 -137.5v-139q0 -57 1 -97t2 -64.5t3 -41.5q4 -23 20.5 -33t59.5 -14l72 -8v-57q-59 4 -116.5 6t-117.5 2q-59 0 -115.5 -2t-113.5 -6z" />
<glyph unicode="&#xed;" horiz-adv-x="532" d="M35 -8v57l71 8q43 4 58.5 20.5t19.5 39.5q2 14 4 37.5t3.5 61.5t1.5 93v137q0 88 -1.5 142.5t-2.5 86.5t-3 46t-4 20q-12 35 -47 44.5t-69 9.5v49q55 4 94 11t68.5 20.5t51 35t39.5 58.5h43q-6 -43 -10 -105.5t-7 -134.5t-4 -145.5t-1 -137.5v-139q0 -57 1 -97t2 -64.5 t3 -41.5q4 -23 20.5 -33t59.5 -14l72 -8v-57q-59 4 -116.5 6t-117.5 2q-59 0 -115.5 -2t-113.5 -6zM78 1081l284 273q43 41 65 54t38 13q35 0 52.5 -20.5t17.5 -48.5q0 -16 -18.5 -39t-80.5 -60l-291 -172h-67z" />
<glyph unicode="&#xee;" horiz-adv-x="532" d="M-45 1081l260 346h102l261 -346h-66l-246 217l-246 -217h-65zM35 -8v57l71 8q43 4 58.5 20.5t19.5 39.5q2 14 4 37.5t3.5 61.5t1.5 93v137q0 88 -1.5 142.5t-2.5 86.5t-3 46t-4 20q-12 35 -47 44.5t-69 9.5v49q55 4 94 11t68.5 20.5t51 35t39.5 58.5h43 q-6 -43 -10 -105.5t-7 -134.5t-4 -145.5t-1 -137.5v-139q0 -57 1 -97t2 -64.5t3 -41.5q4 -23 20.5 -33t59.5 -14l72 -8v-57q-59 4 -116.5 6t-117.5 2q-59 0 -115.5 -2t-113.5 -6z" />
<glyph unicode="&#xef;" horiz-adv-x="532" d="M-35 1257q0 45 31 76t76 31t75.5 -30.5t30.5 -76.5q0 -45 -30.5 -75.5t-75.5 -30.5t-76 30.5t-31 75.5zM35 -8v57l71 8q43 4 58.5 20.5t19.5 39.5q2 14 4 37.5t3.5 61.5t1.5 93v137q0 88 -1.5 142.5t-2.5 86.5t-3 46t-4 20q-12 35 -47 44.5t-69 9.5v49q55 4 94 11 t68.5 20.5t51 35t39.5 58.5h43q-6 -43 -10 -105.5t-7 -134.5t-4 -145.5t-1 -137.5v-139q0 -57 1 -97t2 -64.5t3 -41.5q4 -23 20.5 -33t59.5 -14l72 -8v-57q-59 4 -116.5 6t-117.5 2q-59 0 -115.5 -2t-113.5 -6zM354 1257q0 45 31 76t76 31t75.5 -30.5t30.5 -76.5 q0 -45 -30.5 -75.5t-75.5 -30.5t-76 30.5t-31 75.5z" />
<glyph unicode="&#xf0;" horiz-adv-x="1062" d="M66 436q0 98 36.5 183.5t100 147.5t149.5 98t185 36q86 0 154.5 -33.5t113.5 -93.5h4q-35 174 -92.5 297t-155.5 217l-225 -131l-62 57l222 129q-59 47 -133 88.5t-166 79.5l32 48q199 -51 351 -166l219 127l61 -56l-213 -125q166 -143 258 -349t92 -453 q0 -117 -32.5 -221.5t-93 -182.5t-147.5 -124t-198 -46t-196.5 43t-144 110.5t-89 151.5t-30.5 168zM238 475q0 -78 20.5 -157.5t61 -144t102 -106.5t143.5 -42q88 0 140.5 39.5t79 95t33.5 114t7 97.5q-2 98 -21.5 182t-58 146.5t-96 99.5t-133.5 41q-61 0 -112.5 -30 t-88 -80t-57 -115.5t-20.5 -139.5z" />
<glyph unicode="&#xf1;" horiz-adv-x="1101" d="M29 -8v57l88 8q41 4 50 26.5t9 72.5v508q0 47 -22.5 67.5t-94.5 32.5v49q78 4 125 36t80 91h47v-192h2l103 92q35 23 91 42t130 19q66 0 119 -17.5t91 -55t58.5 -99t20.5 -149.5q0 -41 -2 -101.5t-4 -125t-4.5 -121t-2.5 -87.5q0 -27 1 -43t7.5 -25t18.5 -13.5t33 -6.5 l65 -8v-57q-41 4 -90 6t-108 2q-70 0 -124 -2t-102 -6v57l103 12q18 2 30.5 11.5t18.5 42t9 100.5t3 186q0 41 -2 109t-8 127q-4 45 -23.5 76.5t-47 51t-61.5 29t-65 9.5q-72 0 -131 -29t-116 -69v-549q0 -49 9 -72t50 -27l86 -8v-57q-49 2 -105.5 5t-113.5 3q-70 0 -122 -3 t-99 -5zM184 1163q35 106 87.5 155.5t129.5 49.5q53 0 98.5 -15.5t86.5 -33.5q41 -20 76.5 -35.5t70.5 -15.5t69 23.5t62 82.5h54q-35 -106 -87.5 -155.5t-130.5 -49.5q-53 0 -98 15.5t-86 34.5q-41 20 -77 35.5t-70 15.5q-35 0 -69 -23.5t-62 -83.5h-54z" />
<glyph unicode="&#xf2;" horiz-adv-x="1062" d="M66 436q0 98 36.5 183.5t100 147.5t149.5 98t185 36q121 0 207.5 -40t143 -104.5t83 -145.5t26.5 -165q0 -86 -31.5 -173t-92 -155.5t-148.5 -111.5t-199 -43t-196.5 43t-144 110.5t-89 151.5t-30.5 168zM238 475q0 -78 20.5 -157.5t61 -144t102 -106.5t143.5 -42 q88 0 140.5 39.5t79 95t33.5 114t7 97.5q-2 98 -21.5 182t-58 146.5t-96 99.5t-133.5 41q-61 0 -112.5 -30t-88 -80t-57 -115.5t-20.5 -139.5zM285 1352q0 29 17 49t52 20q16 0 38 -13t65 -54l284 -273h-67l-291 172q-61 37 -79.5 59.5t-18.5 39.5z" />
<glyph unicode="&#xf3;" horiz-adv-x="1062" d="M66 436q0 98 36.5 183.5t100 147.5t149.5 98t185 36q121 0 207.5 -40t143 -104.5t83 -145.5t26.5 -165q0 -86 -31.5 -173t-92 -155.5t-148.5 -111.5t-199 -43t-196.5 43t-144 110.5t-89 151.5t-30.5 168zM238 475q0 -78 20.5 -157.5t61 -144t102 -106.5t143.5 -42 q88 0 140.5 39.5t79 95t33.5 114t7 97.5q-2 98 -21.5 182t-58 146.5t-96 99.5t-133.5 41q-61 0 -112.5 -30t-88 -80t-57 -115.5t-20.5 -139.5zM373 1081l284 273q43 41 64.5 54t38.5 13q35 0 52 -20.5t17 -48.5q0 -16 -18 -39t-80 -60l-291 -172h-67z" />
<glyph unicode="&#xf4;" horiz-adv-x="1062" d="M66 436q0 98 36.5 183.5t100 147.5t149.5 98t185 36q121 0 207.5 -40t143 -104.5t83 -145.5t26.5 -165q0 -86 -31.5 -173t-92 -155.5t-148.5 -111.5t-199 -43t-196.5 43t-144 110.5t-89 151.5t-30.5 168zM221 1081l260 346h103l260 -346h-66l-246 217l-245 -217h-66z M238 475q0 -78 20.5 -157.5t61 -144t102 -106.5t143.5 -42q88 0 140.5 39.5t79 95t33.5 114t7 97.5q-2 98 -21.5 182t-58 146.5t-96 99.5t-133.5 41q-61 0 -112.5 -30t-88 -80t-57 -115.5t-20.5 -139.5z" />
<glyph unicode="&#xf5;" horiz-adv-x="1062" d="M66 436q0 98 36.5 183.5t100 147.5t149.5 98t185 36q121 0 207.5 -40t143 -104.5t83 -145.5t26.5 -165q0 -86 -31.5 -173t-92 -155.5t-148.5 -111.5t-199 -43t-196.5 43t-144 110.5t-89 151.5t-30.5 168zM166 1163q35 106 87 155.5t130 49.5q53 0 98 -15.5t86 -33.5 q41 -20 77 -35.5t71 -15.5t68.5 23.5t62.5 82.5h53q-35 -106 -87 -155.5t-130 -49.5q-53 0 -98 15.5t-86 34.5q-41 20 -77 35.5t-71 15.5t-68.5 -23.5t-62.5 -83.5h-53zM238 475q0 -78 20.5 -157.5t61 -144t102 -106.5t143.5 -42q88 0 140.5 39.5t79 95t33.5 114t7 97.5 q-2 98 -21.5 182t-58 146.5t-96 99.5t-133.5 41q-61 0 -112.5 -30t-88 -80t-57 -115.5t-20.5 -139.5z" />
<glyph unicode="&#xf6;" horiz-adv-x="1062" d="M66 436q0 98 36.5 183.5t100 147.5t149.5 98t185 36q121 0 207.5 -40t143 -104.5t83 -145.5t26.5 -165q0 -86 -31.5 -173t-92 -155.5t-148.5 -111.5t-199 -43t-196.5 43t-144 110.5t-89 151.5t-30.5 168zM231 1257q0 45 31 76t76 31t75.5 -30.5t30.5 -76.5 q0 -45 -30.5 -75.5t-75.5 -30.5t-76 30.5t-31 75.5zM238 475q0 -78 20.5 -157.5t61 -144t102 -106.5t143.5 -42q88 0 140.5 39.5t79 95t33.5 114t7 97.5q-2 98 -21.5 182t-58 146.5t-96 99.5t-133.5 41q-61 0 -112.5 -30t-88 -80t-57 -115.5t-20.5 -139.5zM621 1257 q0 45 30.5 76t75.5 31t76 -30.5t31 -76.5q0 -45 -31 -75.5t-76 -30.5t-75.5 30.5t-30.5 75.5z" />
<glyph unicode="&#xf7;" horiz-adv-x="1228" d="M96 469v98h1037v-98h-1037zM498 92q0 47 34.5 82t81.5 35t82 -35t35 -82t-34.5 -82t-82.5 -35q-47 0 -81.5 35t-34.5 82zM498 944q0 47 34.5 82t81.5 35t82 -35t35 -82t-34.5 -82t-82.5 -35q-47 0 -81.5 35t-34.5 82z" />
<glyph unicode="&#xf8;" horiz-adv-x="1062" d="M66 436q0 98 36.5 183.5t100 147.5t149.5 98t185 36q72 0 133 -15.5t102 -37.5l84 123l57 -41l-82 -119q78 -59 122 -160.5t44 -204.5q0 -86 -31.5 -173t-92 -155.5t-148.5 -111.5t-199 -43q-133 0 -235 68l-84 -121l-57 41l83 121q-84 68 -125.5 166t-41.5 198zM238 475 q0 -72 18 -147.5t57 -141.5l389 568q-25 35 -79 60.5t-107 25.5q-61 0 -112.5 -30t-88 -80t-57 -115.5t-20.5 -139.5zM356 125q39 -47 91.5 -73.5t117.5 -26.5q88 0 140.5 39.5t79 95t33.5 114t7 97.5q0 35 -4 78t-13 86t-24.5 85t-35.5 74z" />
<glyph unicode="&#xf9;" horiz-adv-x="1101" d="M45 815v49q78 2 157 5t138 8q-4 -92 -10 -246t-6 -350q0 -98 39.5 -165t140.5 -67q55 0 115.5 22.5t146.5 82.5q4 18 6 54t4 79t2 88v82q0 104 -1 166.5t-2 96.5t-4 46t-9 18q-10 8 -17.5 14.5t-21.5 9.5t-37.5 5t-64.5 2v49q80 2 166.5 5t154.5 8q-4 -55 -7 -135 t-5 -170.5t-3 -184.5t-1 -178q0 -39 1 -61.5t2 -35t4 -18.5t7 -8q10 -8 32.5 -11t84.5 -3v-52q-70 0 -122 -17t-87 -40h-45q0 23 -8.5 66t-16.5 71q-166 -137 -329 -137q-102 0 -159 39t-83.5 95.5t-31.5 120t-5 112.5q0 61 1 103t2 82t2 88t1 120q0 39 -2 51t-10 21 q-4 4 -9 8t-17.5 6t-34 4t-58.5 2zM274 1352q0 29 17.5 49t52.5 20q16 0 37.5 -13t64.5 -54l285 -273h-67l-291 172q-61 37 -80 59.5t-19 39.5z" />
<glyph unicode="&#xfa;" horiz-adv-x="1101" d="M45 815v49q78 2 157 5t138 8q-4 -92 -10 -246t-6 -350q0 -98 39.5 -165t140.5 -67q55 0 115.5 22.5t146.5 82.5q4 18 6 54t4 79t2 88v82q0 104 -1 166.5t-2 96.5t-4 46t-9 18q-10 8 -17.5 14.5t-21.5 9.5t-37.5 5t-64.5 2v49q80 2 166.5 5t154.5 8q-4 -55 -7 -135 t-5 -170.5t-3 -184.5t-1 -178q0 -39 1 -61.5t2 -35t4 -18.5t7 -8q10 -8 32.5 -11t84.5 -3v-52q-70 0 -122 -17t-87 -40h-45q0 23 -8.5 66t-16.5 71q-166 -137 -329 -137q-102 0 -159 39t-83.5 95.5t-31.5 120t-5 112.5q0 61 1 103t2 82t2 88t1 120q0 39 -2 51t-10 21 q-4 4 -9 8t-17.5 6t-34 4t-58.5 2zM362 1081l285 273q43 41 64.5 54t38.5 13q35 0 52 -20.5t17 -48.5q0 -16 -18.5 -39t-79.5 -60l-291 -172h-68z" />
<glyph unicode="&#xfb;" horiz-adv-x="1101" d="M45 815v49q78 2 157 5t138 8q-4 -92 -10 -246t-6 -350q0 -98 39.5 -165t140.5 -67q55 0 115.5 22.5t146.5 82.5q4 18 6 54t4 79t2 88v82q0 104 -1 166.5t-2 96.5t-4 46t-9 18q-10 8 -17.5 14.5t-21.5 9.5t-37.5 5t-64.5 2v49q80 2 166.5 5t154.5 8q-4 -55 -7 -135 t-5 -170.5t-3 -184.5t-1 -178q0 -39 1 -61.5t2 -35t4 -18.5t7 -8q10 -8 32.5 -11t84.5 -3v-52q-70 0 -122 -17t-87 -40h-45q0 23 -8.5 66t-16.5 71q-166 -137 -329 -137q-102 0 -159 39t-83.5 95.5t-31.5 120t-5 112.5q0 61 1 103t2 82t2 88t1 120q0 39 -2 51t-10 21 q-4 4 -9 8t-17.5 6t-34 4t-58.5 2zM240 1081l260 346h102l260 -346h-65l-246 217l-246 -217h-65z" />
<glyph unicode="&#xfc;" horiz-adv-x="1101" d="M45 815v49q78 2 157 5t138 8q-4 -92 -10 -246t-6 -350q0 -98 39.5 -165t140.5 -67q55 0 115.5 22.5t146.5 82.5q4 18 6 54t4 79t2 88v82q0 104 -1 166.5t-2 96.5t-4 46t-9 18q-10 8 -17.5 14.5t-21.5 9.5t-37.5 5t-64.5 2v49q80 2 166.5 5t154.5 8q-4 -55 -7 -135 t-5 -170.5t-3 -184.5t-1 -178q0 -39 1 -61.5t2 -35t4 -18.5t7 -8q10 -8 32.5 -11t84.5 -3v-52q-70 0 -122 -17t-87 -40h-45q0 23 -8.5 66t-16.5 71q-166 -137 -329 -137q-102 0 -159 39t-83.5 95.5t-31.5 120t-5 112.5q0 61 1 103t2 82t2 88t1 120q0 39 -2 51t-10 21 q-4 4 -9 8t-17.5 6t-34 4t-58.5 2zM250 1257q0 45 30.5 76t75.5 31t76 -30.5t31 -76.5q0 -45 -31 -75.5t-76 -30.5t-75.5 30.5t-30.5 75.5zM639 1257q0 45 30.5 76t75.5 31t76 -30.5t31 -76.5q0 -45 -30.5 -75.5t-76.5 -30.5q-45 0 -75.5 30.5t-30.5 75.5z" />
<glyph unicode="&#xfd;" horiz-adv-x="909" d="M25 823v49q31 -4 73.5 -6t102.5 -2q59 0 108 2t92 6v-49q-76 0 -100.5 -9t-24.5 -32t32 -119t87 -229l113 -274q37 74 73.5 169t67.5 183t49.5 156.5t18.5 93.5q0 16 -4 28.5t-18.5 19.5t-41 10t-69.5 3v49q27 -4 64.5 -6t92.5 -2q43 0 87 2t85 6v-49q-47 0 -64.5 -17.5 t-33.5 -55.5l-223 -566q-61 -154 -108.5 -257t-83 -170.5t-61.5 -102.5t-40 -49q-25 -25 -73 -42.5t-103 -17.5q-63 0 -64 39q0 12 5.5 36t16.5 46.5t26.5 38.5t35.5 16q23 0 47.5 -20t49.5 -20q27 0 63.5 43t89.5 153l43 90l-221 551q-45 113 -72.5 174.5t-47 90t-35 34.5 t-35.5 6zM266 1081l285 273q43 41 64.5 54t37.5 13q35 0 52.5 -20.5t17.5 -48.5q0 -16 -18.5 -39t-79.5 -60l-291 -172h-68z" />
<glyph unicode="&#xfe;" horiz-adv-x="1138" d="M37 -397l92 8q35 4 46 21.5t13 68.5q0 33 1 97.5t2.5 137t1.5 138.5v104v748q0 139 -1.5 227t-4.5 139t-8 76t-13 37q-10 14 -32.5 21.5t-88.5 7.5v49q68 12 139.5 37.5t114.5 52.5h55q-10 -262 -12 -477t-2 -338q78 63 155.5 91t135.5 28q88 0 163.5 -28t131 -82 t87 -136t31.5 -189q0 -80 -30.5 -162.5t-91 -150.5t-147.5 -111t-200 -43q-61 0 -129.5 20.5t-105.5 53.5v-291q0 -53 2 -81.5t11 -43t27.5 -18.5t51.5 -8l100 -13v-49q-53 4 -113.5 6.5t-123.5 2.5q-61 0 -123.5 -2.5t-134.5 -6.5v58zM328 311q0 -133 72.5 -203.5 t195.5 -70.5q55 0 107.5 25.5t92.5 70.5t64.5 106.5t24.5 135.5q0 86 -21.5 161.5t-62.5 132t-102.5 89.5t-141.5 33q-41 0 -79 -10.5t-68.5 -26t-50 -35t-21.5 -39.5q-4 -29 -7 -74t-3 -102v-193z" />
<glyph unicode="&#xff;" horiz-adv-x="909" d="M25 823v49q31 -4 73.5 -6t102.5 -2q59 0 108 2t92 6v-49q-76 0 -100.5 -9t-24.5 -32t32 -119t87 -229l113 -274q37 74 73.5 169t67.5 183t49.5 156.5t18.5 93.5q0 16 -4 28.5t-18.5 19.5t-41 10t-69.5 3v49q27 -4 64.5 -6t92.5 -2q43 0 87 2t85 6v-49q-47 0 -64.5 -17.5 t-33.5 -55.5l-223 -566q-61 -154 -108.5 -257t-83 -170.5t-61.5 -102.5t-40 -49q-25 -25 -73 -42.5t-103 -17.5q-63 0 -64 39q0 12 5.5 36t16.5 46.5t26.5 38.5t35.5 16q23 0 47.5 -20t49.5 -20q27 0 63.5 43t89.5 153l43 90l-221 551q-45 113 -72.5 174.5t-47 90t-35 34.5 t-35.5 6zM154 1257q0 45 30.5 76t75.5 31t76 -30.5t31 -76.5q0 -45 -31 -75.5t-76 -30.5t-75.5 30.5t-30.5 75.5zM543 1257q0 45 30.5 76t75.5 31t76 -30.5t31 -76.5q0 -45 -31 -75.5t-76 -30.5t-75.5 30.5t-30.5 75.5z" />
<glyph unicode="&#x152;" horiz-adv-x="2048" d="M74 717q0 143 51 282.5t147.5 249t237.5 176t321 66.5q39 0 91.5 -6t111.5 -12t125 -12.5t131 -6.5q119 0 271.5 2t320.5 6v-317h-74q-16 111 -34.5 159t-30.5 58q-14 10 -30.5 16t-52.5 9.5t-99.5 4.5t-171.5 1q-47 0 -76 -2t-44.5 -12.5t-19.5 -31t-4 -59.5v-516 q45 -2 89 -4t91 -2q86 0 134.5 2t71 12.5t27.5 28.5t5 53v90h61v-440h-59q-4 57 -7 91t-8 52.5t-15.5 25.5t-24.5 11q-16 4 -58.5 8.5t-134.5 4.5q-43 0 -86 -1.5t-86 -3.5v-516q0 -47 5 -71.5t17.5 -35.5t34 -13.5t56.5 -2.5q37 0 103.5 1t135 5.5t128 14.5t83.5 27 q16 12 31.5 29.5t31 48t33 75.5t38.5 111h61q-12 -59 -25.5 -144.5t-31.5 -236.5q-74 4 -137.5 5t-131.5 1q-68 2 -145 2h-184q-82 0 -157 -5t-147 -13q-70 -8 -134 -13.5t-126 -5.5q-145 0 -254.5 41t-188.5 106.5t-130 148.5t-82 167t-43 161t-12 130zM283 721 q0 -135 32.5 -259t100 -218t170 -150.5t239.5 -56.5q61 0 107.5 13t77 46t47 90.5t16.5 143.5v831q0 80 -21.5 132.5t-58.5 82t-86 42t-104 12.5q-84 0 -175 -40t-168 -126t-127 -220.5t-50 -322.5z" />
<glyph unicode="&#x153;" horiz-adv-x="1554" d="M90 430q0 127 41 216t102.5 146.5t135 83t139.5 25.5q41 0 83 -5t85 -23.5t88 -53.5t92 -94q35 55 75 89t82 53.5t83 26.5t78 7q88 0 151.5 -28.5t105.5 -78t62 -114t20 -133.5h-36t-53 1t-85 1h-122q-20 0 -53.5 -1t-73.5 -1q-39 0 -84 -1t-88 -1q0 -123 23.5 -214 t65.5 -150.5t97 -89.5t121 -30q27 0 61.5 9.5t68.5 27t64.5 39t48.5 45.5l41 -43q-96 -106 -187 -141t-171 -35q-41 0 -85 10.5t-85 32t-77 56t-60 85.5q-115 -184 -342 -184q-86 0 -161 38t-131 102.5t-88 149.5t-32 177zM238 485q0 -57 14 -136t49 -151.5t92.5 -122.5 t143.5 -50q43 0 88 19t82.5 61t62.5 107t25 155q0 246 -80 359.5t-211 113.5q-49 0 -96.5 -18.5t-85 -60.5t-61 -109.5t-23.5 -166.5zM920 594l315 8q78 2 98.5 14.5t20.5 34.5q0 25 -9.5 57.5t-32 61.5t-59 49.5t-94.5 20.5q-98 0 -160.5 -61.5t-78.5 -184.5z" />
<glyph unicode="&#x178;" horiz-adv-x="1478" d="M35 1401v61q68 -4 134.5 -6t131.5 -2q78 0 144.5 2t132.5 6v-61q-55 -6 -88 -10.5t-49.5 -10.5t-20.5 -13t-4 -19q0 -8 32.5 -77t85 -169.5t119 -216t133.5 -215.5q31 43 70 104.5t79 130t79 139t68.5 132t48 108.5t18.5 68q0 14 -5 22t-20.5 13.5t-46 8.5t-80.5 5v61 q59 -4 119 -6t119 -2t113.5 2t95.5 6v-61q-78 -8 -105.5 -19.5t-38.5 -23.5q-14 -18 -47.5 -69.5t-78 -121t-95.5 -151.5t-100 -162t-93 -150.5t-73 -119.5q-4 -47 -3 -115t1 -170q0 -59 1 -98t4 -62.5t8 -34t12 -14.5q10 -6 22 -11t33.5 -9t58.5 -7.5t97 -9.5v-61 q-66 4 -146 6t-170 2q-123 0 -190.5 -2t-122.5 -6v61q57 4 93 9.5t57.5 10.5t32.5 12t20 13q6 6 12 34t10 63.5t6 74.5t2 70q0 98 -2 164.5t-8 93.5q-20 37 -58 100.5t-83 139t-93.5 155.5t-91.5 149.5t-74.5 122t-41.5 70.5q-14 25 -33 35t-78 21zM438 1735q0 45 31 75.5 t76 30.5t75.5 -30.5t30.5 -75.5t-30.5 -76t-75.5 -31t-76 31t-31 76zM827 1735q0 45 31 75.5t76 30.5t75.5 -30.5t30.5 -75.5t-30.5 -76t-75.5 -31t-76 31t-31 76z" />
<glyph unicode="&#x2c6;" horiz-adv-x="528" d="M-47 1081l260 346h102l260 -346h-65l-246 217l-246 -217h-65z" />
<glyph unicode="&#x2dc;" horiz-adv-x="528" d="M-102 1163q35 106 87 155.5t130 49.5q53 0 98 -15.5t86 -33.5q41 -20 77 -35.5t70 -15.5q35 0 69 23.5t63 82.5h53q-35 -106 -87 -155.5t-130 -49.5q-53 0 -98.5 15.5t-86.5 34.5q-41 20 -76.5 35.5t-70.5 15.5t-68.5 -23.5t-62.5 -83.5h-53z" />
<glyph unicode="&#x2000;" horiz-adv-x="986" />
<glyph unicode="&#x2001;" horiz-adv-x="1972" />
<glyph unicode="&#x2002;" horiz-adv-x="986" />
<glyph unicode="&#x2003;" horiz-adv-x="1972" />
<glyph unicode="&#x2004;" horiz-adv-x="657" />
<glyph unicode="&#x2005;" horiz-adv-x="493" />
<glyph unicode="&#x2006;" horiz-adv-x="328" />
<glyph unicode="&#x2007;" horiz-adv-x="328" />
<glyph unicode="&#x2008;" horiz-adv-x="246" />
<glyph unicode="&#x2009;" horiz-adv-x="394" />
<glyph unicode="&#x200a;" horiz-adv-x="109" />
<glyph unicode="&#x2010;" horiz-adv-x="645" d="M121 383q2 16 4 29.5t2 29.5q0 14 -2 28.5t-4 31.5l201 -8q31 -2 71.5 1t130.5 7q-2 -16 -4 -29.5t-2 -30.5q0 -16 2 -30.5t4 -28.5l-200 8q-31 2 -72 -1t-131 -7z" />
<glyph unicode="&#x2011;" horiz-adv-x="645" d="M121 383q2 16 4 29.5t2 29.5q0 14 -2 28.5t-4 31.5l201 -8q31 -2 71.5 1t130.5 7q-2 -16 -4 -29.5t-2 -30.5q0 -16 2 -30.5t4 -28.5l-200 8q-31 2 -72 -1t-131 -7z" />
<glyph unicode="&#x2012;" horiz-adv-x="645" d="M121 383q2 16 4 29.5t2 29.5q0 14 -2 28.5t-4 31.5l201 -8q31 -2 71.5 1t130.5 7q-2 -16 -4 -29.5t-2 -30.5q0 -16 2 -30.5t4 -28.5l-200 8q-31 2 -72 -1t-131 -7z" />
<glyph unicode="&#x2013;" d="M0 387v111h1024v-111h-1024z" />
<glyph unicode="&#x2014;" horiz-adv-x="2048" d="M0 387v111h2048v-111h-2048z" />
<glyph unicode="&#x2018;" horiz-adv-x="528" d="M129 1149q0 39 11.5 77t38 79t71.5 87t115 99l34 -37q-102 -86 -137 -141.5t-35 -98.5q0 -33 24.5 -49t53.5 -30.5t53.5 -35t24.5 -61.5q0 -47 -28.5 -67.5t-63.5 -20.5q-37 0 -66.5 17.5t-51 45t-33 63.5t-11.5 73z" />
<glyph unicode="&#x2019;" horiz-adv-x="528" d="M129 987q102 86 137 141.5t35 98.5q0 33 -24.5 49t-53 30.5t-53.5 35t-25 61.5q0 47 29 67.5t64 20.5q37 0 66.5 -17.5t51 -45t32.5 -63.5t11 -73q0 -39 -11 -76.5t-37.5 -78.5t-72 -87t-114.5 -100z" />
<glyph unicode="&#x201a;" horiz-adv-x="528" d="M129 -307q102 86 137 141t35 98q0 33 -24.5 49.5t-53 31t-53.5 35t-25 61.5q0 47 29 67.5t64 20.5q37 0 66.5 -17.5t51 -45.5t32.5 -63.5t11 -72.5q0 -39 -11 -77t-37.5 -79t-72 -87t-114.5 -99z" />
<glyph unicode="&#x201c;" horiz-adv-x="985" d="M186 1149q0 39 11.5 77t38 79t71.5 87t115 99l35 -37q-102 -86 -137 -141.5t-35 -98.5q0 -33 24.5 -49t53 -30.5t53 -35t24.5 -61.5q0 -47 -28.5 -67.5t-63.5 -20.5q-37 0 -66.5 17.5t-51 45t-33 63.5t-11.5 73zM528 1149q0 39 11.5 77t38 79t71.5 87t115 99l35 -37 q-102 -86 -137 -141.5t-35 -98.5q0 -33 24.5 -49t53 -30.5t53 -35t24.5 -61.5q0 -47 -28.5 -67.5t-63.5 -20.5q-37 0 -66.5 17.5t-51 45t-33 63.5t-11.5 73z" />
<glyph unicode="&#x201d;" horiz-adv-x="985" d="M186 987q102 86 137 141.5t35 98.5q0 33 -24.5 49t-53 30.5t-53 35t-24.5 61.5q0 47 28.5 67.5t63.5 20.5q37 0 66.5 -17.5t51 -45t33 -63.5t11.5 -73q0 -39 -11.5 -76.5t-38 -78.5t-71.5 -87t-115 -100zM528 987q102 86 137 141.5t35 98.5q0 33 -24.5 49t-53 30.5 t-53 35t-24.5 61.5q0 47 28.5 67.5t63.5 20.5q37 0 66.5 -17.5t51 -45t33 -63.5t11.5 -73q0 -39 -11.5 -76.5t-38 -78.5t-71.5 -87t-115 -100z" />
<glyph unicode="&#x201e;" horiz-adv-x="985" d="M186 -307q102 86 137 141t35 98q0 33 -24.5 49.5t-53 31t-53 35t-24.5 61.5q0 47 28.5 67.5t63.5 20.5q37 0 66.5 -17.5t51 -45.5t33 -63.5t11.5 -72.5q0 -39 -11.5 -77t-38 -79t-71.5 -87t-115 -99zM528 -307q102 86 137 141t35 98q0 33 -24.5 49.5t-53 31t-53 35 t-24.5 61.5q0 47 28.5 67.5t63.5 20.5q37 0 66.5 -17.5t51 -45.5t33 -63.5t11.5 -72.5q0 -39 -11.5 -77t-38 -79t-71.5 -87t-115 -99z" />
<glyph unicode="&#x2022;" d="M150 727q0 76 28.5 141.5t77.5 114.5t114.5 78t141.5 29t141.5 -29t114.5 -78t77.5 -114.5t28.5 -141.5t-28.5 -141.5t-77.5 -114.5t-114.5 -77.5t-141.5 -28.5t-141.5 28.5t-114.5 77.5t-77.5 114.5t-28.5 141.5z" />
<glyph unicode="&#x2026;" horiz-adv-x="2048" d="M238 59q0 57 32.5 97.5t77.5 40.5q35 0 66.5 -21.5t31.5 -79.5q0 -47 -32.5 -90t-83.5 -43q-35 0 -63.5 20.5t-28.5 75.5zM920 59q0 57 32.5 97.5t77.5 40.5q35 0 66.5 -21.5t31.5 -79.5q0 -47 -32.5 -90t-83.5 -43q-35 0 -63.5 20.5t-28.5 75.5zM1602 59q0 57 32.5 97.5 t77.5 40.5q35 0 66.5 -21.5t31.5 -79.5q0 -47 -32.5 -90t-83.5 -43q-35 0 -63.5 20.5t-28.5 75.5z" />
<glyph unicode="&#x202f;" horiz-adv-x="394" />
<glyph unicode="&#x2039;" horiz-adv-x="645" d="M74 442q0 35 36.5 66t99 77t146.5 114.5t176 179.5q10 -8 14.5 -23.5t4.5 -26.5q0 -16 -14.5 -50t-48 -84t-92 -113.5t-146.5 -139.5q88 -76 146.5 -139t92 -113.5t48 -85t14.5 -49.5q0 -10 -4 -25.5t-15 -23.5q-92 111 -176 179.5t-146.5 114.5t-99 76.5t-36.5 65.5z " />
<glyph unicode="&#x203a;" horiz-adv-x="645" d="M94 55q0 14 14.5 49t48 85.5t92 113.5t146.5 139q-88 76 -146.5 139.5t-92 113.5t-48 84t-14.5 50q0 10 4 25.5t15 24.5q92 -111 176 -179.5t146.5 -114.5t99 -77t36.5 -66t-36.5 -65.5t-99 -76.5t-146.5 -114.5t-176 -179.5q-10 8 -14.5 23.5t-4.5 25.5z" />
<glyph unicode="&#x205f;" horiz-adv-x="493" />
<glyph unicode="&#x20ac;" d="M27 506l16 74h84q-6 86 0 174h-100l16 73h90q14 111 51 212.5t97.5 178t145.5 122.5t200 46q74 0 143.5 -18t142.5 -53v-275h-67l-10 74q-12 96 -70.5 153.5t-151.5 57.5q-147 0 -228 -127t-99 -371h485l-16 -73h-471q-4 -41 -3 -87t5 -87h428l-17 -74h-405 q29 -227 121 -339t215 -112q55 0 97 13.5t75 35t58.5 51t49.5 64.5l47 -26q-61 -121 -155 -174.5t-211 -53.5q-180 0 -303 139.5t-156 401.5h-104z" />
<glyph unicode="&#x2122;" horiz-adv-x="2027" d="M4 1274v180h684v-180h-41q-12 61 -42 102t-95 41h-109v-684q0 -43 18.5 -54t86.5 -20v-36h-320v36q68 8 86.5 19.5t18.5 54.5v684h-109q-66 0 -95.5 -41t-41.5 -102h-41zM782 1417v37h224l329 -659l340 659h193v-37q-59 -4 -89 -30.5t-30 -86.5v-569q0 -20 3 -32.5 t13.5 -19.5t31 -11t54.5 -9v-36h-317v36q35 4 55.5 8.5t31.5 11.5t14 19.5t3 32.5v541h-4l-323 -649h-19l-317 643h-4v-496q0 -47 20.5 -75.5t87.5 -35.5v-36h-266v36q70 6 89.5 35t19.5 76v551q0 6 -8.5 21.5t-26 32t-43 29.5t-62.5 13z" />
<glyph unicode="&#x25fc;" horiz-adv-x="870" d="M0 0v870h870v-870h-870z" />
<glyph unicode="&#xfb01;" horiz-adv-x="1099" d="M35 -8v57l71 8q43 4 59.5 20.5t20.5 39.5q2 14 3 37.5t2.5 61.5t1.5 93v137t-1.5 135.5t-2.5 95.5t-2 66.5t-1 51.5h-149v49q29 4 49 6t36.5 4t32 3t33.5 1q0 133 26 261t89.5 229.5t167.5 163t264 61.5q39 0 76 -7t65.5 -22.5t47 -40t18.5 -57.5q0 -37 -28.5 -62.5 t-67.5 -25.5q-41 0 -51.5 22.5t-19.5 48t-30.5 48t-82.5 22.5q-117 0 -181.5 -56.5t-95.5 -147.5t-37 -203.5t-6 -223.5l309 13q111 4 159 23.5t77 64.5h43q-6 -43 -10.5 -105.5t-7.5 -134.5t-4 -145.5t-1 -137.5v-139q0 -57 1 -97t2 -64.5t3 -41.5q4 -23 20.5 -33t59.5 -14 l72 -8v-57q-59 4 -116.5 6t-117.5 2q-59 0 -115.5 -2t-113.5 -6v57l72 8q43 4 59.5 20.5t20.5 39.5q2 14 3 37.5t2 61.5t1 93v137q0 88 -1 143.5t-3 88.5t-5 49t-8 29q-4 12 -18 20t-44 12.5t-75 5.5t-112 1h-154v-349v-139q0 -57 1 -97t2 -64.5t3 -41.5q4 -23 20.5 -33 t59.5 -14l72 -8v-57q-59 4 -116.5 6t-117.5 2q-59 0 -115.5 -2t-113.5 -6z" />
<glyph unicode="&#xfb02;" horiz-adv-x="1099" d="M35 -8v57l71 8q43 4 58.5 20.5t19.5 39.5q2 14 4 37.5t3.5 61.5t1.5 93v137t-1.5 135.5t-2.5 95.5t-2 66.5t-1 51.5h-149v49q29 4 49 6t36.5 4t32 3t33.5 1q4 104 27 228t75 232.5t139 181.5t222 73q59 0 89 -15.5t38 -52.5q33 10 58.5 27.5t37.5 40.5h48 q-6 -135 -8.5 -265t-4.5 -265.5t-2 -282.5v-314v-139q0 -57 1 -97t2 -64.5t3 -41.5q4 -23 20.5 -33t59.5 -14l72 -8v-57q-59 4 -116.5 6t-117.5 2q-59 0 -118.5 -2t-134.5 -6v57l96 8q43 4 58.5 20.5t19.5 39.5q2 14 4 37.5t3 61.5t1 93v137v480q0 139 -1 227t-3 141.5 t-5 82t-8 50.5q-14 -10 -25 -14t-18 -4q-27 0 -41 12.5t-27.5 26.5t-30.5 26.5t-52 12.5q-51 0 -90 -33t-64.5 -90t-39 -135t-13.5 -166v-195l272 13v-86h-274v-349v-139q0 -57 1 -97t2 -64.5t3 -41.5q4 -23 20.5 -33t59.5 -14l72 -8v-57q-59 4 -116.5 6t-117.5 2 q-59 0 -115.5 -2t-113.5 -6z" />
</font>
</defs>
</svg>
